#N canvas 13 147 1457 781 12;
#X obj 71 47 r displayManager;
#X obj 71 73 s screenLine5;
#X obj 567 336 s screenLine3;
#X obj 105 415 s screenLine4;
#X obj 620 749 s screenLine2;
#X msg 620 715 ⚬•°•⚬.⚬•°•⚬.⚬•°•⚬.⚬•°;
#X obj 593 87 loadbang;
#X obj 620 676 loadbang;
#X msg 842 706 ⚬•°•⚬.⚬•°•⚬.⚬•°•⚬.⚬•°;
#X msg 842 733 •°•⚬.⚬•°•⚬.⚬•°•⚬.⚬•°•;
#X msg 843 760 °•⚬.⚬•°•⚬.⚬•°•⚬.⚬•°•⚬;
#X msg 843 787 •⚬.⚬•°•⚬.⚬•°•⚬.⚬•°•⚬.;
#X msg 843 814 ⚬.⚬•°•⚬.⚬•°•⚬.⚬•°•⚬.⚬;
#X msg 843 840 .⚬•°•⚬.⚬•°•⚬.⚬•°•⚬.⚬•;
#X obj 752 542 r timer;
#X obj 752 571 % 6;
#X floatatom 752 604 5 0 0 0 - - - 0;
#X obj 752 635 sel 0 1 2 3 4 5;
#X obj 722 860 s screenLine2;
#X obj 106 201 r params;
#X text 885 573 animation;
#X obj 1083 910;
#X obj 585 60 r refresh1;
#X obj 612 153 r refresh2;
#X msg 105 365 _.\$1_.\$2_.\$3_.\$4_;
#X msg 584 113 [TUNE][DEC][FIL][DRV];
#X msg 689 275 [FUZZ][DEL][FBK][REV];
#X msg 611 181 [LVL][PAN][DEL][REV];
#X msg 650 228 [BPM][SWG][ODD][GATE];
#X connect 0 0 1 0;
#X connect 5 0 4 0;
#X connect 6 0 25 0;
#X connect 7 0 5 0;
#X connect 8 0 18 0;
#X connect 9 0 18 0;
#X connect 10 0 18 0;
#X connect 11 0 18 0;
#X connect 12 0 18 0;
#X connect 13 0 18 0;
#X connect 14 0 15 0;
#X connect 15 0 16 0;
#X connect 16 0 17 0;
#X connect 17 0 8 0;
#X connect 17 1 9 0;
#X connect 17 2 10 0;
#X connect 17 3 11 0;
#X connect 17 4 12 0;
#X connect 17 5 13 0;
#X connect 19 0 24 0;
#X connect 22 0 25 0;
#X connect 23 0 27 0;
#X connect 24 0 3 0;
#X connect 25 0 2 0;
#X connect 27 0 2 0;
