#N canvas 63 100 1161 739 12;
#X obj 261 95 r digits;
#X floatatom 261 123 5 0 0 0 - - - 0;
#X obj 147 446 r notes;
#X obj 147 469 bng 19 250 50 0 empty empty empty 0 -10 0 12 #fcfcfc #000000 #000000;
#X obj 148 492 del 1 1 msec;
#X obj 452 362 symbol o;
#X obj 706 363 symbol o;
#X obj 326 362 symbol o;
#X obj 580 363 symbol o;
#X obj 263 362 symbol x;
#X obj 389 362 symbol x;
#X obj 517 363 symbol x;
#X obj 643 363 symbol x;
#X obj 958 363 symbol o;
#X obj 1212 364 symbol o;
#X obj 832 363 symbol o;
#X obj 1086 364 symbol o;
#X obj 769 363 symbol x;
#X obj 895 363 symbol x;
#X obj 1023 364 symbol x;
#X obj 1149 364 symbol x;
#X obj 261 149 sel 1 -1 2 -2 3 -3 4 -4 5 -5 6 -6 7 -7 8 -8 9 -9 10 -10 11 -11 12 -12 13 -13 14 -14 15 -15 16 -16, f 289;
#X obj 1464 364 symbol o;
#X obj 1718 365 symbol o;
#X obj 1338 364 symbol o;
#X obj 1592 365 symbol o;
#X obj 1275 364 symbol x;
#X obj 1401 364 symbol x;
#X obj 1529 365 symbol x;
#X obj 1655 365 symbol x;
#X obj 1970 365 symbol o;
#X obj 2224 366 symbol o;
#X obj 1844 365 symbol o;
#X obj 2098 366 symbol o;
#X obj 1781 365 symbol x;
#X obj 1907 365 symbol x;
#X obj 2035 366 symbol x;
#X obj 2161 366 symbol x;
#X obj 169 534 pack 0 s s s s s s s s s s s s s s s s s, f 308;
#X obj 186 731 print;
#X text 517 58 display digit calculator;
#X text -213 52 display updater;
#X obj -316 122 r notes;
#X obj -250 158 sel 66 68 70 78 80 82;
#X obj -349 379 s kLoad;
#X obj -284 378 s sLoad;
#X obj -220 378 s hLoad;
#X obj -157 378 s pLoad;
#X obj -94 378 s tLoad;
#X obj -33 379 s cLoad;
#X obj -427 -134;
#X msg 169 697 |\$2\$3\$4\$5|\$6\$7\$8\$9|\$10\$11\$12\$13|\$14\$15\$16\$17|;
#X obj 169 765 s screenLine5;
#X msg 259 641 0 x x x x x x x x x x x x x x x x;
#X obj 283 612 loadbang;
#X msg -67 101 66;
#X obj -37 71 loadbang;
#X connect 0 0 1 0;
#X connect 1 0 21 0;
#X connect 2 0 3 0;
#X connect 3 0 4 0;
#X connect 4 0 38 0;
#X connect 5 0 38 2;
#X connect 6 0 38 4;
#X connect 7 0 38 1;
#X connect 8 0 38 3;
#X connect 9 0 38 1;
#X connect 10 0 38 2;
#X connect 11 0 38 3;
#X connect 12 0 38 4;
#X connect 13 0 38 6;
#X connect 14 0 38 8;
#X connect 15 0 38 5;
#X connect 16 0 38 7;
#X connect 17 0 38 5;
#X connect 18 0 38 6;
#X connect 19 0 38 7;
#X connect 20 0 38 8;
#X connect 21 0 9 0;
#X connect 21 1 7 0;
#X connect 21 2 10 0;
#X connect 21 3 5 0;
#X connect 21 4 11 0;
#X connect 21 5 8 0;
#X connect 21 6 12 0;
#X connect 21 7 6 0;
#X connect 21 8 17 0;
#X connect 21 9 15 0;
#X connect 21 10 18 0;
#X connect 21 11 13 0;
#X connect 21 12 19 0;
#X connect 21 13 16 0;
#X connect 21 14 20 0;
#X connect 21 15 14 0;
#X connect 21 16 26 0;
#X connect 21 17 24 0;
#X connect 21 18 27 0;
#X connect 21 19 22 0;
#X connect 21 20 28 0;
#X connect 21 21 25 0;
#X connect 21 22 29 0;
#X connect 21 23 23 0;
#X connect 21 24 34 0;
#X connect 21 25 32 0;
#X connect 21 26 35 0;
#X connect 21 27 30 0;
#X connect 21 28 36 0;
#X connect 21 29 33 0;
#X connect 21 30 37 0;
#X connect 21 31 31 0;
#X connect 22 0 38 10;
#X connect 23 0 38 12;
#X connect 24 0 38 9;
#X connect 25 0 38 11;
#X connect 26 0 38 9;
#X connect 27 0 38 10;
#X connect 28 0 38 11;
#X connect 29 0 38 12;
#X connect 30 0 38 14;
#X connect 31 0 38 16;
#X connect 32 0 38 13;
#X connect 33 0 38 15;
#X connect 34 0 38 13;
#X connect 35 0 38 14;
#X connect 36 0 38 15;
#X connect 37 0 38 16;
#X connect 38 0 51 0;
#X connect 42 0 43 0;
#X connect 43 0 44 0;
#X connect 43 1 45 0;
#X connect 43 2 46 0;
#X connect 43 3 47 0;
#X connect 43 4 48 0;
#X connect 43 5 49 0;
#X connect 51 0 39 0;
#X connect 51 0 52 0;
#X connect 53 0 51 0;
#X connect 54 0 53 0;
#X connect 55 0 43 0;
#X connect 56 0 55 0;
