#N canvas 142 201 966 518 12;
#X floatatom 96 212 5 0 0 0 - - - 0;
#X obj 96 245 sel 61 60 62 63 64 65 67 69 71 73 72 74 75 76 77 79 81 83;
#X obj 96 184 r notes;
#X obj 646 154 r encbut;
#X obj 535 259 spigot;
#X obj 646 214 == 0;
#X floatatom 646 185 5 0 0 0 - - - 0;
#X floatatom 556 302 5 0 0 0 - - - 0;
#X obj 596 113 loadbang;
#X msg 597 140 0;
#X obj 101 553 sel 61 60 62 63 64 65 67 69 71 73 72 74 75 76 77 79 81 83;
#X obj 102 413 r notes;
#X obj 579 468 r encbut;
#X obj 540 572 spigot;
#X floatatom 579 499 5 0 0 0 - - - 0;
#X obj 529 427 loadbang;
#X msg 530 454 0;
#X obj 579 528 == 1;
#X msg 141 456 \$2;
#X obj 102 508 spigot;
#X obj 141 481 != 0;
#X text 284 510 tone selector;
#X text 276 209 track selector;
#X obj 540 644 s toneSelectKeys;
#X obj 926 872;
#X obj 604 320 s trackSelectKeys;
#X text 676 114 add to separate selectors;
#X connect 0 0 1 0;
#X connect 1 18 7 0;
#X connect 2 0 0 0;
#X connect 3 0 6 0;
#X connect 5 0 4 1;
#X connect 6 0 5 0;
#X connect 7 0 25 0;
#X connect 8 0 9 0;
#X connect 9 0 6 0;
#X connect 10 18 13 0;
#X connect 11 0 18 0;
#X connect 11 0 19 0;
#X connect 12 0 14 0;
#X connect 13 0 23 0;
#X connect 14 0 17 0;
#X connect 15 0 16 0;
#X connect 16 0 14 0;
#X connect 17 0 13 1;
#X connect 18 0 20 0;
#X connect 19 0 10 0;
#X connect 20 0 19 1;
