#N canvas 223 136 1003 641 12;
#X floatatom 112 -198 5 0 0 0 - - - 0;
#X obj 112 -165 sel 61 60 62 63 64 65 67 69 71 73 72 74 75 76 77 79 81 83;
#X obj 112 -226 r notes;
#X obj 762 -272 r encbut;
#X obj 723 -184 spigot;
#X obj 762 -212 == 0;
#X floatatom 762 -241 5 0 0 0 - - - 0;
#X floatatom 572 -108 5 0 0 0 - - - 0;
#X obj 712 -313 loadbang;
#X msg 713 -286 0;
#X obj 117 155 sel 61 60 62 63 64 65 67 69 71 73 72 74 75 76 77 79 81 83;
#X obj 118 15 r notes;
#X obj 595 70 r encbut;
#X obj 556 174 spigot;
#X floatatom 595 101 5 0 0 0 - - - 0;
#X obj 545 29 loadbang;
#X msg 546 56 0;
#X obj 595 130 == 1;
#X msg 157 58 \$2;
#X obj 118 110 spigot;
#X obj 157 83 != 0;
#X text 300 112 tone selector;
#X text 292 -201 track selector;
#X obj 556 234 s toneSelectKeys;
#X obj 942 462;
#X obj 620 -90 s trackSelectKeys;
#X text 792 -312 add to separate selectors from track selection;
#X msg 620 -149 66;
#X obj 620 -186 loadbang;
#X text 567 -59 for choosing which track in view;
#X text 540 265 if you hold "enc" it also cycles samples to select one as the track, f 23;
#X obj 332 397 r notes;
#X obj 120 454 sel 66 68 70 78 80 82;
#X obj 378 590 s toggleKeys;
#X msg 332 448 \$2;
#X obj 266 519 list \$1 \$2;
#X connect 0 0 1 0;
#X connect 1 18 7 0;
#X connect 2 0 0 0;
#X connect 3 0 6 0;
#X connect 5 0 4 1;
#X connect 6 0 5 0;
#X connect 7 0 25 0;
#X connect 8 0 9 0;
#X connect 9 0 6 0;
#X connect 10 18 13 0;
#X connect 11 0 18 0;
#X connect 11 0 19 0;
#X connect 12 0 14 0;
#X connect 13 0 23 0;
#X connect 14 0 17 0;
#X connect 15 0 16 0;
#X connect 16 0 14 0;
#X connect 17 0 13 1;
#X connect 18 0 20 0;
#X connect 19 0 10 0;
#X connect 20 0 19 1;
#X connect 27 0 25 0;
#X connect 28 0 27 0;
#X connect 31 0 32 0;
#X connect 31 0 34 0;
#X connect 32 6 35 0;
#X connect 34 0 35 1;
#X connect 35 0 33 0;
