#N canvas 508 126 810 578 12;
#X obj 280 140 r knob1;
#X obj 346 140 r knob2;
#X obj 412 140 r knob3;
#X obj 478 140 r knob4;
#X obj 337 304 s knobs;
#X obj 374 190 bng 19 250 50 0 empty empty empty 0 -10 0 12 #fcfcfc #000000 #000000;
#X obj 284 257 pack 1 0.6 0.6 0.1, f 28;
#X obj 210 213 loadbang;
#X connect 0 0 6 0;
#X connect 1 0 5 0;
#X connect 1 0 6 1;
#X connect 2 0 5 0;
#X connect 2 0 6 2;
#X connect 3 0 5 0;
#X connect 3 0 6 3;
#X connect 5 0 6 0;
#X connect 6 0 4 0;
#X connect 7 0 6 0;
