#N canvas 363 251 922 578 12;
#X obj 396 243 r knob1;
#X obj 485 243 r knob2;
#X obj 575 243 r knob3;
#X obj 669 242 r knob4;
#X obj 303 513 s knobs;
#X obj 441 356 bng 19 250 50 0 empty empty empty 0 -10 0 12 #fcfcfc #000000 #000000;
#X obj 427 384 pack 1 0.6 0.6 0.1, f 28;
#X obj -17 257 loadbang;
#X obj 138 65 r kSnapshot;
#X obj 233 64 r sSnapshot;
#X obj 189 208 list;
#X obj 56 166 del 5 1 msec;
#X obj 327 64 r hSnapshot;
#X obj 329 99 r pSnapshot;
#X obj 330 134 r tSnapshot;
#X connect 0 0 6 0;
#X connect 1 0 6 1;
#X connect 1 0 5 0;
#X connect 2 0 6 2;
#X connect 2 0 5 0;
#X connect 3 0 6 3;
#X connect 3 0 5 0;
#X connect 5 0 6 0;
#X connect 6 0 4 0;
#X connect 7 0 6 0;
#X connect 8 0 10 1;
#X connect 8 0 11 0;
#X connect 9 0 10 1;
#X connect 9 0 11 0;
#X connect 10 0 6 0;
#X connect 11 0 10 0;
#X connect 12 0 11 0;
#X connect 12 0 10 1;
#X connect 13 0 11 0;
#X connect 13 0 10 1;
#X connect 14 0 11 0;
#X connect 14 0 10 1;
