#N canvas 155 98 1044 829 12;
#X obj 387 116 tgl 50 0 empty empty empty 0 -10 0 12 #feffc6 #000000 #000000 0 1;
#X text 282 132 Play / Stop;
#X obj 387 175 s transport;
#X obj 379 77 transport;
#X obj 50 391 OrganelleUI/Organelle;
#X obj 539 70 trackSelector;
#X obj 297 42 r aux;
#X obj 80 717 bng 19 250 50 0 empty empty empty 0 -10 0 12 #fcfcfc #000000 #000000;
#X text 175 189 the six tracks:;
#X obj 80 741 bng 19 250 50 0 empty empty empty 0 -10 0 12 #fcfcfc #000000 #000000;
#X obj 79 693 bng 19 250 50 0 empty empty empty 0 -10 0 12 #fcfcfc #000000 #000000;
#X obj 130 712 s kNext;
#X obj 130 736 s sNext;
#X obj 130 760 s hNext;
#X obj 161 221 clone stepTrack 17 k;
#X obj 161 246 clone stepTrack 17 s;
#X obj 161 271 clone stepTrack 17 h;
#X obj 161 294 clone stepTrack 17 p;
#X obj 161 319 clone stepTrack 17 t;
#X text 92 222 kick;
#X text 85 245 snare;
#X text 99 270 hat;
#X text 93 296 perc;
#X text 100 321 tom;
#X obj 297 70 spigot;
#X obj 297 98 bng 19 250 50 0 empty empty empty 0 -10 0 12 #fcfcfc #000000 #000000;
#X obj 667 85 soundPicker;
#X obj 74 69 loadbang;
#X obj 74 96 s enableSubMenu;
#X obj 508 40 keyRouter;
#X obj 550 116 trackDigits;
#X obj 567 144 display;
#X obj 585 40 knobRouter;
#X msg 91 154 vis 2 1;
#X msg 332 214 vis 1 1;
#N canvas 266 303 450 278 (subpatch) 0;
#X array kAudio 14584 float 2;
#X coords 0 1 14584 -1 189 37 1;
#X restore 788 63 graph;
#N canvas 0 22 450 278 (subpatch) 0;
#X array sAudio 9218 float 2;
#X coords 0 1 9218 -1 189 36 1;
#X restore 790 123 graph;
#N canvas 0 22 450 278 (subpatch) 0;
#X array hAudio 4712 float 2;
#X coords 0 1 4712 -1 189 36 1;
#X restore 790 238 graph;
#X obj 405 219 clone tapeTrack 1 k;
#X obj 405 243 clone tapeTrack 1 s;
#X obj 405 268 clone tapeTrack 1 h;
#X obj 405 292 clone tapeTrack 1 p;
#X obj 403 319 clone tapeTrack 1 t;
#N canvas 0 22 450 278 (subpatch) 0;
#X array pAudio 4092 float 2;
#X coords 0 1 4092 -1 189 36 1 0 0;
#X restore 791 179 graph;
#N canvas 0 22 450 278 (subpatch) 0;
#X array tAudio 8484 float 2;
#X coords 0 1 8484 -1 189 36 1 0 0;
#X restore 789 296 graph;
#X obj 198 711 bng 19 250 50 0 empty empty empty 0 -10 0 12 #fcfcfc #000000 #000000;
#X obj 197 687 bng 19 250 50 0 empty empty empty 0 -10 0 12 #fcfcfc #000000 #000000;
#X obj 248 706 s pNext;
#X obj 248 730 s tNext;
#X connect 0 0 2 0;
#X connect 6 0 24 1;
#X connect 6 0 24 0;
#X connect 7 0 12 0;
#X connect 9 0 13 0;
#X connect 10 0 11 0;
#X connect 24 0 25 0;
#X connect 25 0 0 0;
#X connect 27 0 28 0;
#X connect 33 0 14 0;
#X connect 34 0 39 0;
#X connect 45 0 48 0;
#X connect 46 0 47 0;
