#N canvas 165 66 810 781 12;
#X obj 387 116 tgl 50 0 empty empty empty 0 -10 0 12 #feffc6 #000000 #000000 0 1;
#X text 282 132 Play / Stop;
#X obj 387 175 s transport;
#X obj 379 77 transport;
#X obj 76 426 OrganelleUI/Organelle;
#X obj 543 235 trackSelector;
#X obj 671 276 samplePlayer;
#X obj 297 42 r aux;
#X obj 340 247 bng 19 250 50 0 empty empty empty 0 -10 0 12 #fcfcfc #000000 #000000;
#X text 177 192 the six tracks:;
#X obj 340 271 bng 19 250 50 0 empty empty empty 0 -10 0 12 #fcfcfc #000000 #000000;
#X obj 339 223 bng 19 250 50 0 empty empty empty 0 -10 0 12 #fcfcfc #000000 #000000;
#X obj 390 242 s kNext;
#X obj 390 266 s sNext;
#X obj 390 290 s hNext;
#X obj 161 221 clone stepTrack 17 k;
#X obj 161 246 clone stepTrack 17 s;
#X obj 161 271 clone stepTrack 17 h;
#X obj 161 294 clone stepTrack 17 p;
#X obj 161 319 clone stepTrack 17 t;
#X obj 161 344 clone stepTrack 17 c;
#X text 92 222 kick;
#X text 85 245 snare;
#X text 99 270 hat;
#X text 93 296 perc;
#X text 100 321 tom;
#X text 79 345 cymbal;
#X obj 297 70 spigot;
#X obj 297 98 bng 19 250 50 0 empty empty empty 0 -10 0 12 #fcfcfc #000000 #000000;
#X obj 671 250 soundPicker;
#X obj 74 69 loadbang;
#X obj 74 96 s enableSubMenu;
#X obj 512 205 keyRouter;
#X obj 554 281 trackDigits;
#X obj 571 309 display;
#X obj 589 205 knobRouter;
#X msg 91 154 vis 2 1;
#X connect 0 0 2 0;
#X connect 7 0 27 1;
#X connect 7 0 27 0;
#X connect 8 0 13 0;
#X connect 10 0 14 0;
#X connect 11 0 12 0;
#X connect 27 0 28 0;
#X connect 28 0 0 0;
#X connect 30 0 31 0;
#X connect 36 0 15 0;
