#N canvas 440 214 1885 1057 12;
#X obj 3 116 cnv 19 624 228 empty empty empty 20 12 0 12 -233017 -66577
0;
#X obj 12 154 hsl 220 22 0 1 0 0 empty empty empty -2 12 0 12 -262130
-1 -1 0 1;
#X obj 12 180 hsl 220 22 0 1 0 0 empty empty empty -2 -10 0 12 -262130
-1 -1 0 1;
#X obj 12 206 hsl 220 22 0 1 0 0 empty empty empty -2 -10 0 12 -262130
-1 -1 0 1;
#X obj 12 232 hsl 220 22 0 1 0 0 empty empty empty -2 -10 0 12 -262130
-1 -1 0 1;
#X obj 7 580 s knob1;
#X obj 7 602 s knob2;
#X obj 7 624 s knob3;
#X obj 7 646 s knob4;
#X obj 410 132 bng 25 120 50 0 empty empty - 8 12 0 18 -262130 -1 -1
;
#X obj 439 132 bng 25 120 50 0 empty empty + 8 12 0 18 -262130 -1 -1
;
#X obj 7 34 r loadbang;
#X obj 84 34 r loadbang2;
#X msg 7 66 0;
#X obj 551 140 vu 8 120 empty empty -1 -8 0 10 -66577 -1 0 0;
#N canvas 151 148 625 417 vu 0;
#X obj 59 129 env~ 1024;
#X obj 161 111 abs~;
#X obj 161 213 snapshot~;
#X obj 161 256 rmstodb;
#X obj 161 21 inlet~;
#X obj 161 288 - 100;
#X obj 59 287 - 100;
#X obj 59 361 outlet;
#X obj 161 361 outlet;
#X text 344 307 Check the help file of env~ and slop~ for more details.
, f 31;
#X obj 239 89 expr 1000 / $f1;
#X floatatom 239 117 5 0 0 0 - - -;
#X obj 161 146 slop~ 0 0 0 0 1e+009;
#X obj 239 18 inlet;
#X floatatom 239 57 5 0 0 0 - - -;
#X text 359 89 convert to hz;
#X text 282 118 hz;
#X text 284 57 peak decay time in ms;
#X obj 59 171 t f b;
#X text 345 132 The env~ object is dedicated to RMS analysis. Its output
is in dB (0-100 range \, pd style) but needs to be converted to dBFS
(and we do that by simply subtracting 100)., f 31;
#X text 345 225 The slop~ object is used here for peak detection. We
need to convert the output to dB with rmstodb and also subtract by
100 to convert it to dBFS., f 31;
#X connect 0 0 18 0;
#X connect 1 0 12 0;
#X connect 2 0 3 0;
#X connect 3 0 5 0;
#X connect 4 0 0 0;
#X connect 4 0 1 0;
#X connect 5 0 8 0;
#X connect 6 0 7 0;
#X connect 10 0 11 0;
#X connect 11 0 12 3;
#X connect 12 0 2 0;
#X connect 13 0 14 0;
#X connect 14 0 10 0;
#X connect 18 0 6 0;
#X connect 18 1 2 0;
#X restore 535 83 pd vu;
#X obj 472 134 vsl 19 125 0 4 0 0 empty empty VOL -1 -9 0 12 -261234
-1 -1 0 1;
#X obj 804 501 catch~ outL;
#X obj 978 501 catch~ outR;
#X obj 803 605 *~;
#X obj 977 605 *~;
#X obj 803 680 dac~;
#X msg 547 55 500;
#X obj 547 30 loadbang;
#X obj 561 140 vu 8 120 empty empty -1 -8 0 10 -66577 -1 1 0;
#N canvas 151 148 625 417 vu 0;
#X obj 59 129 env~ 1024;
#X obj 161 111 abs~;
#X obj 161 213 snapshot~;
#X obj 161 256 rmstodb;
#X obj 161 21 inlet~;
#X obj 161 288 - 100;
#X obj 59 287 - 100;
#X obj 59 361 outlet;
#X obj 161 361 outlet;
#X text 344 307 Check the help file of env~ and slop~ for more details.
, f 31;
#X obj 239 89 expr 1000 / $f1;
#X floatatom 239 117 5 0 0 0 - - -;
#X obj 161 146 slop~ 0 0 0 0 1e+009;
#X obj 239 18 inlet;
#X floatatom 239 57 5 0 0 0 - - -;
#X text 359 89 convert to hz;
#X text 282 118 hz;
#X text 284 57 peak decay time in ms;
#X obj 59 171 t f b;
#X text 345 132 The env~ object is dedicated to RMS analysis. Its output
is in dB (0-100 range \, pd style) but needs to be converted to dBFS
(and we do that by simply subtracting 100)., f 31;
#X text 345 225 The slop~ object is used here for peak detection. We
need to convert the output to dB with rmstodb and also subtract by
100 to convert it to dBFS., f 31;
#X connect 0 0 18 0;
#X connect 1 0 12 0;
#X connect 2 0 3 0;
#X connect 3 0 5 0;
#X connect 4 0 0 0;
#X connect 4 0 1 0;
#X connect 5 0 8 0;
#X connect 6 0 7 0;
#X connect 10 0 11 0;
#X connect 11 0 12 3;
#X connect 12 0 2 0;
#X connect 13 0 14 0;
#X connect 14 0 10 0;
#X connect 18 0 6 0;
#X connect 18 1 2 0;
#X restore 608 79 pd vu;
#X msg 129 65 0.5;
#X obj 845 681 s~ \$0-vuL;
#X obj 977 681 s~ \$0-vuR;
#X obj 535 6 r~ \$0-vuL;
#X obj 608 6 r~ \$0-vuR;
#X obj 476 636 s \$0-vol;
#X obj 1073 501 r \$0-vol;
#X obj 429 202 tgl 35 0 empty empty Mute 3 18 0 12 -261234 -1 -1 0
1;
#X obj 378 566 sel 0 1;
#X obj 401 620 s \$0-mute;
#X obj 378 592 bng 19 250 50 0 empty empty empty 0 -10 0 12 -262144
-1 -1;
#X obj 1141 501 r \$0-mute;
#X msg 1141 525 0;
#X floatatom 476 611 5 0 0 0 - - -;
#X obj 566 542 loadbang;
#X msg 566 573 0;
#X obj 631 542 r loadbang2;
#X obj 240 122 cnv 19 163 138 empty empty empty 20 12 0 12 -257917
-66577 0;
#X obj 240 122 display;
#X obj 26 551 s aux;
#X obj 69 304 bng 35 250 50 0 empty empty empty 0 -10 0 12 -261682
-1 -1;
#X obj 104 304 bng 35 250 50 0 empty empty empty 0 -10 0 12 -261682
-1 -1;
#X obj 139 304 bng 35 250 50 0 empty empty empty 0 -10 0 12 -261682
-1 -1;
#X obj 174 304 bng 35 250 50 0 empty empty empty 0 -10 0 12 -261682
-1 -1;
#X obj 209 304 bng 35 250 50 0 empty empty empty 0 -10 0 12 -261682
-1 -1;
#X obj 244 304 bng 35 250 50 0 empty empty empty 0 -10 0 12 -261682
-1 -1;
#X obj 279 304 bng 35 250 50 0 empty empty empty 0 -10 0 12 -261682
-1 -1;
#X obj 314 304 bng 35 250 50 0 empty empty empty 0 -10 0 12 -261682
-1 -1;
#X obj 349 304 bng 35 250 50 0 empty empty empty 0 -10 0 12 -261682
-1 -1;
#X obj 384 304 bng 35 250 50 0 empty empty empty 0 -10 0 12 -261682
-1 -1;
#X obj 419 304 bng 35 250 50 0 empty empty empty 0 -10 0 12 -261682
-1 -1;
#X obj 454 304 bng 35 250 50 0 empty empty empty 0 -10 0 12 -261682
-1 -1;
#X obj 489 304 bng 35 250 50 0 empty empty empty 0 -10 0 12 -261682
-1 -1;
#X obj 86 269 bng 35 250 50 0 empty empty empty 0 -10 0 12 -261682
-1 -1;
#X obj 121 269 bng 35 250 50 0 empty empty empty 0 -10 0 12 -261682
-1 -1;
#X obj 191 269 bng 35 250 50 0 empty empty empty 0 -10 0 12 -261682
-1 -1;
#X obj 226 269 bng 35 250 50 0 empty empty empty 0 -10 0 12 -261682
-1 -1;
#X obj 261 269 bng 35 250 50 0 empty empty empty 0 -10 0 12 -261682
-1 -1;
#X obj 332 269 bng 35 250 50 0 empty empty empty 0 -10 0 12 -261682
-1 -1;
#X obj 367 269 bng 35 250 50 0 empty empty empty 0 -10 0 12 -261682
-1 -1;
#X obj 436 269 bng 35 250 50 0 empty empty empty 0 -10 0 12 -261682
-1 -1;
#X obj 471 269 bng 35 250 50 0 empty empty empty 0 -10 0 12 -261682
-1 -1;
#X obj 506 269 bng 35 250 50 0 empty empty empty 0 -10 0 12 -261682
-1 -1;
#X floatatom 228 534 5 0 0 0 - - -;
#X msg 17 419 0;
#X msg 44 369 1;
#X msg 67 419 2;
#X msg 94 369 3;
#X msg 117 419 4;
#X msg 167 419 5;
#X msg 194 369 6;
#X msg 217 419 7;
#X msg 244 369 8;
#X msg 267 419 9;
#X msg 294 369 10;
#X msg 317 420 11;
#X obj 228 587 pack f 1;
#X obj 228 613 s notes;
#X msg 367 419 12;
#X msg 389 369 13;
#X msg 417 419 14;
#X msg 439 369 15;
#X msg 467 418 16;
#X msg 517 419 17;
#X msg 539 369 18;
#X msg 567 419 19;
#X msg 589 369 20;
#X msg 617 419 21;
#X msg 639 369 22;
#X msg 667 419 23;
#X obj 17 442 s \$0-n;
#X obj 67 442 s \$0-n;
#X obj 117 442 s \$0-n;
#X obj 167 442 s \$0-n;
#X obj 217 442 s \$0-n;
#X obj 267 442 s \$0-n;
#X obj 317 442 s \$0-n;
#X obj 367 442 s \$0-n;
#X obj 417 442 s \$0-n;
#X obj 467 442 s \$0-n;
#X obj 517 442 s \$0-n;
#X obj 567 442 s \$0-n;
#X obj 617 442 s \$0-n;
#X obj 667 442 s \$0-n;
#X obj 228 510 r \$0-n;
#X obj 44 392 s \$0-n;
#X obj 94 392 s \$0-n;
#X obj 194 392 s \$0-n;
#X obj 244 392 s \$0-n;
#X obj 294 392 s \$0-n;
#X obj 389 392 s \$0-n;
#X obj 439 392 s \$0-n;
#X obj 539 392 s \$0-n;
#X obj 589 392 s \$0-n;
#X obj 639 392 s \$0-n;
#X obj 524 304 bng 35 250 50 0 empty empty empty 0 -10 0 12 -261682
-1 -1;
#X obj 684 285 s exp;
#X text 188 234 Knob 4;
#X text 188 208 Knob 3;
#X text 188 182 Knob 2;
#X text 188 156 Knob 1;
#X obj 586 269 tgl 35 0 empty empty FS 11 19 0 12 -204800 -1 -1 0 1
;
#X obj 822 391 s fs;
#X obj 9 269 tgl 35 0 empty empty AUX 7 19 0 12 -204786 -1 -1 0 1;
#X obj 601 134 vsl 19 125 0 1 0 0 empty empty EXP -1 -9 0 12 -204800
-1 -1 0 1;
#X msg 734 113 1;
#X text 410 115 Encoder;
#X obj 410 161 bng 25 120 50 0 empty empty * 7 15 0 18 -262130 -1 -1
;
#X msg 825 291 \; pd dsp 1 \;;
#X msg 745 291 \; pd dsp 0 \;;
#X obj 445 243 tgl 19 0 empty empty DSP -25 11 0 12 -261234 -1 -1 0
1;
#X obj 745 262 sel 0 1;
#X obj 701 139 s enc;
#X msg 688 113 0;
#X obj 807 187 s encbut;
#X msg 1072 563 \$1 150;
#X obj 1072 586 vline~;
#X obj 722 384 notein;
#X obj 722 442 s notes;
#X obj 722 418 pack \$1 \$2;
#X obj 228 562 expr $f1 + 60;
#X obj 494 549 t b b b;
#X obj 378 538 spigot 1;
#X msg 443 506 0;
#X msg 408 506 1;
#X obj 233 13 r midiKnob1;
#X obj 233 34 r midiKnob2;
#X obj 233 56 r midiKnob3;
#X obj 233 77 r midiKnob4;
#X obj 357 37 r midiEnc;
#X obj 357 61 sel 0 1;
#X obj 356 86 r midiEncbut;
#X obj 389 6 r midiVol;
#X obj 776 56 r midiMute;
#X obj 673 224 r midiFS;
#X obj 776 32 r midiExp;
#X obj 125 482 r midiAux;
#X obj 738 224 r midiDSP;
#X obj 9 304 bng 35 250 50 0 empty empty AUX 7 19 0 12 -204786 -1 -1
;
#X msg 46 476 1;
#X obj 46 500 delay 150;
#X msg 46 524 0;
#X msg 807 161 1;
#X obj 880 180 delay 200;
#X msg 880 204 0;
#X obj 439 161 tgl 25 0 empty empty * 7 15 0 18 -262130 -1 -1 0 1;
#X obj 586 304 bng 35 250 50 0 empty empty FS 11 19 0 12 -204800 -1
-1;
#X msg 812 350 1;
#X msg 885 394 0;
#X obj 885 369 delay 200;
#X obj 55 269 tgl 20 0 empty empty empty 17 7 0 10 -228856 -228856
-1 0 1;
#X obj 125 506 print midiAux;
#N canvas 1570 330 1019 391 led-status 0;
#X obj 15 28 r led;
#X obj 507 337 color, f 21;
#X obj 15 54 t b f, f 21;
#X obj 159 81 sel 0 1 2 3 4 5 6 7, f 115;
#X msg 159 121 223;
#X msg 189 121 223;
#X msg 219 121 223;
#X msg 259 121 255;
#X msg 289 121 0;
#X msg 319 121 0;
#X msg 389 121 255;
#X msg 359 121 255;
#X msg 419 121 0;
#X msg 489 121 255;
#X msg 519 121 0;
#X msg 459 121 0;
#X msg 560 121 0;
#X msg 590 121 255;
#X msg 620 121 255;
#X msg 660 121 65;
#X msg 690 121 105;
#X msg 720 121 225;
#X msg 760 121 255;
#X msg 790 121 0;
#X msg 820 121 255;
#X msg 860 121 255;
#X msg 920 121 255;
#X msg 890 121 255;
#X obj 507 361 outlet;
#X obj 72 4 loadbang;
#X msg 72 28 0;
#X connect 0 0 2 0;
#X connect 1 0 28 0;
#X connect 2 0 1 0;
#X connect 2 1 3 0;
#X connect 3 0 4 0;
#X connect 3 0 5 0;
#X connect 3 0 6 0;
#X connect 3 1 7 0;
#X connect 3 1 8 0;
#X connect 3 1 9 0;
#X connect 3 2 11 0;
#X connect 3 2 10 0;
#X connect 3 2 12 0;
#X connect 3 3 15 0;
#X connect 3 3 13 0;
#X connect 3 3 14 0;
#X connect 3 4 16 0;
#X connect 3 4 17 0;
#X connect 3 4 18 0;
#X connect 3 5 19 0;
#X connect 3 5 20 0;
#X connect 3 5 21 0;
#X connect 3 6 22 0;
#X connect 3 6 23 0;
#X connect 3 6 24 0;
#X connect 3 7 25 0;
#X connect 3 7 27 0;
#X connect 3 7 26 0;
#X connect 4 0 1 1;
#X connect 4 0 1 4;
#X connect 5 0 1 2;
#X connect 5 0 1 5;
#X connect 6 0 1 3;
#X connect 6 0 1 6;
#X connect 7 0 1 1;
#X connect 7 0 1 4;
#X connect 8 0 1 2;
#X connect 8 0 1 5;
#X connect 9 0 1 3;
#X connect 9 0 1 6;
#X connect 10 0 1 2;
#X connect 10 0 1 5;
#X connect 11 0 1 1;
#X connect 11 0 1 4;
#X connect 12 0 1 3;
#X connect 12 0 1 6;
#X connect 13 0 1 2;
#X connect 13 0 1 5;
#X connect 14 0 1 3;
#X connect 14 0 1 6;
#X connect 15 0 1 1;
#X connect 15 0 1 4;
#X connect 16 0 1 1;
#X connect 16 0 1 4;
#X connect 17 0 1 2;
#X connect 17 0 1 5;
#X connect 18 0 1 3;
#X connect 18 0 1 6;
#X connect 19 0 1 1;
#X connect 19 0 1 4;
#X connect 20 0 1 2;
#X connect 20 0 1 5;
#X connect 21 0 1 3;
#X connect 21 0 1 6;
#X connect 22 0 1 1;
#X connect 22 0 1 4;
#X connect 23 0 1 2;
#X connect 23 0 1 5;
#X connect 24 0 1 3;
#X connect 24 0 1 6;
#X connect 25 0 1 1;
#X connect 25 0 1 4;
#X connect 26 0 1 3;
#X connect 26 0 1 6;
#X connect 27 0 1 2;
#X connect 27 0 1 5;
#X connect 29 0 30 0;
#X connect 30 0 2 0;
#X restore 277 480 pd led-status;
#X obj 499 134 vsl 19 125 0 1 0 0 empty empty CLIP -3 -9 0 12 -261234
-1 -1 19840 1;
#X obj 580 483 s \$0-clip;
#X obj 929 468 r \$0-clip;
#X obj 803 641 clip~ -1 1;
#X obj 977 641 clip~ -1 1;
#X obj 910 497 * -1;
#X msg 465 87 0.8;
#X obj 491 6 adc~;
#N canvas 151 148 625 417 vu 0;
#X obj 59 129 env~ 1024;
#X obj 161 111 abs~;
#X obj 161 213 snapshot~;
#X obj 161 256 rmstodb;
#X obj 161 21 inlet~;
#X obj 161 288 - 100;
#X obj 59 287 - 100;
#X obj 59 361 outlet;
#X obj 161 361 outlet;
#X text 344 307 Check the help file of env~ and slop~ for more details.
, f 31;
#X obj 239 89 expr 1000 / $f1;
#X floatatom 239 117 5 0 0 0 - - -;
#X obj 161 146 slop~ 0 0 0 0 1e+009;
#X obj 239 18 inlet;
#X floatatom 239 57 5 0 0 0 - - -;
#X text 359 89 convert to hz;
#X text 282 118 hz;
#X text 284 57 peak decay time in ms;
#X obj 59 171 t f b;
#X text 345 132 The env~ object is dedicated to RMS analysis. Its output
is in dB (0-100 range \, pd style) but needs to be converted to dBFS
(and we do that by simply subtracting 100)., f 31;
#X text 345 225 The slop~ object is used here for peak detection. We
need to convert the output to dB with rmstodb and also subtract by
100 to convert it to dBFS., f 31;
#X connect 0 0 18 0;
#X connect 1 0 12 0;
#X connect 2 0 3 0;
#X connect 3 0 5 0;
#X connect 4 0 0 0;
#X connect 4 0 1 0;
#X connect 5 0 8 0;
#X connect 6 0 7 0;
#X connect 10 0 11 0;
#X connect 11 0 12 3;
#X connect 12 0 2 0;
#X connect 13 0 14 0;
#X connect 14 0 10 0;
#X connect 18 0 6 0;
#X connect 18 1 2 0;
#X restore 444 55 pd vu;
#X obj 526 140 vu 8 120 empty empty -1 -8 0 10 -66577 -1 0 0;
#X obj 536 140 vu 8 120 empty empty -1 -8 0 10 -66577 -1 0 0;
#X text 529 115 I;
#X text 554 115 O;
#N canvas 151 148 625 417 vu 0;
#X obj 59 129 env~ 1024;
#X obj 161 111 abs~;
#X obj 161 213 snapshot~;
#X obj 161 256 rmstodb;
#X obj 161 21 inlet~;
#X obj 161 288 - 100;
#X obj 59 287 - 100;
#X obj 59 361 outlet;
#X obj 161 361 outlet;
#X text 344 307 Check the help file of env~ and slop~ for more details.
, f 31;
#X obj 239 89 expr 1000 / $f1;
#X floatatom 239 117 5 0 0 0 - - -;
#X obj 161 146 slop~ 0 0 0 0 1e+009;
#X obj 239 18 inlet;
#X floatatom 239 57 5 0 0 0 - - -;
#X text 359 89 convert to hz;
#X text 282 118 hz;
#X text 284 57 peak decay time in ms;
#X obj 59 171 t f b;
#X text 345 132 The env~ object is dedicated to RMS analysis. Its output
is in dB (0-100 range \, pd style) but needs to be converted to dBFS
(and we do that by simply subtracting 100)., f 31;
#X text 345 225 The slop~ object is used here for peak detection. We
need to convert the output to dB with rmstodb and also subtract by
100 to convert it to dBFS., f 31;
#X connect 0 0 18 0;
#X connect 1 0 12 0;
#X connect 2 0 3 0;
#X connect 3 0 5 0;
#X connect 4 0 0 0;
#X connect 4 0 1 0;
#X connect 5 0 8 0;
#X connect 6 0 7 0;
#X connect 10 0 11 0;
#X connect 11 0 12 3;
#X connect 12 0 2 0;
#X connect 13 0 14 0;
#X connect 14 0 10 0;
#X connect 18 0 6 0;
#X connect 18 1 2 0;
#X restore 487 55 pd vu;
#X text 6 121 Organelle UI for desktop [1.4];
#X connect 1 0 5 0;
#X connect 2 0 6 0;
#X connect 3 0 7 0;
#X connect 4 0 8 0;
#X connect 9 0 139 0;
#X connect 10 0 131 0;
#X connect 11 0 13 0;
#X connect 11 0 26 0;
#X connect 12 0 13 0;
#X connect 12 0 26 0;
#X connect 12 0 185 0;
#X connect 13 0 1 0;
#X connect 13 0 2 0;
#X connect 13 0 3 0;
#X connect 13 0 4 0;
#X connect 13 0 130 0;
#X connect 15 0 14 0;
#X connect 15 1 14 1;
#X connect 16 0 39 0;
#X connect 17 0 19 0;
#X connect 18 0 20 0;
#X connect 19 0 182 0;
#X connect 20 0 183 0;
#X connect 22 0 15 1;
#X connect 22 0 25 1;
#X connect 22 0 192 1;
#X connect 22 0 187 1;
#X connect 23 0 22 0;
#X connect 23 0 185 0;
#X connect 25 0 24 0;
#X connect 25 1 24 1;
#X connect 26 0 16 0;
#X connect 29 0 15 0;
#X connect 30 0 25 0;
#X connect 32 0 141 0;
#X connect 33 0 148 0;
#X connect 34 0 36 0;
#X connect 34 1 35 0;
#X connect 36 0 39 0;
#X connect 36 0 147 0;
#X connect 37 0 38 0;
#X connect 38 0 141 0;
#X connect 39 0 31 0;
#X connect 40 0 41 0;
#X connect 41 0 33 0;
#X connect 42 0 41 0;
#X connect 46 0 70 0;
#X connect 47 0 72 0;
#X connect 48 0 74 0;
#X connect 49 0 75 0;
#X connect 50 0 77 0;
#X connect 51 0 79 0;
#X connect 52 0 81 0;
#X connect 53 0 84 0;
#X connect 54 0 86 0;
#X connect 55 0 88 0;
#X connect 56 0 89 0;
#X connect 57 0 91 0;
#X connect 58 0 93 0;
#X connect 59 0 71 0;
#X connect 60 0 73 0;
#X connect 61 0 76 0;
#X connect 62 0 78 0;
#X connect 63 0 80 0;
#X connect 64 0 85 0;
#X connect 65 0 87 0;
#X connect 66 0 90 0;
#X connect 67 0 92 0;
#X connect 68 0 94 0;
#X connect 69 0 146 0;
#X connect 70 0 96 0;
#X connect 71 0 111 0;
#X connect 72 0 97 0;
#X connect 73 0 112 0;
#X connect 74 0 98 0;
#X connect 75 0 99 0;
#X connect 76 0 113 0;
#X connect 77 0 100 0;
#X connect 78 0 114 0;
#X connect 79 0 101 0;
#X connect 80 0 115 0;
#X connect 81 0 102 0;
#X connect 82 0 83 0;
#X connect 84 0 103 0;
#X connect 85 0 116 0;
#X connect 86 0 104 0;
#X connect 87 0 117 0;
#X connect 88 0 105 0;
#X connect 89 0 106 0;
#X connect 90 0 118 0;
#X connect 91 0 107 0;
#X connect 92 0 119 0;
#X connect 93 0 108 0;
#X connect 94 0 120 0;
#X connect 95 0 109 0;
#X connect 110 0 69 0;
#X connect 121 0 95 0;
#X connect 127 0 128 0;
#X connect 129 0 45 0;
#X connect 130 0 122 0;
#X connect 131 0 138 0;
#X connect 133 0 168 0;
#X connect 136 0 137 0;
#X connect 137 0 135 0;
#X connect 137 1 134 0;
#X connect 139 0 138 0;
#X connect 141 0 142 0;
#X connect 142 0 20 1;
#X connect 142 0 19 1;
#X connect 143 0 145 0;
#X connect 143 1 145 1;
#X connect 145 0 144 0;
#X connect 146 0 82 0;
#X connect 147 0 150 0;
#X connect 147 1 41 0;
#X connect 147 2 149 0;
#X connect 148 0 34 0;
#X connect 149 0 148 1;
#X connect 150 0 148 1;
#X connect 151 0 1 0;
#X connect 152 0 2 0;
#X connect 153 0 3 0;
#X connect 154 0 4 0;
#X connect 155 0 156 0;
#X connect 156 0 9 0;
#X connect 156 1 10 0;
#X connect 157 0 133 0;
#X connect 158 0 16 0;
#X connect 159 0 33 0;
#X connect 160 0 127 0;
#X connect 161 0 130 0;
#X connect 162 0 129 0;
#X connect 162 0 177 0;
#X connect 163 0 136 0;
#X connect 164 0 165 0;
#X connect 165 0 166 0;
#X connect 165 0 45 0;
#X connect 166 0 167 0;
#X connect 167 0 45 0;
#X connect 168 0 140 0;
#X connect 168 0 169 0;
#X connect 169 0 170 0;
#X connect 170 0 140 0;
#X connect 171 0 140 0;
#X connect 172 0 173 0;
#X connect 173 0 128 0;
#X connect 173 0 175 0;
#X connect 174 0 128 0;
#X connect 175 0 174 0;
#X connect 178 0 176 0;
#X connect 179 0 180 0;
#X connect 181 0 184 0;
#X connect 181 0 182 2;
#X connect 181 0 183 2;
#X connect 182 0 21 0;
#X connect 182 0 27 0;
#X connect 183 0 21 1;
#X connect 183 0 28 0;
#X connect 184 0 182 1;
#X connect 184 0 183 1;
#X connect 185 0 179 0;
#X connect 186 0 187 0;
#X connect 186 1 192 0;
#X connect 187 0 188 0;
#X connect 187 1 188 1;
#X connect 192 0 189 0;
#X connect 192 1 189 1;
#X coords 0 -1 1 1 626 230 2 2 115;
