#N canvas 269 97 997 686 12;
#X obj 607 422 *~;
#X obj 591 560 *~;
#X obj 569 181 bng 19 250 50 0 empty empty empty 0 -10 0 12 #fcfcfc #000000 #000000;
#X msg 569 265 1;
#X obj 608 216 del 1 1 ms;
#X msg 608 265 0;
#X obj 608 338 adsr-1p 1 0 0 200 50 2;
#X obj 564 -462 inlet;
#X floatatom 595 -425 5 0 0 0 - - - 0;
#X obj -329 -274 inlet;
#X obj 752 -193 readsf~;
#X msg 752 -227 open \$1 \, 1;
#X obj 752 -253 symbol;
#X obj 745 103 inlet;
#X floatatom 745 290 5 0 0 0 - - - 0;
#X floatatom 745 131 5 0 0 0 - - - 0;
#X text -348 -307 sample play;
#X text 736 70 envelope;
#X text 561 -491 trigger;
#X obj 345 99 inlet;
#X text 340 69 filter;
#X floatatom 345 125 5 0 0 0 - - - 0;
#X floatatom 319 220 5 0 0 0 - - - 0;
#X obj 319 166 * 5000;
#X obj 319 192 - 50;
#X floatatom 745 207 5 0 0 0 - - - 0;
#X obj 745 181 + 1;
#X obj 745 233 pow 2;
#X obj 745 155 * 32;
#X obj 337 365 bob~ 1;
#X floatatom 376 221 5 0 0 0 - - - 0;
#X obj 376 192 expr (2 - $f1);
#X obj 376 165 * 2;
#N canvas 0 22 450 278 (subpatch) 0;
#X array audioL 180225 float 2;
#X coords 0 1 180225 -1 365 143 1;
#X restore 188 -256 graph;
#X obj -329 -169 soundfiler;
#X obj -121 151 tabread4~ audioL;
#X floatatom -329 -140 5 0 0 0 - - - 0;
#X msg -329 -199 read -resize \$1 audioL;
#X obj 258 39 hsl 162 19 0 1 0 0 empty empty empty -2 -10 0 12 #fcfcfc #000000 #000000 0 1;
#X obj -410 -176 print;
#X obj 191 -105 hsl 360 19 0 180225 0 0 empty empty empty -2 -10 0 12 #fcfcfc #000000 #000000 0 1;
#X obj -594 -60 expr 44100 / $f1;
#X floatatom -450 -42 5 0 0 0 - - - 0;
#X obj -592 59 phasor~;
#X obj -592 130 *~;
#X obj -557 102 r sampleSize;
#X floatatom -468 41 5 0 0 0 - - - 0;
#X obj -468 8 *;
#X obj -653 -32 inlet;
#X obj -653 -2 bng 19 250 50 0 empty empty empty 0 -10 0 12 #fcfcfc #000000 #000000;
#X msg -653 40 0;
#X msg -247 -123 range 0 \$1;
#X obj -123 -443 bng 19 250 50 0 empty empty empty 0 -10 0 12 #fcfcfc #000000 #000000;
#X obj -123 -267 f;
#X obj -122 -188 pack f f f;
#X obj -89 -240 r end;
#X obj 157 -355 r end;
#X obj -329 -89 s end;
#X obj 188 -79 s start;
#X obj -105 -301 r start;
#X msg -122 -160 \$1 \, \$2 \$3;
#X obj -121 11 vline~;
#X floatatom -21 -295 5 0 0 0 - - - 0;
#X obj -79 -80 r start;
#X msg -79 -57 \$1 100;
#X obj -22 -328 expr abs($f2 - $f1) / 44.1;
#X obj -22 -254 / 1;
#X obj 179 -421 vsl 19 45 0.5 2 0 0 empty empty empty 0 -9 0 12 #fcfcfc #000000 #000000 0 1;
#X floatatom 236 -325 5 0 0 0 - - - 0;
#X obj -237 -267 s trigEnv;
#X obj 632 109 r trigEnv;
#X obj -75 -421 inlet;
#X floatatom -21 -364 5 0 0 0 - - - 0;
#X obj 851 857 throw~ outputL;
#X obj 979 858 throw~ outputR;
#X obj 144 345 *~ 1;
#X obj 1057 340 vsl 19 162 0.5 1.5 1 0 empty empty empty 0 -9 0 12 #fcfcfc #000000 #000000 0 1;
#X obj 923 681 *~ 1;
#X floatatom 1061 648 5 0 0 0 - - - 0;
#X floatatom 1063 723 5 0 0 0 - - - 0;
#X obj 338 472 *~ 1;
#X obj 1062 685 expr abs(1.25 - sqrt($f1)) + 0.5;
#X obj 144 280 clip~ -1 1;
#X floatatom 246 327 5 0 0 0 - - - 0;
#X floatatom 245 198 5 0 0 0 - - - 0;
#X floatatom 377 285 5 0 0 0 - - - 0;
#X obj 173 128 expr 1 - $f1;
#X obj 245 168 / 2;
#X obj 246 227 + 1;
#X obj 1057 278 inlet;
#X obj 1057 308 + 0.5;
#X obj 926 794 *~ 1;
#X obj 924 723 clip~ -0.9 0.9;
#X obj 377 253 / 3;
#X obj 746 261 + 40;
#X connect 0 0 1 1;
#X connect 1 0 77 0;
#X connect 2 0 3 0;
#X connect 2 0 4 0;
#X connect 3 0 6 0;
#X connect 4 0 5 0;
#X connect 5 0 6 0;
#X connect 6 0 0 0;
#X connect 6 0 0 1;
#X connect 7 0 2 0;
#X connect 7 0 8 0;
#X connect 7 0 52 0;
#X connect 9 0 37 0;
#X connect 9 0 39 0;
#X connect 11 0 10 0;
#X connect 12 0 11 0;
#X connect 13 0 15 0;
#X connect 14 0 6 5;
#X connect 15 0 28 0;
#X connect 19 0 21 0;
#X connect 21 0 23 0;
#X connect 21 0 32 0;
#X connect 22 0 29 1;
#X connect 23 0 24 0;
#X connect 24 0 22 0;
#X connect 25 0 27 0;
#X connect 26 0 25 0;
#X connect 27 0 94 0;
#X connect 28 0 26 0;
#X connect 29 0 80 0;
#X connect 30 0 93 0;
#X connect 31 0 30 0;
#X connect 32 0 31 0;
#X connect 34 0 36 0;
#X connect 35 0 82 0;
#X connect 36 0 51 0;
#X connect 36 0 57 0;
#X connect 37 0 34 0;
#X connect 38 0 21 0;
#X connect 38 0 86 0;
#X connect 40 0 58 0;
#X connect 41 0 42 0;
#X connect 41 0 43 0;
#X connect 42 0 47 1;
#X connect 43 0 44 0;
#X connect 45 0 44 1;
#X connect 46 0 43 0;
#X connect 47 0 46 0;
#X connect 48 0 49 0;
#X connect 49 0 50 0;
#X connect 50 0 43 1;
#X connect 51 0 40 0;
#X connect 52 0 53 0;
#X connect 52 0 69 0;
#X connect 52 0 65 0;
#X connect 53 0 54 0;
#X connect 54 0 60 0;
#X connect 55 0 54 1;
#X connect 56 0 65 1;
#X connect 59 0 53 1;
#X connect 60 0 61 0;
#X connect 61 0 35 0;
#X connect 62 0 66 0;
#X connect 63 0 64 0;
#X connect 64 0 61 0;
#X connect 65 0 62 0;
#X connect 66 0 54 2;
#X connect 67 0 68 0;
#X connect 67 0 65 0;
#X connect 68 0 66 1;
#X connect 70 0 2 0;
#X connect 71 0 72 0;
#X connect 71 0 66 1;
#X connect 72 0 65 0;
#X connect 75 0 29 0;
#X connect 76 0 77 1;
#X connect 76 0 78 0;
#X connect 77 0 92 0;
#X connect 78 0 81 0;
#X connect 79 0 91 1;
#X connect 80 0 1 0;
#X connect 81 0 79 0;
#X connect 82 0 75 0;
#X connect 83 0 75 1;
#X connect 84 0 88 0;
#X connect 85 0 29 2;
#X connect 86 0 87 0;
#X connect 87 0 84 0;
#X connect 88 0 83 0;
#X connect 89 0 90 0;
#X connect 90 0 76 0;
#X connect 91 0 73 0;
#X connect 91 0 74 0;
#X connect 92 0 91 0;
#X connect 93 0 85 0;
#X connect 94 0 14 0;
