#N canvas 356 61 1077 812 12;
#X obj -153 -129 readsf~;
#X obj -153 -105 *~ 0.5;
#X obj 73 -132 readsf~;
#X obj 73 -106 *~ 0.5;
#X obj 323 -131 readsf~;
#X obj 323 -107 *~ 0.5;
#X obj 630 -116 bng 19 250 50 0 empty empty empty 0 -10 0 12 #fcfcfc #000000 #000000;
#X obj 630 -66 readsf~;
#X obj 630 -42 *~ 0.5;
#X obj 762 -117 bng 19 250 50 0 empty empty empty 0 -10 0 12 #fcfcfc #000000 #000000;
#X obj 762 -67 readsf~;
#X obj 762 -43 *~ 0.5;
#X obj 893 -118 bng 19 250 50 0 empty empty empty 0 -10 0 12 #fcfcfc #000000 #000000;
#X obj 893 -68 readsf~;
#X obj 893 -44 *~ 0.5;
#X msg 630 -90 open perc.wav \, 1;
#X msg 762 -91 open tom.wav \, 1;
#X msg 893 -92 open cymbal.wav \, 1;
#X obj -206 -48 throw~ outL;
#X obj -115 -48 throw~ outR;
#X obj 630 -140 r pWave;
#X obj 762 -141 r tWave;
#X obj 893 -142 r cWave;
#X text 89 -384 sample player;
#X obj 755 198;
#X obj -305 -469;
#X obj 27 -53 throw~ outL;
#X obj 118 -53 throw~ outR;
#X obj 283 -51 throw~ outL;
#X obj 374 -51 throw~ outR;
#X obj -153 -179 r kSample;
#X obj 73 -180 r sSample;
#X obj 322 -183 r hSample;
#X connect 0 0 1 0;
#X connect 1 0 19 0;
#X connect 1 0 18 0;
#X connect 2 0 3 0;
#X connect 3 0 26 0;
#X connect 3 0 27 0;
#X connect 4 0 5 0;
#X connect 5 0 28 0;
#X connect 5 0 29 0;
#X connect 6 0 15 0;
#X connect 7 0 8 0;
#X connect 9 0 16 0;
#X connect 10 0 11 0;
#X connect 12 0 17 0;
#X connect 13 0 14 0;
#X connect 15 0 7 0;
#X connect 16 0 10 0;
#X connect 17 0 13 0;
#X connect 20 0 6 0;
#X connect 21 0 9 0;
#X connect 22 0 12 0;
#X connect 30 0 0 0;
#X connect 31 0 2 0;
#X connect 32 0 4 0;
