#N canvas 125 37 1335 891 12;
#X obj 1068 795 throw~ outL;
#X obj 1159 795 throw~ outR;
#X obj 702 574 *~;
#X obj 684 642 *~;
#X obj 664 333 bng 19 250 50 0 empty empty empty 0 -10 0 12 #fcfcfc #000000 #000000;
#X msg 664 431 1;
#X obj 703 368 del 1 1 ms;
#X msg 703 417 0;
#X obj 703 490 adsr-1p 1 0 0 200 50 2;
#X obj 664 296 inlet;
#X floatatom 704 334 5 0 0 0 - - - 0;
#X obj 144 -56 inlet;
#X obj 147 680 readsf~;
#X msg 147 646 open \$1 \, 1;
#X obj 147 620 symbol;
#X obj 840 255 inlet;
#X obj 1077 130 inlet;
#X obj 1069 664 *~ 0.25;
#X obj 211 497 *~ 0.5;
#X floatatom 840 442 5 0 0 0 - - - 0;
#X floatatom 840 283 5 0 0 0 - - - 0;
#X text 126 -89 sample play;
#X text 831 222 envelope;
#X text 661 267 trigger;
#X obj 440 251 inlet;
#X text 435 221 filter;
#X floatatom 440 277 5 0 0 0 - - - 0;
#X floatatom 414 372 5 0 0 0 - - - 0;
#X obj 414 318 * 5000;
#X obj 414 344 - 50;
#X floatatom 840 359 5 0 0 0 - - - 0;
#X obj 840 333 + 1;
#X obj 840 385 pow 2;
#X obj 840 307 * 32;
#X obj 433 624 *~ 1;
#X obj 432 517 bob~ 1;
#X floatatom 471 373 5 0 0 0 - - - 0;
#X obj 471 344 expr (2 - $f1);
#X obj 471 317 * 2;
#N canvas 0 22 450 278 (subpatch) 0;
#X array audioL 20152 float 2;
#X coords 0 1 20152 -1 437 38 1;
#X restore 356 -91 graph;
#X obj 144 43 soundfiler;
#X obj 146 454 tabread4~ audioL;
#N canvas 0 22 450 278 (subpatch) 0;
#X array audioR 11512 float 2;
#X coords 0 1 11512 -1 437 38 1;
#X restore 355 -30 graph;
#X floatatom 184 81 5 0 0 0 - - - 0;
#X obj 144 145 expr 44100 / $f1;
#X floatatom 288 163 5 0 0 0 - - - 0;
#X obj 146 264 phasor~;
#X obj 146 317 *~;
#X obj 183 103 s sampleSize;
#X msg 144 13 read -resize \$1 audioL;
#X obj 181 289 r sampleSize;
#X obj 411 176 hsl 162 19 0.5 1.5 0 0 empty empty empty -2 -10 0 12 #fcfcfc #000000 #000000 0 1;
#X floatatom 270 246 5 0 0 0 - - - 0;
#X obj 270 213 *;
#X obj 85 173 inlet;
#X obj 85 203 bng 19 250 50 0 empty empty empty 0 -10 0 12 #fcfcfc #000000 #000000;
#X obj -111 -192;
#X msg 85 245 0;
#X obj 63 36 print;
#X connect 2 0 3 1;
#X connect 3 0 17 0;
#X connect 4 0 5 0;
#X connect 4 0 6 0;
#X connect 5 0 8 0;
#X connect 6 0 7 0;
#X connect 7 0 8 0;
#X connect 8 0 2 0;
#X connect 8 0 2 1;
#X connect 9 0 4 0;
#X connect 9 0 10 0;
#X connect 11 0 49 0;
#X connect 11 0 58 0;
#X connect 13 0 12 0;
#X connect 14 0 13 0;
#X connect 15 0 20 0;
#X connect 17 0 0 0;
#X connect 17 0 1 0;
#X connect 18 0 35 0;
#X connect 19 0 8 5;
#X connect 20 0 33 0;
#X connect 24 0 26 0;
#X connect 26 0 28 0;
#X connect 26 0 38 0;
#X connect 27 0 35 1;
#X connect 28 0 29 0;
#X connect 29 0 27 0;
#X connect 30 0 32 0;
#X connect 31 0 30 0;
#X connect 32 0 19 0;
#X connect 33 0 31 0;
#X connect 34 0 3 0;
#X connect 35 0 34 0;
#X connect 36 0 35 2;
#X connect 37 0 36 0;
#X connect 38 0 37 0;
#X connect 40 0 43 0;
#X connect 40 0 44 0;
#X connect 41 0 18 0;
#X connect 43 0 48 0;
#X connect 44 0 45 0;
#X connect 44 0 46 0;
#X connect 45 0 53 1;
#X connect 46 0 47 0;
#X connect 47 0 41 0;
#X connect 49 0 40 0;
#X connect 50 0 47 1;
#X connect 52 0 46 0;
#X connect 53 0 52 0;
#X connect 54 0 55 0;
#X connect 55 0 57 0;
#X connect 57 0 46 1;
