#N canvas 302 48 831 880 12;
#X obj 1401 224 bng 19 250 50 0 empty empty empty 0 -10 0 12 #fcfcfc #000000 #000000;
#X obj 1401 272 readsf~;
#X obj 1401 295 *~ 0.5;
#X obj 1533 221 bng 19 250 50 0 empty empty empty 0 -10 0 12 #fcfcfc #000000 #000000;
#X obj 1533 271 readsf~;
#X obj 1533 295 *~ 0.5;
#X obj 1664 220 bng 19 250 50 0 empty empty empty 0 -10 0 12 #fcfcfc #000000 #000000;
#X obj 1664 270 readsf~;
#X obj 1664 294 *~ 0.5;
#X msg 1401 248 open perc.wav \, 1;
#X msg 1533 247 open tom.wav \, 1;
#X msg 1664 246 open cymbal.wav \, 1;
#X obj 1401 198 r pWave;
#X obj 1533 197 r tWave;
#X obj 1664 196 r cWave;
#X text 335 -442 sample player;
#X obj 1172 517;
#X obj 27 214 r kSample;
#X obj 17 257 sampleTrack, f 22;
#X obj 197 26 vsl 14 162 0.01 1 1 1 empty empty empty 0 -9 0 12 #faff00 #000000 #000000 16100 1;
#X obj 164 -224 r kKnobs;
#X obj 195 399 pack 1 1 1 1, f 23;
#X obj 194 444 s params;
#X obj 195 333 int \$1;
#X obj 249 24 vsl 14 162 0 1 0 0 empty empty empty 0 -9 0 12 #faff00 #000000 #000000 0 1;
#X obj 303 25 vsl 14 162 0 1 0 0 empty empty empty 0 -9 0 12 #faff00 #000000 #000000 0 1;
#X obj 355 23 vsl 14 162 0 1 0 0 empty empty empty 0 -9 0 12 #faff00 #000000 #000000 0 1;
#X obj 248 333 int \$1;
#X obj 301 332 int \$1;
#X obj 353 332 int \$1;
#X obj 195 283 * 9;
#X obj 248 283 * 9;
#X obj 301 281 * 9;
#X obj 353 279 * 9;
#X obj 416 23 vsl 14 162 0 1 0 0 empty empty empty 0 -9 0 12 #faff00 #000000 #000000 0 1;
#X obj 416 -83 unpack 1 1 1 1, f 23;
#X obj 413 399 pack 1 1 1 1, f 23;
#X obj 413 437 s params;
#X obj 414 331 int \$1;
#X obj 467 22 vsl 14 162 0 1 0 0 empty empty empty 0 -9 0 12 #faff00 #000000 #000000 0 1;
#X obj 522 23 vsl 14 162 0 1 0 0 empty empty empty 0 -9 0 12 #faff00 #000000 #000000 0 1;
#X obj 574 21 vsl 14 162 0 1 0 0 empty empty empty 0 -9 0 12 #faff00 #000000 #000000 0 1;
#X obj 467 331 int \$1;
#X obj 520 330 int \$1;
#X obj 572 330 int \$1;
#X obj 414 281 * 9;
#X obj 467 281 * 9;
#X obj 520 279 * 9;
#X obj 572 277 * 9;
#X text 169 25 fil;
#X text 221 24 env;
#X text 273 25 tun;
#X obj 296 -301 expr if($f1 == 66 && $f2 == 1 \, 1 \, 0) \;;
#X obj 296 -327 r notes;
#X obj 236 -234 == 0;
#X obj 454 -234 != 0;
#X obj 197 -177 spigot;
#X obj 415 -175 spigot;
#X obj 383 -220 r kKnobs;
#X obj 286 -182 sel 1;
#X obj 507 -183 sel 1;
#X obj 507 -156 bng 19 250 50 0 empty empty empty 0 -10 0 12 #fcfcfc #000000 #000000;
#X obj 286 -156 bng 19 250 50 0 empty empty empty 0 -10 0 12 #fcfcfc #000000 #000000;
#X obj 286 -130 s refresh1;
#X obj 507 -132 s refresh1;
#X obj 106 315 r refresh1;
#X obj 627 311 r refresh2;
#X obj 96 168 r kPlay;
#X obj 224 -355 loadbang;
#X text 325 25 drv;
#X msg 224 -320 66;
#X obj 220 -136 bng 19 250 50 0 empty empty empty 0 -10 0 12 #fcfcfc #000000 #000000;
#X obj 197 -81 unpack f f f f, f 23;
#X obj 230 704 throw~ outL;
#X obj 401 704 throw~ outR;
#X obj 230 615 catch~ outputL;
#X obj 401 614 catch~ outputR;
#X obj 230 659 clip~ -1 1;
#X obj 401 657 clip~ -1 1;
#X connect 0 0 9 0;
#X connect 1 0 2 0;
#X connect 3 0 10 0;
#X connect 4 0 5 0;
#X connect 6 0 11 0;
#X connect 7 0 8 0;
#X connect 9 0 1 0;
#X connect 10 0 4 0;
#X connect 11 0 7 0;
#X connect 12 0 0 0;
#X connect 13 0 3 0;
#X connect 14 0 6 0;
#X connect 17 0 18 1;
#X connect 19 0 30 0;
#X connect 19 0 18 3;
#X connect 20 0 56 0;
#X connect 21 0 22 0;
#X connect 23 0 21 0;
#X connect 24 0 31 0;
#X connect 24 0 18 5;
#X connect 25 0 32 0;
#X connect 25 0 18 2;
#X connect 26 0 33 0;
#X connect 26 0 18 6;
#X connect 27 0 21 1;
#X connect 28 0 21 2;
#X connect 29 0 21 3;
#X connect 30 0 23 0;
#X connect 31 0 27 0;
#X connect 32 0 28 0;
#X connect 33 0 29 0;
#X connect 34 0 45 0;
#X connect 35 0 34 0;
#X connect 35 1 39 0;
#X connect 35 2 40 0;
#X connect 35 3 41 0;
#X connect 36 0 37 0;
#X connect 38 0 36 0;
#X connect 39 0 46 0;
#X connect 40 0 47 0;
#X connect 41 0 48 0;
#X connect 42 0 36 1;
#X connect 43 0 36 2;
#X connect 44 0 36 3;
#X connect 45 0 38 0;
#X connect 46 0 42 0;
#X connect 47 0 43 0;
#X connect 48 0 44 0;
#X connect 52 0 54 0;
#X connect 52 0 55 0;
#X connect 53 0 52 0;
#X connect 54 0 56 1;
#X connect 54 0 59 0;
#X connect 55 0 57 1;
#X connect 55 0 60 0;
#X connect 56 0 72 0;
#X connect 57 0 35 0;
#X connect 58 0 57 0;
#X connect 59 0 62 0;
#X connect 60 0 61 0;
#X connect 61 0 64 0;
#X connect 62 0 63 0;
#X connect 65 0 23 0;
#X connect 65 0 29 0;
#X connect 65 0 28 0;
#X connect 65 0 27 0;
#X connect 66 0 38 0;
#X connect 66 0 44 0;
#X connect 66 0 43 0;
#X connect 66 0 42 0;
#X connect 67 0 18 4;
#X connect 68 0 70 0;
#X connect 70 0 52 0;
#X connect 71 0 72 0;
#X connect 72 0 19 0;
#X connect 72 1 24 0;
#X connect 72 2 25 0;
#X connect 72 3 26 0;
#X connect 75 0 77 0;
#X connect 76 0 78 0;
#X connect 77 0 73 0;
#X connect 78 0 74 0;
