#N canvas 0 36 1035 891 12;
#X obj 224 39 loadbang;
#X floatatom 224 91 5 0 0 0 - - - 0;
#X obj 192 121 metro;
#X obj 193 200 int 1;
#X floatatom 193 227 5 0 0 0 - - - 0;
#X obj 193 282 + 1;
#X floatatom 193 310 5 0 0 0 - - - 0;
#X obj 193 158 bng 19 250 50 0 empty empty empty 0 -10 0 12 #fcfcfc #000000 #000000;
#X obj 154 39 tgl 50 0 empty empty empty 0 -10 0 12 #fcfcfc #000000 #000000 0 1;
#X obj 32 75 loadbang;
#X obj 108 118 sel 0;
#X obj 108 155 bng 19 250 50 0 empty empty empty 0 -10 0 12 #fcfcfc #000000 #000000;
#X msg 108 182 -1;
#X obj 258 218 + 1;
#X obj 22 410 bng 19 250 50 0 empty empty empty 0 -10 0 12 #fcfcfc #000000 #000000;
#X obj 194 355 sel 1 2 3 4 5 6 7 8 9 10 11 12 13 14 15 16;
#X obj 59 410 bng 19 250 50 0 empty empty empty 0 -10 0 12 #fcfcfc #000000 #000000;
#X obj 97 409 bng 19 250 50 0 empty empty empty 0 -10 0 12 #fcfcfc #000000 #000000;
#X obj 133 409 bng 19 250 50 0 empty empty empty 0 -10 0 12 #fcfcfc #000000 #000000;
#X obj 22 442 s t1;
#X obj 59 442 s t2;
#X obj 97 441 s t3;
#X obj 134 441 s t4;
#X obj 171 408 bng 19 250 50 0 empty empty empty 0 -10 0 12 #fcfcfc #000000 #000000;
#X obj 208 408 bng 19 250 50 0 empty empty empty 0 -10 0 12 #fcfcfc #000000 #000000;
#X obj 246 407 bng 19 250 50 0 empty empty empty 0 -10 0 12 #fcfcfc #000000 #000000;
#X obj 282 407 bng 19 250 50 0 empty empty empty 0 -10 0 12 #fcfcfc #000000 #000000;
#X obj 321 407 bng 19 250 50 0 empty empty empty 0 -10 0 12 #fcfcfc #000000 #000000;
#X obj 358 407 bng 19 250 50 0 empty empty empty 0 -10 0 12 #fcfcfc #000000 #000000;
#X obj 401 407 bng 19 250 50 0 empty empty empty 0 -10 0 12 #fcfcfc #000000 #000000;
#X obj 443 407 bng 19 250 50 0 empty empty empty 0 -10 0 12 #fcfcfc #000000 #000000;
#X obj 486 407 bng 19 250 50 0 empty empty empty 0 -10 0 12 #fcfcfc #000000 #000000;
#X obj 528 407 bng 19 250 50 0 empty empty empty 0 -10 0 12 #fcfcfc #000000 #000000;
#X obj 566 406 bng 19 250 50 0 empty empty empty 0 -10 0 12 #fcfcfc #000000 #000000;
#X obj 607 406 bng 19 250 50 0 empty empty empty 0 -10 0 12 #fcfcfc #000000 #000000;
#X obj 321 439 s t9;
#X obj 171 440 s t5;
#X obj 208 440 s t6;
#X obj 246 439 s t7;
#X obj 283 439 s t8;
#X obj 358 439 s t10;
#X obj 401 439 s t11;
#X obj 444 439 s t12;
#X obj 486 439 s t13;
#X obj 528 439 s t14;
#X obj 570 439 s t15;
#X obj 612 439 s t16;
#X obj 193 254 % 16;
#X obj 13 1487 r t1;
#X obj 95 1489 r t2;
#X obj 174 1485 r t3;
#X obj 246 1488 r t4;
#X obj 336 1489 r t5;
#X obj 417 1490 r t6;
#X obj 495 1485 r t7;
#X obj 564 1486 r t8;
#X obj 640 1483 r t9;
#X obj 708 1477 r t10;
#X obj 773 1476 r t11;
#X obj 845 1474 r t12;
#X obj 915 1473 r t13;
#X obj 990 1473 r t14;
#X obj 1066 1472 r t15;
#X obj 1141 1471 r t16;
#X obj 20 1520 bng 19 250 50 0 empty empty empty 0 -10 0 12 #fcfcfc #000000 #000000;
#X obj 106 1521 bng 19 250 50 0 empty empty empty 0 -10 0 12 #fcfcfc #000000 #000000;
#X obj 188 1519 bng 19 250 50 0 empty empty empty 0 -10 0 12 #fcfcfc #000000 #000000;
#X obj 262 1519 bng 19 250 50 0 empty empty empty 0 -10 0 12 #fcfcfc #000000 #000000;
#X obj 344 1517 bng 19 250 50 0 empty empty empty 0 -10 0 12 #fcfcfc #000000 #000000;
#X obj 417 1514 bng 19 250 50 0 empty empty empty 0 -10 0 12 #fcfcfc #000000 #000000;
#X obj 508 1514 bng 19 250 50 0 empty empty empty 0 -10 0 12 #fcfcfc #000000 #000000;
#X obj 579 1509 bng 19 250 50 0 empty empty empty 0 -10 0 12 #fcfcfc #000000 #000000;
#X obj 653 1510 bng 19 250 50 0 empty empty empty 0 -10 0 12 #fcfcfc #000000 #000000;
#X obj 723 1506 bng 19 250 50 0 empty empty empty 0 -10 0 12 #fcfcfc #000000 #000000;
#X obj 796 1506 bng 19 250 50 0 empty empty empty 0 -10 0 12 #fcfcfc #000000 #000000;
#X obj 871 1506 bng 19 250 50 0 empty empty empty 0 -10 0 12 #fcfcfc #000000 #000000;
#X obj 937 1505 bng 19 250 50 0 empty empty empty 0 -10 0 12 #fcfcfc #000000 #000000;
#X obj 1011 1504 bng 19 250 50 0 empty empty empty 0 -10 0 12 #fcfcfc #000000 #000000;
#X obj 1080 1504 bng 19 250 50 0 empty empty empty 0 -10 0 12 #fcfcfc #000000 #000000;
#X obj 1153 1502 bng 19 250 50 0 empty empty empty 0 -10 0 12 #fcfcfc #000000 #000000;
#X obj 263 1847 spigot;
#X obj 345 1845 spigot;
#X obj 424 1842 spigot;
#X obj 501 1839 spigot;
#X obj 583 1840 spigot;
#X obj 651 1839 spigot;
#X obj 724 1834 spigot;
#X obj 872 1834 spigot;
#X obj 941 1833 spigot;
#X obj 1012 1832 spigot;
#X obj 1081 1832 spigot;
#X obj 1154 1830 spigot;
#X obj 797 1834 spigot;
#X obj 15 1848 spigot;
#X obj 104 1846 spigot;
#X obj 192 1846 spigot;
#X obj 33 1614 tgl 19 0 empty empty empty 0 -10 0 12 #fcfcfc #000000 #000000 0 1;
#X obj 123 1614 tgl 19 0 empty empty empty 0 -10 0 12 #fcfcfc #000000 #000000 0 1;
#X obj 203 1613 tgl 19 0 empty empty empty 0 -10 0 12 #fcfcfc #000000 #000000 0 1;
#X obj 279 1609 tgl 19 0 empty empty empty 0 -10 0 12 #fcfcfc #000000 #000000 0 1;
#X obj 369 1612 tgl 19 0 empty empty empty 0 -10 0 12 #fcfcfc #000000 #000000 0 1;
#X obj 449 1607 tgl 19 0 empty empty empty 0 -10 0 12 #fcfcfc #000000 #000000 0 1;
#X obj 527 1610 tgl 19 0 empty empty empty 0 -10 0 12 #fcfcfc #000000 #000000 0 1;
#X obj 604 1612 tgl 19 0 empty empty empty 0 -10 0 12 #fcfcfc #000000 #000000 0 1;
#X obj 675 1605 tgl 19 0 empty empty empty 0 -10 0 12 #fcfcfc #000000 #000000 0 1;
#X obj 742 1602 tgl 19 0 empty empty empty 0 -10 0 12 #fcfcfc #000000 #000000 0 1;
#X obj 814 1599 tgl 19 0 empty empty empty 0 -10 0 12 #fcfcfc #000000 #000000 0 1;
#X obj 887 1598 tgl 19 0 empty empty empty 0 -10 0 12 #fcfcfc #000000 #000000 0 1;
#X obj 951 1597 tgl 19 0 empty empty empty 0 -10 0 12 #fcfcfc #000000 #000000 0 1;
#X obj 1024 1596 tgl 19 0 empty empty empty 0 -10 0 12 #fcfcfc #000000 #000000 0 1;
#X obj 1091 1593 tgl 19 0 empty empty empty 0 -10 0 12 #fcfcfc #000000 #000000 0 1;
#X obj 1168 1591 tgl 19 0 empty empty empty 0 -10 0 12 #fcfcfc #000000 #000000 0 1;
#X obj 21 1872 bng 19 250 50 0 empty empty empty 0 -10 0 12 #fcfcfc #000000 #000000;
#X obj 106 1873 bng 19 250 50 0 empty empty empty 0 -10 0 12 #fcfcfc #000000 #000000;
#X obj 193 1872 bng 19 250 50 0 empty empty empty 0 -10 0 12 #fcfcfc #000000 #000000;
#X obj 263 1871 bng 19 250 50 0 empty empty empty 0 -10 0 12 #fcfcfc #000000 #000000;
#X obj 345 1869 bng 19 250 50 0 empty empty empty 0 -10 0 12 #fcfcfc #000000 #000000;
#X obj 424 1866 bng 19 250 50 0 empty empty empty 0 -10 0 12 #fcfcfc #000000 #000000;
#X obj 501 1863 bng 19 250 50 0 empty empty empty 0 -10 0 12 #fcfcfc #000000 #000000;
#X obj 580 1861 bng 19 250 50 0 empty empty empty 0 -10 0 12 #fcfcfc #000000 #000000;
#X obj 654 1862 bng 19 250 50 0 empty empty empty 0 -10 0 12 #fcfcfc #000000 #000000;
#X obj 724 1858 bng 19 250 50 0 empty empty empty 0 -10 0 12 #fcfcfc #000000 #000000;
#X obj 797 1858 bng 19 250 50 0 empty empty empty 0 -10 0 12 #fcfcfc #000000 #000000;
#X obj 872 1858 bng 19 250 50 0 empty empty empty 0 -10 0 12 #fcfcfc #000000 #000000;
#X obj 938 1857 bng 19 250 50 0 empty empty empty 0 -10 0 12 #fcfcfc #000000 #000000;
#X obj 1012 1856 bng 19 250 50 0 empty empty empty 0 -10 0 12 #fcfcfc #000000 #000000;
#X obj 1081 1856 bng 19 250 50 0 empty empty empty 0 -10 0 12 #fcfcfc #000000 #000000;
#X obj 1154 1854 bng 19 250 50 0 empty empty empty 0 -10 0 12 #fcfcfc #000000 #000000;
#X obj 812 155 bng 19 250 50 0 empty empty empty 0 -10 0 12 #fcfcfc #000000 #000000;
#X msg 812 181 open kick.wav \, 1;
#X obj 812 205 readsf~;
#X obj 812 229 *~ 0.5;
#X obj 1004 154 bng 19 250 50 0 empty empty empty 0 -10 0 12 #fcfcfc #000000 #000000;
#X obj 1004 204 readsf~;
#X obj 1004 228 *~ 0.5;
#X msg 1004 180 open snare.wav \, 1;
#X obj 1199 151 bng 19 250 50 0 empty empty empty 0 -10 0 12 #fcfcfc #000000 #000000;
#X obj 1199 201 readsf~;
#X obj 1199 225 *~ 0.5;
#X obj 1393 148 bng 19 250 50 0 empty empty empty 0 -10 0 12 #fcfcfc #000000 #000000;
#X obj 1393 198 readsf~;
#X obj 1393 222 *~ 0.5;
#X obj 1585 147 bng 19 250 50 0 empty empty empty 0 -10 0 12 #fcfcfc #000000 #000000;
#X obj 1585 197 readsf~;
#X obj 1585 221 *~ 0.5;
#X obj 1780 144 bng 19 250 50 0 empty empty empty 0 -10 0 12 #fcfcfc #000000 #000000;
#X obj 1780 194 readsf~;
#X obj 1780 218 *~ 0.5;
#X msg 1199 177 open hat.wav \, 1;
#X msg 1393 174 open perc.wav \, 1;
#X msg 1585 173 open tom.wav \, 1;
#X msg 1780 170 open cymbal.wav \, 1;
#X msg 224 63 150;
#X obj 1153 386 throw~ outL;
#X obj 1256 388 throw~ outR;
#X text 275 287 transport controls;
#X text 943 70 output controls;
#X floatatom 515 1304 5 0 0 0 - - - 0;
#X obj 75 1442 spigot;
#X obj 73 1398 == 61;
#X obj 34 1580 bng 19 250 50 0 empty empty empty 0 -10 0 12 #fcfcfc #000000 #000000;
#X obj 159 1441 spigot;
#X obj 121 1581 bng 19 250 50 0 empty empty empty 0 -10 0 12 #fcfcfc #000000 #000000;
#X obj 229 1442 spigot;
#X obj 202 1579 bng 19 250 50 0 empty empty empty 0 -10 0 12 #fcfcfc #000000 #000000;
#X obj 313 1440 spigot;
#X obj 275 1573 bng 19 250 50 0 empty empty empty 0 -10 0 12 #fcfcfc #000000 #000000;
#X obj 157 1397 == 60;
#X obj 234 1397 == 62;
#X obj 311 1396 == 64;
#X obj 389 1438 spigot;
#X obj 366 1575 bng 19 250 50 0 empty empty empty 0 -10 0 12 #fcfcfc #000000 #000000;
#X obj 463 1437 spigot;
#X obj 446 1569 bng 19 250 50 0 empty empty empty 0 -10 0 12 #fcfcfc #000000 #000000;
#X obj 534 1436 spigot;
#X obj 526 1572 bng 19 250 50 0 empty empty empty 0 -10 0 12 #fcfcfc #000000 #000000;
#X obj 605 1435 spigot;
#X obj 602 1567 bng 19 250 50 0 empty empty empty 0 -10 0 12 #fcfcfc #000000 #000000;
#X obj 680 1435 spigot;
#X obj 673 1566 bng 19 250 50 0 empty empty empty 0 -10 0 12 #fcfcfc #000000 #000000;
#X obj 754 1434 spigot;
#X obj 738 1560 bng 19 250 50 0 empty empty empty 0 -10 0 12 #fcfcfc #000000 #000000;
#X obj 830 1434 spigot;
#X obj 814 1551 bng 19 250 50 0 empty empty empty 0 -10 0 12 #fcfcfc #000000 #000000;
#X obj 900 1433 spigot;
#X obj 887 1553 bng 19 250 50 0 empty empty empty 0 -10 0 12 #fcfcfc #000000 #000000;
#X obj 978 1430 spigot;
#X obj 949 1551 bng 19 250 50 0 empty empty empty 0 -10 0 12 #fcfcfc #000000 #000000;
#X obj 1055 1428 spigot;
#X obj 1022 1554 bng 19 250 50 0 empty empty empty 0 -10 0 12 #fcfcfc #000000 #000000;
#X obj 1135 1428 spigot;
#X obj 1089 1548 bng 19 250 50 0 empty empty empty 0 -10 0 12 #fcfcfc #000000 #000000;
#X obj 1214 1427 spigot;
#X obj 1166 1549 bng 19 250 50 0 empty empty empty 0 -10 0 12 #fcfcfc #000000 #000000;
#X obj 387 1394 == 65;
#X obj 461 1393 == 67;
#X obj 532 1392 == 69;
#X obj 603 1391 == 71;
#X obj 678 1391 == 73;
#X obj 752 1390 == 72;
#X obj 828 1390 == 74;
#X obj 900 1389 == 76;
#X obj 976 1386 == 77;
#X obj 1053 1384 == 79;
#X obj 1133 1384 == 81;
#X obj 1214 1382 == 83;
#X obj 468 1265 r kick-triggers;
#X obj 572 1992 s kick-wave;
#X obj 812 131 r kick-wave;
#X floatatom 141 594 5 0 0 0 - - - 0;
#X obj 163 820 tgl 40 0 empty empty empty 0 -10 0 12 #fcfcfc #000000 #000000 0 1;
#X obj 163 777 == 66;
#X obj 234 819 tgl 40 0 empty empty empty 0 -10 0 12 #fcfcfc #000000 #000000 0 1;
#X obj 234 776 == 68;
#X floatatom 309 707 5 0 0 0 - - - 0;
#X obj 298 819 tgl 40 0 empty empty empty 0 -10 0 12 #fcfcfc #000000 #000000 0 1;
#X obj 369 818 tgl 40 0 empty empty empty 0 -10 0 12 #fcfcfc #000000 #000000 0 1;
#X obj 435 818 tgl 40 0 empty empty empty 0 -10 0 12 #fcfcfc #000000 #000000 0 1;
#X obj 506 817 tgl 40 0 empty empty empty 0 -10 0 12 #fcfcfc #000000 #000000 0 1;
#X obj 298 776 == 70;
#X obj 369 775 == 78;
#X obj 435 775 == 80;
#X obj 506 774 == 82;
#X obj 40 1055 s kick-triggers;
#X obj 180 1099 s snare-triggers;
#X obj 141 632 sel 61 60 62 63 64 65 67 69 71 73 72 74 75 76 77 79 81 83;
#X obj 102 996 spigot;
#X obj 207 991 spigot;
#X obj 141 566 r notes;
#X obj 45 949 r notes;
#X obj 294 993 spigot;
#X obj 362 994 spigot;
#X obj 435 990 spigot;
#X obj 503 991 spigot;
#X obj 1004 130 r snare-wave;
#X obj 1199 127 r hat-wave;
#X obj 1393 124 r perc-wave;
#X obj 1585 123 r tom-wave;
#X obj 1780 120 r cymbal-wave;
#X obj 245 1053 s hat-triggers;
#X obj 377 1058 s tom-triggers;
#X obj 346 1099 s perc-triggers;
#X obj 488 1097 s cymbal-triggers;
#X text 276 550 track router;
#X obj 598 103 loadbang;
#X obj 600 188 del 20;
#X obj 627 136 bng 19 250 50 0 empty empty empty 0 -10 0 12 #fcfcfc #000000 #000000;
#X obj 458 229 cg-print-kb-vel 36;
#X obj 1062 841 s screenLine5;
#X obj 60 1687 s d1;
#X obj 223 1684 s d3;
#X obj 306 1684 s d4;
#X obj 380 1683 s d5;
#X obj 464 1683 s d6;
#X obj 547 1683 s d7;
#X obj 620 1682 s d8;
#X obj 843 532 r d1;
#X obj 884 532 r d2;
#X obj 925 531 r d3;
#X text 894 486 display updater;
#X obj 1151 706 pack 0 0 0 0 0 0 0 0 0 0 0 0 0 0 0 0 0;
#X obj 965 531 r d4;
#X obj 1006 531 r d5;
#X obj 1047 530 r d6;
#X obj 1088 530 r d7;
#X obj 1129 530 r d8;
#X obj 1170 529 r d9;
#X obj 1210 529 r d10;
#X obj 1259 529 r d11;
#X obj 1308 529 r d12;
#X obj 1354 528 r d13;
#X obj 1400 528 r d14;
#X obj 1446 528 r d15;
#X obj 1492 529 r d16;
#X obj 689 1680 s d9;
#X obj 757 1679 s d10;
#X obj 832 1680 s d11;
#X obj 901 1678 s d12;
#X obj 971 1674 s d13;
#X obj 1040 1672 s d14;
#X obj 1114 1671 s d15;
#X obj 1184 1672 s d16;
#X msg 1062 780 \$2\$3\$4\$5 \$6\$7\$8\$9 \$10\$11\$12\$13 \$14\$15\$16\$17;
#X obj 37 37 print;
#X obj 1171 739 print;
#X obj 866 666 t b b b b b b b b b b b b b b b b;
#X obj 95 3106 r t1;
#X obj 149 3106 r t2;
#X obj 202 3105 r t3;
#X obj 254 3105 r t4;
#X obj 306 3104 r t5;
#X obj 358 3104 r t6;
#X obj 406 3103 r t7;
#X obj 459 3103 r t8;
#X obj 513 3103 r t9;
#X obj 566 3103 r t10;
#X obj 622 3103 r t11;
#X obj 679 3103 r t12;
#X obj 736 3103 r t13;
#X obj 792 3103 r t14;
#X obj 848 3103 r t15;
#X obj 905 3102 r t16;
#X obj 95 3130 bng 19 250 50 0 empty empty empty 0 -10 0 12 #fcfcfc #000000 #000000;
#X obj 149 3130 bng 19 250 50 0 empty empty empty 0 -10 0 12 #fcfcfc #000000 #000000;
#X obj 202 3129 bng 19 250 50 0 empty empty empty 0 -10 0 12 #fcfcfc #000000 #000000;
#X obj 254 3129 bng 19 250 50 0 empty empty empty 0 -10 0 12 #fcfcfc #000000 #000000;
#X obj 306 3128 bng 19 250 50 0 empty empty empty 0 -10 0 12 #fcfcfc #000000 #000000;
#X obj 358 3128 bng 19 250 50 0 empty empty empty 0 -10 0 12 #fcfcfc #000000 #000000;
#X obj 411 3127 bng 19 250 50 0 empty empty empty 0 -10 0 12 #fcfcfc #000000 #000000;
#X obj 464 3127 bng 19 250 50 0 empty empty empty 0 -10 0 12 #fcfcfc #000000 #000000;
#X obj 518 3127 bng 19 250 50 0 empty empty empty 0 -10 0 12 #fcfcfc #000000 #000000;
#X obj 571 3127 bng 19 250 50 0 empty empty empty 0 -10 0 12 #fcfcfc #000000 #000000;
#X obj 627 3127 bng 19 250 50 0 empty empty empty 0 -10 0 12 #fcfcfc #000000 #000000;
#X obj 684 3127 bng 19 250 50 0 empty empty empty 0 -10 0 12 #fcfcfc #000000 #000000;
#X obj 738 3127 bng 19 250 50 0 empty empty empty 0 -10 0 12 #fcfcfc #000000 #000000;
#X obj 797 3127 bng 19 250 50 0 empty empty empty 0 -10 0 12 #fcfcfc #000000 #000000;
#X obj 853 3127 bng 19 250 50 0 empty empty empty 0 -10 0 12 #fcfcfc #000000 #000000;
#X obj 910 3127 bng 19 250 50 0 empty empty empty 0 -10 0 12 #fcfcfc #000000 #000000;
#X obj 254 3357 spigot;
#X obj 306 3356 spigot;
#X obj 358 3356 spigot;
#X obj 411 3355 spigot;
#X obj 464 3355 spigot;
#X obj 518 3355 spigot;
#X obj 571 3355 spigot;
#X obj 684 3355 spigot;
#X obj 741 3355 spigot;
#X obj 797 3355 spigot;
#X obj 853 3355 spigot;
#X obj 910 3355 spigot;
#X obj 627 3355 spigot;
#X obj 95 3358 spigot;
#X obj 149 3358 spigot;
#X obj 202 3357 spigot;
#X obj 103 3229 tgl 40 0 empty empty empty 0 -10 0 12 #fcfcfc #000000 #000000 0 1;
#X obj 158 3229 tgl 40 0 empty empty empty 0 -10 0 12 #fcfcfc #000000 #000000 0 1;
#X obj 210 3229 tgl 40 0 empty empty empty 0 -10 0 12 #fcfcfc #000000 #000000 0 1;
#X obj 264 3229 tgl 40 0 empty empty empty 0 -10 0 12 #fcfcfc #000000 #000000 0 1;
#X obj 315 3229 tgl 40 0 empty empty empty 0 -10 0 12 #fcfcfc #000000 #000000 0 1;
#X obj 367 3229 tgl 40 0 empty empty empty 0 -10 0 12 #fcfcfc #000000 #000000 0 1;
#X obj 418 3229 tgl 40 0 empty empty empty 0 -10 0 12 #fcfcfc #000000 #000000 0 1;
#X obj 472 3229 tgl 40 0 empty empty empty 0 -10 0 12 #fcfcfc #000000 #000000 0 1;
#X obj 526 3229 tgl 40 0 empty empty empty 0 -10 0 12 #fcfcfc #000000 #000000 0 1;
#X obj 580 3229 tgl 40 0 empty empty empty 0 -10 0 12 #fcfcfc #000000 #000000 0 1;
#X obj 636 3229 tgl 40 0 empty empty empty 0 -10 0 12 #fcfcfc #000000 #000000 0 1;
#X obj 692 3229 tgl 40 0 empty empty empty 0 -10 0 12 #fcfcfc #000000 #000000 0 1;
#X obj 749 3229 tgl 40 0 empty empty empty 0 -10 0 12 #fcfcfc #000000 #000000 0 1;
#X obj 805 3229 tgl 40 0 empty empty empty 0 -10 0 12 #fcfcfc #000000 #000000 0 1;
#X obj 861 3229 tgl 40 0 empty empty empty 0 -10 0 12 #fcfcfc #000000 #000000 0 1;
#X obj 918 3229 tgl 40 0 empty empty empty 0 -10 0 12 #fcfcfc #000000 #000000 0 1;
#X obj 95 3382 bng 19 250 50 0 empty empty empty 0 -10 0 12 #fcfcfc #000000 #000000;
#X obj 149 3382 bng 19 250 50 0 empty empty empty 0 -10 0 12 #fcfcfc #000000 #000000;
#X obj 202 3381 bng 19 250 50 0 empty empty empty 0 -10 0 12 #fcfcfc #000000 #000000;
#X obj 254 3381 bng 19 250 50 0 empty empty empty 0 -10 0 12 #fcfcfc #000000 #000000;
#X obj 306 3380 bng 19 250 50 0 empty empty empty 0 -10 0 12 #fcfcfc #000000 #000000;
#X obj 358 3380 bng 19 250 50 0 empty empty empty 0 -10 0 12 #fcfcfc #000000 #000000;
#X obj 411 3379 bng 19 250 50 0 empty empty empty 0 -10 0 12 #fcfcfc #000000 #000000;
#X obj 464 3379 bng 19 250 50 0 empty empty empty 0 -10 0 12 #fcfcfc #000000 #000000;
#X obj 518 3379 bng 19 250 50 0 empty empty empty 0 -10 0 12 #fcfcfc #000000 #000000;
#X obj 571 3379 bng 19 250 50 0 empty empty empty 0 -10 0 12 #fcfcfc #000000 #000000;
#X obj 627 3379 bng 19 250 50 0 empty empty empty 0 -10 0 12 #fcfcfc #000000 #000000;
#X obj 684 3379 bng 19 250 50 0 empty empty empty 0 -10 0 12 #fcfcfc #000000 #000000;
#X obj 738 3379 bng 19 250 50 0 empty empty empty 0 -10 0 12 #fcfcfc #000000 #000000;
#X obj 797 3379 bng 19 250 50 0 empty empty empty 0 -10 0 12 #fcfcfc #000000 #000000;
#X obj 853 3379 bng 19 250 50 0 empty empty empty 0 -10 0 12 #fcfcfc #000000 #000000;
#X obj 910 3379 bng 19 250 50 0 empty empty empty 0 -10 0 12 #fcfcfc #000000 #000000;
#X floatatom 503 2913 5 0 0 0 - - - 0;
#X obj 129 3052 spigot;
#X obj 127 3008 == 61;
#X obj 129 3195 bng 19 250 50 0 empty empty empty 0 -10 0 12 #fcfcfc #000000 #000000;
#X obj 181 3051 spigot;
#X obj 181 3194 bng 19 250 50 0 empty empty empty 0 -10 0 12 #fcfcfc #000000 #000000;
#X obj 233 3051 spigot;
#X obj 233 3194 bng 19 250 50 0 empty empty empty 0 -10 0 12 #fcfcfc #000000 #000000;
#X obj 285 3050 spigot;
#X obj 285 3193 bng 19 250 50 0 empty empty empty 0 -10 0 12 #fcfcfc #000000 #000000;
#X obj 179 3007 == 60;
#X obj 231 3007 == 62;
#X obj 283 3006 == 64;
#X obj 338 3049 spigot;
#X obj 338 3192 bng 19 250 50 0 empty empty empty 0 -10 0 12 #fcfcfc #000000 #000000;
#X obj 390 3048 spigot;
#X obj 390 3191 bng 19 250 50 0 empty empty empty 0 -10 0 12 #fcfcfc #000000 #000000;
#X obj 442 3048 spigot;
#X obj 442 3191 bng 19 250 50 0 empty empty empty 0 -10 0 12 #fcfcfc #000000 #000000;
#X obj 494 3047 spigot;
#X obj 494 3190 bng 19 250 50 0 empty empty empty 0 -10 0 12 #fcfcfc #000000 #000000;
#X obj 547 3047 spigot;
#X obj 547 3190 bng 19 250 50 0 empty empty empty 0 -10 0 12 #fcfcfc #000000 #000000;
#X obj 605 3046 spigot;
#X obj 606 3189 bng 19 250 50 0 empty empty empty 0 -10 0 12 #fcfcfc #000000 #000000;
#X obj 667 3046 spigot;
#X obj 664 3190 bng 19 250 50 0 empty empty empty 0 -10 0 12 #fcfcfc #000000 #000000;
#X obj 721 3045 spigot;
#X obj 720 3188 bng 19 250 50 0 empty empty empty 0 -10 0 12 #fcfcfc #000000 #000000;
#X obj 778 3044 spigot;
#X obj 777 3190 bng 19 250 50 0 empty empty empty 0 -10 0 12 #fcfcfc #000000 #000000;
#X obj 832 3042 spigot;
#X obj 832 3189 bng 19 250 50 0 empty empty empty 0 -10 0 12 #fcfcfc #000000 #000000;
#X obj 890 3042 spigot;
#X obj 889 3189 bng 19 250 50 0 empty empty empty 0 -10 0 12 #fcfcfc #000000 #000000;
#X obj 948 3042 spigot;
#X obj 948 3190 bng 19 250 50 0 empty empty empty 0 -10 0 12 #fcfcfc #000000 #000000;
#X obj 336 3005 == 65;
#X obj 388 3004 == 67;
#X obj 440 3004 == 69;
#X obj 492 3003 == 71;
#X obj 545 3003 == 73;
#X obj 603 3002 == 72;
#X obj 665 3002 == 74;
#X obj 721 3001 == 76;
#X obj 776 3000 == 77;
#X obj 830 2998 == 79;
#X obj 888 2998 == 81;
#X obj 948 2997 == 83;
#X obj 117 3274 s d1;
#X obj 171 3273 s d2;
#X obj 222 3274 s d3;
#X obj 276 3273 s d4;
#X obj 327 3273 s d5;
#X obj 381 3272 s d6;
#X obj 432 3273 s d7;
#X obj 486 3272 s d8;
#X obj 538 3274 s d9;
#X obj 594 3275 s d10;
#X obj 647 3275 s d11;
#X obj 707 3275 s d12;
#X obj 762 3273 s d13;
#X obj 819 3273 s d14;
#X obj 873 3274 s d15;
#X obj 927 3273 s d16;
#X obj 60 1644 f;
#X obj 42 914 s up-kick;
#X obj 1303 1617 r up-kick;
#X obj 143 1643 f;
#X obj 144 1687 s d2;
#X obj 224 1644 f;
#X obj 303 1643 f;
#X obj 379 1644 f;
#X obj 463 1644 f;
#X obj 543 1644 f;
#X obj 622 1643 f;
#X obj 689 1644 f;
#X obj 759 1642 f;
#X obj 836 1641 f;
#X obj 907 1641 f;
#X obj 975 1639 f;
#X obj 1045 1637 f;
#X obj 1122 1636 f;
#X obj 1193 1636 f;
#X obj 164 912 s up-snare;
#X obj 34 2296 r t1;
#X obj 116 2298 r t2;
#X obj 195 2294 r t3;
#X obj 267 2297 r t4;
#X obj 357 2298 r t5;
#X obj 438 2299 r t6;
#X obj 516 2294 r t7;
#X obj 585 2295 r t8;
#X obj 661 2292 r t9;
#X obj 729 2286 r t10;
#X obj 794 2285 r t11;
#X obj 866 2283 r t12;
#X obj 936 2282 r t13;
#X obj 1011 2282 r t14;
#X obj 1087 2281 r t15;
#X obj 1162 2280 r t16;
#X obj 41 2329 bng 19 250 50 0 empty empty empty 0 -10 0 12 #fcfcfc #000000 #000000;
#X obj 127 2330 bng 19 250 50 0 empty empty empty 0 -10 0 12 #fcfcfc #000000 #000000;
#X obj 209 2328 bng 19 250 50 0 empty empty empty 0 -10 0 12 #fcfcfc #000000 #000000;
#X obj 283 2328 bng 19 250 50 0 empty empty empty 0 -10 0 12 #fcfcfc #000000 #000000;
#X obj 365 2326 bng 19 250 50 0 empty empty empty 0 -10 0 12 #fcfcfc #000000 #000000;
#X obj 438 2323 bng 19 250 50 0 empty empty empty 0 -10 0 12 #fcfcfc #000000 #000000;
#X obj 529 2323 bng 19 250 50 0 empty empty empty 0 -10 0 12 #fcfcfc #000000 #000000;
#X obj 600 2318 bng 19 250 50 0 empty empty empty 0 -10 0 12 #fcfcfc #000000 #000000;
#X obj 674 2319 bng 19 250 50 0 empty empty empty 0 -10 0 12 #fcfcfc #000000 #000000;
#X obj 744 2315 bng 19 250 50 0 empty empty empty 0 -10 0 12 #fcfcfc #000000 #000000;
#X obj 817 2315 bng 19 250 50 0 empty empty empty 0 -10 0 12 #fcfcfc #000000 #000000;
#X obj 892 2315 bng 19 250 50 0 empty empty empty 0 -10 0 12 #fcfcfc #000000 #000000;
#X obj 958 2314 bng 19 250 50 0 empty empty empty 0 -10 0 12 #fcfcfc #000000 #000000;
#X obj 1032 2313 bng 19 250 50 0 empty empty empty 0 -10 0 12 #fcfcfc #000000 #000000;
#X obj 1101 2313 bng 19 250 50 0 empty empty empty 0 -10 0 12 #fcfcfc #000000 #000000;
#X obj 1174 2311 bng 19 250 50 0 empty empty empty 0 -10 0 12 #fcfcfc #000000 #000000;
#X obj 284 2656 spigot;
#X obj 366 2654 spigot;
#X obj 445 2651 spigot;
#X obj 522 2648 spigot;
#X obj 604 2649 spigot;
#X obj 672 2648 spigot;
#X obj 745 2643 spigot;
#X obj 893 2643 spigot;
#X obj 962 2642 spigot;
#X obj 1033 2641 spigot;
#X obj 1102 2641 spigot;
#X obj 1175 2639 spigot;
#X obj 818 2643 spigot;
#X obj 36 2657 spigot;
#X obj 125 2655 spigot;
#X obj 213 2655 spigot;
#X obj 54 2423 tgl 19 0 empty empty empty 0 -10 0 12 #fcfcfc #000000 #000000 0 1;
#X obj 144 2423 tgl 19 0 empty empty empty 0 -10 0 12 #fcfcfc #000000 #000000 0 1;
#X obj 224 2422 tgl 19 0 empty empty empty 0 -10 0 12 #fcfcfc #000000 #000000 0 1;
#X obj 300 2418 tgl 19 0 empty empty empty 0 -10 0 12 #fcfcfc #000000 #000000 0 1;
#X obj 390 2421 tgl 19 0 empty empty empty 0 -10 0 12 #fcfcfc #000000 #000000 0 1;
#X obj 470 2416 tgl 19 0 empty empty empty 0 -10 0 12 #fcfcfc #000000 #000000 0 1;
#X obj 548 2419 tgl 19 0 empty empty empty 0 -10 0 12 #fcfcfc #000000 #000000 0 1;
#X obj 625 2421 tgl 19 0 empty empty empty 0 -10 0 12 #fcfcfc #000000 #000000 0 1;
#X obj 696 2414 tgl 19 0 empty empty empty 0 -10 0 12 #fcfcfc #000000 #000000 0 1;
#X obj 763 2411 tgl 19 0 empty empty empty 0 -10 0 12 #fcfcfc #000000 #000000 0 1;
#X obj 835 2408 tgl 19 0 empty empty empty 0 -10 0 12 #fcfcfc #000000 #000000 0 1;
#X obj 908 2407 tgl 19 0 empty empty empty 0 -10 0 12 #fcfcfc #000000 #000000 0 1;
#X obj 972 2406 tgl 19 0 empty empty empty 0 -10 0 12 #fcfcfc #000000 #000000 0 1;
#X obj 1045 2405 tgl 19 0 empty empty empty 0 -10 0 12 #fcfcfc #000000 #000000 0 1;
#X obj 1112 2402 tgl 19 0 empty empty empty 0 -10 0 12 #fcfcfc #000000 #000000 0 1;
#X obj 1189 2400 tgl 19 0 empty empty empty 0 -10 0 12 #fcfcfc #000000 #000000 0 1;
#X obj 42 2681 bng 19 250 50 0 empty empty empty 0 -10 0 12 #fcfcfc #000000 #000000;
#X obj 127 2682 bng 19 250 50 0 empty empty empty 0 -10 0 12 #fcfcfc #000000 #000000;
#X obj 214 2681 bng 19 250 50 0 empty empty empty 0 -10 0 12 #fcfcfc #000000 #000000;
#X obj 284 2680 bng 19 250 50 0 empty empty empty 0 -10 0 12 #fcfcfc #000000 #000000;
#X obj 366 2678 bng 19 250 50 0 empty empty empty 0 -10 0 12 #fcfcfc #000000 #000000;
#X obj 445 2675 bng 19 250 50 0 empty empty empty 0 -10 0 12 #fcfcfc #000000 #000000;
#X obj 522 2672 bng 19 250 50 0 empty empty empty 0 -10 0 12 #fcfcfc #000000 #000000;
#X obj 601 2670 bng 19 250 50 0 empty empty empty 0 -10 0 12 #fcfcfc #000000 #000000;
#X obj 675 2671 bng 19 250 50 0 empty empty empty 0 -10 0 12 #fcfcfc #000000 #000000;
#X obj 745 2667 bng 19 250 50 0 empty empty empty 0 -10 0 12 #fcfcfc #000000 #000000;
#X obj 818 2667 bng 19 250 50 0 empty empty empty 0 -10 0 12 #fcfcfc #000000 #000000;
#X obj 893 2667 bng 19 250 50 0 empty empty empty 0 -10 0 12 #fcfcfc #000000 #000000;
#X obj 959 2666 bng 19 250 50 0 empty empty empty 0 -10 0 12 #fcfcfc #000000 #000000;
#X obj 1033 2665 bng 19 250 50 0 empty empty empty 0 -10 0 12 #fcfcfc #000000 #000000;
#X obj 1102 2665 bng 19 250 50 0 empty empty empty 0 -10 0 12 #fcfcfc #000000 #000000;
#X obj 1175 2663 bng 19 250 50 0 empty empty empty 0 -10 0 12 #fcfcfc #000000 #000000;
#X floatatom 536 2113 5 0 0 0 - - - 0;
#X obj 96 2251 spigot;
#X obj 94 2207 == 61;
#X obj 55 2389 bng 19 250 50 0 empty empty empty 0 -10 0 12 #fcfcfc #000000 #000000;
#X obj 180 2250 spigot;
#X obj 142 2390 bng 19 250 50 0 empty empty empty 0 -10 0 12 #fcfcfc #000000 #000000;
#X obj 250 2251 spigot;
#X obj 223 2388 bng 19 250 50 0 empty empty empty 0 -10 0 12 #fcfcfc #000000 #000000;
#X obj 334 2249 spigot;
#X obj 296 2382 bng 19 250 50 0 empty empty empty 0 -10 0 12 #fcfcfc #000000 #000000;
#X obj 178 2206 == 60;
#X obj 255 2206 == 62;
#X obj 332 2205 == 64;
#X obj 410 2247 spigot;
#X obj 387 2384 bng 19 250 50 0 empty empty empty 0 -10 0 12 #fcfcfc #000000 #000000;
#X obj 484 2246 spigot;
#X obj 467 2378 bng 19 250 50 0 empty empty empty 0 -10 0 12 #fcfcfc #000000 #000000;
#X obj 555 2245 spigot;
#X obj 547 2381 bng 19 250 50 0 empty empty empty 0 -10 0 12 #fcfcfc #000000 #000000;
#X obj 626 2244 spigot;
#X obj 623 2376 bng 19 250 50 0 empty empty empty 0 -10 0 12 #fcfcfc #000000 #000000;
#X obj 701 2244 spigot;
#X obj 694 2375 bng 19 250 50 0 empty empty empty 0 -10 0 12 #fcfcfc #000000 #000000;
#X obj 775 2243 spigot;
#X obj 759 2369 bng 19 250 50 0 empty empty empty 0 -10 0 12 #fcfcfc #000000 #000000;
#X obj 851 2243 spigot;
#X obj 835 2360 bng 19 250 50 0 empty empty empty 0 -10 0 12 #fcfcfc #000000 #000000;
#X obj 921 2242 spigot;
#X obj 908 2362 bng 19 250 50 0 empty empty empty 0 -10 0 12 #fcfcfc #000000 #000000;
#X obj 999 2239 spigot;
#X obj 970 2360 bng 19 250 50 0 empty empty empty 0 -10 0 12 #fcfcfc #000000 #000000;
#X obj 1076 2237 spigot;
#X obj 1043 2363 bng 19 250 50 0 empty empty empty 0 -10 0 12 #fcfcfc #000000 #000000;
#X obj 1156 2237 spigot;
#X obj 1110 2357 bng 19 250 50 0 empty empty empty 0 -10 0 12 #fcfcfc #000000 #000000;
#X obj 1235 2236 spigot;
#X obj 1187 2358 bng 19 250 50 0 empty empty empty 0 -10 0 12 #fcfcfc #000000 #000000;
#X obj 408 2203 == 65;
#X obj 482 2202 == 67;
#X obj 553 2201 == 69;
#X obj 624 2200 == 71;
#X obj 699 2200 == 73;
#X obj 773 2199 == 72;
#X obj 849 2199 == 74;
#X obj 921 2198 == 76;
#X obj 997 2195 == 77;
#X obj 1074 2193 == 79;
#X obj 1154 2193 == 81;
#X obj 1235 2191 == 83;
#X obj 81 2496 s d1;
#X obj 244 2493 s d3;
#X obj 327 2493 s d4;
#X obj 401 2492 s d5;
#X obj 485 2492 s d6;
#X obj 568 2492 s d7;
#X obj 641 2491 s d8;
#X obj 710 2489 s d9;
#X obj 778 2488 s d10;
#X obj 853 2489 s d11;
#X obj 922 2487 s d12;
#X obj 992 2483 s d13;
#X obj 1061 2481 s d14;
#X obj 1135 2480 s d15;
#X obj 1205 2481 s d16;
#X obj 81 2453 f;
#X obj 164 2452 f;
#X obj 164 2511 s d2;
#X obj 245 2453 f;
#X obj 324 2452 f;
#X obj 400 2453 f;
#X obj 484 2453 f;
#X obj 564 2453 f;
#X obj 643 2452 f;
#X obj 710 2453 f;
#X obj 780 2451 f;
#X obj 857 2450 f;
#X obj 928 2450 f;
#X obj 996 2448 f;
#X obj 1066 2446 f;
#X obj 1143 2445 f;
#X obj 1214 2445 f;
#X obj 476 2877 r aksdjf;
#X obj 520 3486 s sadf;
#X obj 489 2074 r snare-triggers;
#X obj 593 2801 s snare-wave;
#X obj 1269 2426 r up-snare;
#X connect 0 0 152 0;
#X connect 1 0 2 1;
#X connect 2 0 7 0;
#X connect 3 0 13 0;
#X connect 3 0 4 0;
#X connect 4 0 47 0;
#X connect 5 0 6 0;
#X connect 6 0 15 0;
#X connect 7 0 3 0;
#X connect 8 0 2 0;
#X connect 8 0 10 0;
#X connect 9 0 11 0;
#X connect 10 0 11 0;
#X connect 11 0 12 0;
#X connect 12 0 3 0;
#X connect 13 0 3 1;
#X connect 14 0 19 0;
#X connect 15 0 14 0;
#X connect 15 1 16 0;
#X connect 15 2 17 0;
#X connect 15 3 18 0;
#X connect 15 4 23 0;
#X connect 15 5 24 0;
#X connect 15 6 25 0;
#X connect 15 7 26 0;
#X connect 15 8 27 0;
#X connect 15 9 28 0;
#X connect 15 10 29 0;
#X connect 15 11 30 0;
#X connect 15 12 31 0;
#X connect 15 13 32 0;
#X connect 15 14 33 0;
#X connect 15 15 34 0;
#X connect 16 0 20 0;
#X connect 17 0 21 0;
#X connect 18 0 22 0;
#X connect 23 0 36 0;
#X connect 24 0 37 0;
#X connect 25 0 38 0;
#X connect 26 0 39 0;
#X connect 27 0 35 0;
#X connect 28 0 40 0;
#X connect 29 0 41 0;
#X connect 30 0 42 0;
#X connect 31 0 43 0;
#X connect 32 0 44 0;
#X connect 33 0 45 0;
#X connect 34 0 46 0;
#X connect 47 0 5 0;
#X connect 48 0 64 0;
#X connect 49 0 65 0;
#X connect 50 0 66 0;
#X connect 51 0 67 0;
#X connect 52 0 68 0;
#X connect 53 0 69 0;
#X connect 54 0 70 0;
#X connect 55 0 71 0;
#X connect 56 0 72 0;
#X connect 57 0 73 0;
#X connect 58 0 74 0;
#X connect 59 0 75 0;
#X connect 60 0 76 0;
#X connect 61 0 77 0;
#X connect 62 0 78 0;
#X connect 63 0 79 0;
#X connect 64 0 93 0;
#X connect 65 0 94 0;
#X connect 66 0 95 0;
#X connect 67 0 80 0;
#X connect 68 0 81 0;
#X connect 69 0 82 0;
#X connect 70 0 83 0;
#X connect 71 0 84 0;
#X connect 72 0 85 0;
#X connect 73 0 86 0;
#X connect 74 0 92 0;
#X connect 75 0 87 0;
#X connect 76 0 88 0;
#X connect 77 0 89 0;
#X connect 78 0 90 0;
#X connect 79 0 91 0;
#X connect 80 0 115 0;
#X connect 81 0 116 0;
#X connect 82 0 117 0;
#X connect 83 0 118 0;
#X connect 84 0 119 0;
#X connect 85 0 120 0;
#X connect 86 0 121 0;
#X connect 87 0 123 0;
#X connect 88 0 124 0;
#X connect 89 0 125 0;
#X connect 90 0 126 0;
#X connect 91 0 127 0;
#X connect 92 0 122 0;
#X connect 93 0 112 0;
#X connect 94 0 113 0;
#X connect 95 0 114 0;
#X connect 96 0 93 1;
#X connect 96 0 431 0;
#X connect 97 0 94 1;
#X connect 97 0 434 0;
#X connect 98 0 95 1;
#X connect 98 0 436 0;
#X connect 99 0 80 1;
#X connect 99 0 437 0;
#X connect 100 0 81 1;
#X connect 100 0 438 0;
#X connect 101 0 82 1;
#X connect 101 0 439 0;
#X connect 102 0 83 1;
#X connect 102 0 440 0;
#X connect 103 0 84 1;
#X connect 103 0 441 0;
#X connect 104 0 85 1;
#X connect 104 0 442 0;
#X connect 105 0 86 1;
#X connect 105 0 443 0;
#X connect 106 0 92 1;
#X connect 106 0 444 0;
#X connect 107 0 87 1;
#X connect 107 0 445 0;
#X connect 108 0 88 1;
#X connect 108 0 446 0;
#X connect 109 0 89 1;
#X connect 109 0 447 0;
#X connect 110 0 90 1;
#X connect 110 0 448 0;
#X connect 111 0 91 1;
#X connect 111 0 449 0;
#X connect 112 0 207 0;
#X connect 113 0 207 0;
#X connect 114 0 207 0;
#X connect 115 0 207 0;
#X connect 116 0 207 0;
#X connect 117 0 207 0;
#X connect 118 0 207 0;
#X connect 119 0 207 0;
#X connect 120 0 207 0;
#X connect 121 0 207 0;
#X connect 122 0 207 0;
#X connect 123 0 207 0;
#X connect 124 0 207 0;
#X connect 125 0 207 0;
#X connect 126 0 207 0;
#X connect 127 0 207 0;
#X connect 128 0 129 0;
#X connect 129 0 130 0;
#X connect 130 0 131 0;
#X connect 131 0 153 0;
#X connect 131 0 154 0;
#X connect 132 0 135 0;
#X connect 133 0 134 0;
#X connect 134 0 153 0;
#X connect 134 0 154 0;
#X connect 135 0 133 0;
#X connect 136 0 148 0;
#X connect 137 0 138 0;
#X connect 138 0 153 0;
#X connect 138 0 154 0;
#X connect 139 0 149 0;
#X connect 140 0 141 0;
#X connect 141 0 153 0;
#X connect 141 0 154 0;
#X connect 142 0 150 0;
#X connect 143 0 144 0;
#X connect 144 0 153 0;
#X connect 144 0 154 0;
#X connect 145 0 151 0;
#X connect 146 0 147 0;
#X connect 147 0 153 0;
#X connect 147 0 154 0;
#X connect 148 0 137 0;
#X connect 149 0 140 0;
#X connect 150 0 143 0;
#X connect 151 0 146 0;
#X connect 152 0 1 0;
#X connect 157 0 159 0;
#X connect 157 0 167 0;
#X connect 157 0 168 0;
#X connect 157 0 169 0;
#X connect 157 0 194 0;
#X connect 157 0 195 0;
#X connect 157 0 196 0;
#X connect 157 0 197 0;
#X connect 157 0 198 0;
#X connect 157 0 199 0;
#X connect 157 0 200 0;
#X connect 157 0 201 0;
#X connect 157 0 202 0;
#X connect 157 0 203 0;
#X connect 157 0 204 0;
#X connect 157 0 205 0;
#X connect 158 0 160 0;
#X connect 159 0 158 1;
#X connect 159 0 158 0;
#X connect 160 0 96 0;
#X connect 161 0 162 0;
#X connect 162 0 97 0;
#X connect 163 0 164 0;
#X connect 164 0 98 0;
#X connect 165 0 166 0;
#X connect 166 0 99 0;
#X connect 167 0 161 1;
#X connect 167 0 161 0;
#X connect 168 0 163 1;
#X connect 168 0 163 0;
#X connect 169 0 165 1;
#X connect 169 0 165 0;
#X connect 170 0 171 0;
#X connect 171 0 100 0;
#X connect 172 0 173 0;
#X connect 173 0 101 0;
#X connect 174 0 175 0;
#X connect 175 0 102 0;
#X connect 176 0 177 0;
#X connect 177 0 103 0;
#X connect 178 0 179 0;
#X connect 179 0 104 0;
#X connect 180 0 181 0;
#X connect 181 0 105 0;
#X connect 182 0 183 0;
#X connect 183 0 106 0;
#X connect 184 0 185 0;
#X connect 185 0 107 0;
#X connect 186 0 187 0;
#X connect 187 0 108 0;
#X connect 188 0 189 0;
#X connect 189 0 109 0;
#X connect 190 0 191 0;
#X connect 191 0 110 0;
#X connect 192 0 193 0;
#X connect 193 0 111 0;
#X connect 194 0 170 1;
#X connect 194 0 170 0;
#X connect 195 0 172 1;
#X connect 195 0 172 0;
#X connect 196 0 174 1;
#X connect 196 0 174 0;
#X connect 197 0 176 1;
#X connect 197 0 176 0;
#X connect 198 0 178 1;
#X connect 198 0 178 0;
#X connect 199 0 180 1;
#X connect 199 0 180 0;
#X connect 200 0 182 1;
#X connect 200 0 182 0;
#X connect 201 0 184 1;
#X connect 201 0 184 0;
#X connect 202 0 186 1;
#X connect 202 0 186 0;
#X connect 203 0 188 1;
#X connect 203 0 188 0;
#X connect 204 0 190 1;
#X connect 204 0 190 0;
#X connect 205 0 192 1;
#X connect 205 0 192 0;
#X connect 206 0 157 0;
#X connect 208 0 128 0;
#X connect 209 0 225 0;
#X connect 210 0 226 1;
#X connect 210 0 432 0;
#X connect 211 0 210 0;
#X connect 212 0 227 1;
#X connect 212 0 450 0;
#X connect 213 0 212 0;
#X connect 214 0 211 0;
#X connect 214 0 213 0;
#X connect 214 0 219 0;
#X connect 214 0 220 0;
#X connect 214 0 221 0;
#X connect 214 0 222 0;
#X connect 215 0 230 1;
#X connect 216 0 231 1;
#X connect 217 0 232 1;
#X connect 218 0 233 1;
#X connect 219 0 215 0;
#X connect 220 0 216 0;
#X connect 221 0 217 0;
#X connect 222 0 218 0;
#X connect 225 0 214 0;
#X connect 225 1 214 0;
#X connect 225 2 214 0;
#X connect 225 3 214 0;
#X connect 225 4 214 0;
#X connect 225 5 214 0;
#X connect 225 6 214 0;
#X connect 225 7 214 0;
#X connect 225 8 214 0;
#X connect 225 9 214 0;
#X connect 225 10 214 0;
#X connect 225 11 214 0;
#X connect 225 12 214 0;
#X connect 225 13 214 0;
#X connect 225 14 214 0;
#X connect 225 15 214 0;
#X connect 225 16 214 0;
#X connect 225 17 214 0;
#X connect 225 18 214 0;
#X connect 226 0 223 0;
#X connect 227 0 224 0;
#X connect 228 0 209 0;
#X connect 229 0 226 0;
#X connect 229 0 227 0;
#X connect 230 0 239 0;
#X connect 231 0 241 0;
#X connect 232 0 240 0;
#X connect 233 0 242 0;
#X connect 234 0 132 0;
#X connect 235 0 136 0;
#X connect 236 0 139 0;
#X connect 237 0 142 0;
#X connect 238 0 145 0;
#X connect 244 0 245 0;
#X connect 245 0 247 1;
#X connect 246 0 245 0;
#X connect 256 0 260 1;
#X connect 256 0 285 0;
#X connect 257 0 260 2;
#X connect 257 0 285 0;
#X connect 258 0 260 3;
#X connect 258 0 285 0;
#X connect 260 0 282 0;
#X connect 260 0 284 0;
#X connect 261 0 260 4;
#X connect 261 0 285 0;
#X connect 262 0 260 5;
#X connect 262 0 285 0;
#X connect 263 0 260 6;
#X connect 263 0 285 0;
#X connect 264 0 260 7;
#X connect 264 0 285 0;
#X connect 265 0 260 8;
#X connect 265 0 285 0;
#X connect 266 0 260 9;
#X connect 266 0 285 0;
#X connect 267 0 260 10;
#X connect 267 0 285 0;
#X connect 268 0 260 11;
#X connect 268 0 285 0;
#X connect 269 0 260 12;
#X connect 269 0 285 0;
#X connect 270 0 260 13;
#X connect 270 0 285 0;
#X connect 271 0 260 14;
#X connect 271 0 285 0;
#X connect 272 0 260 15;
#X connect 272 0 285 0;
#X connect 273 0 260 16;
#X connect 273 0 285 0;
#X connect 282 0 248 0;
#X connect 285 15 260 0;
#X connect 286 0 302 0;
#X connect 287 0 303 0;
#X connect 288 0 304 0;
#X connect 289 0 305 0;
#X connect 290 0 306 0;
#X connect 291 0 307 0;
#X connect 292 0 308 0;
#X connect 293 0 309 0;
#X connect 294 0 310 0;
#X connect 295 0 311 0;
#X connect 296 0 312 0;
#X connect 297 0 313 0;
#X connect 298 0 314 0;
#X connect 299 0 315 0;
#X connect 300 0 316 0;
#X connect 301 0 317 0;
#X connect 302 0 331 0;
#X connect 303 0 332 0;
#X connect 304 0 333 0;
#X connect 305 0 318 0;
#X connect 306 0 319 0;
#X connect 307 0 320 0;
#X connect 308 0 321 0;
#X connect 309 0 322 0;
#X connect 310 0 323 0;
#X connect 311 0 324 0;
#X connect 312 0 330 0;
#X connect 313 0 325 0;
#X connect 314 0 326 0;
#X connect 315 0 327 0;
#X connect 316 0 328 0;
#X connect 317 0 329 0;
#X connect 318 0 353 0;
#X connect 319 0 354 0;
#X connect 320 0 355 0;
#X connect 321 0 356 0;
#X connect 322 0 357 0;
#X connect 323 0 358 0;
#X connect 324 0 359 0;
#X connect 325 0 361 0;
#X connect 326 0 362 0;
#X connect 327 0 363 0;
#X connect 328 0 364 0;
#X connect 329 0 365 0;
#X connect 330 0 360 0;
#X connect 331 0 350 0;
#X connect 332 0 351 0;
#X connect 333 0 352 0;
#X connect 334 0 331 1;
#X connect 334 0 415 0;
#X connect 335 0 332 1;
#X connect 335 0 416 0;
#X connect 336 0 333 1;
#X connect 336 0 417 0;
#X connect 337 0 318 1;
#X connect 337 0 418 0;
#X connect 338 0 319 1;
#X connect 338 0 419 0;
#X connect 339 0 320 1;
#X connect 339 0 420 0;
#X connect 340 0 321 1;
#X connect 340 0 421 0;
#X connect 341 0 322 1;
#X connect 341 0 422 0;
#X connect 342 0 323 1;
#X connect 342 0 423 0;
#X connect 343 0 324 1;
#X connect 343 0 424 0;
#X connect 344 0 330 1;
#X connect 344 0 425 0;
#X connect 345 0 325 1;
#X connect 345 0 426 0;
#X connect 346 0 326 1;
#X connect 346 0 427 0;
#X connect 347 0 327 1;
#X connect 347 0 428 0;
#X connect 348 0 328 1;
#X connect 348 0 429 0;
#X connect 349 0 329 1;
#X connect 349 0 430 0;
#X connect 350 0 613 0;
#X connect 351 0 613 0;
#X connect 352 0 613 0;
#X connect 353 0 613 0;
#X connect 354 0 613 0;
#X connect 355 0 613 0;
#X connect 356 0 613 0;
#X connect 357 0 613 0;
#X connect 358 0 613 0;
#X connect 359 0 613 0;
#X connect 360 0 613 0;
#X connect 361 0 613 0;
#X connect 362 0 613 0;
#X connect 363 0 613 0;
#X connect 364 0 613 0;
#X connect 365 0 613 0;
#X connect 366 0 368 0;
#X connect 366 0 376 0;
#X connect 366 0 377 0;
#X connect 366 0 378 0;
#X connect 366 0 403 0;
#X connect 366 0 404 0;
#X connect 366 0 405 0;
#X connect 366 0 406 0;
#X connect 366 0 407 0;
#X connect 366 0 408 0;
#X connect 366 0 409 0;
#X connect 366 0 410 0;
#X connect 366 0 411 0;
#X connect 366 0 412 0;
#X connect 366 0 413 0;
#X connect 366 0 414 0;
#X connect 367 0 369 0;
#X connect 368 0 367 1;
#X connect 368 0 367 0;
#X connect 369 0 334 0;
#X connect 370 0 371 0;
#X connect 371 0 335 0;
#X connect 372 0 373 0;
#X connect 373 0 336 0;
#X connect 374 0 375 0;
#X connect 375 0 337 0;
#X connect 376 0 370 1;
#X connect 376 0 370 0;
#X connect 377 0 372 1;
#X connect 377 0 372 0;
#X connect 378 0 374 1;
#X connect 378 0 374 0;
#X connect 379 0 380 0;
#X connect 380 0 338 0;
#X connect 381 0 382 0;
#X connect 382 0 339 0;
#X connect 383 0 384 0;
#X connect 384 0 340 0;
#X connect 385 0 386 0;
#X connect 386 0 341 0;
#X connect 387 0 388 0;
#X connect 388 0 342 0;
#X connect 389 0 390 0;
#X connect 390 0 343 0;
#X connect 391 0 392 0;
#X connect 392 0 344 0;
#X connect 393 0 394 0;
#X connect 394 0 345 0;
#X connect 395 0 396 0;
#X connect 396 0 346 0;
#X connect 397 0 398 0;
#X connect 398 0 347 0;
#X connect 399 0 400 0;
#X connect 400 0 348 0;
#X connect 401 0 402 0;
#X connect 402 0 349 0;
#X connect 403 0 379 1;
#X connect 403 0 379 0;
#X connect 404 0 381 1;
#X connect 404 0 381 0;
#X connect 405 0 383 1;
#X connect 405 0 383 0;
#X connect 406 0 385 1;
#X connect 406 0 385 0;
#X connect 407 0 387 1;
#X connect 407 0 387 0;
#X connect 408 0 389 1;
#X connect 408 0 389 0;
#X connect 409 0 391 1;
#X connect 409 0 391 0;
#X connect 410 0 393 1;
#X connect 410 0 393 0;
#X connect 411 0 395 1;
#X connect 411 0 395 0;
#X connect 412 0 397 1;
#X connect 412 0 397 0;
#X connect 413 0 399 1;
#X connect 413 0 399 0;
#X connect 414 0 401 1;
#X connect 414 0 401 0;
#X connect 431 0 249 0;
#X connect 433 0 431 0;
#X connect 433 0 436 1;
#X connect 433 0 437 1;
#X connect 433 0 438 1;
#X connect 433 0 439 1;
#X connect 433 0 440 1;
#X connect 433 0 441 1;
#X connect 433 0 442 1;
#X connect 433 0 443 1;
#X connect 433 0 444 1;
#X connect 433 0 445 1;
#X connect 433 0 446 1;
#X connect 433 0 447 1;
#X connect 433 0 448 1;
#X connect 433 0 449 1;
#X connect 433 0 434 1;
#X connect 434 0 435 0;
#X connect 436 0 250 0;
#X connect 437 0 251 0;
#X connect 438 0 252 0;
#X connect 439 0 253 0;
#X connect 440 0 254 0;
#X connect 441 0 255 0;
#X connect 442 0 274 0;
#X connect 443 0 275 0;
#X connect 444 0 276 0;
#X connect 445 0 277 0;
#X connect 446 0 278 0;
#X connect 447 0 279 0;
#X connect 448 0 280 0;
#X connect 449 0 281 0;
#X connect 451 0 467 0;
#X connect 452 0 468 0;
#X connect 453 0 469 0;
#X connect 454 0 470 0;
#X connect 455 0 471 0;
#X connect 456 0 472 0;
#X connect 457 0 473 0;
#X connect 458 0 474 0;
#X connect 459 0 475 0;
#X connect 460 0 476 0;
#X connect 461 0 477 0;
#X connect 462 0 478 0;
#X connect 463 0 479 0;
#X connect 464 0 480 0;
#X connect 465 0 481 0;
#X connect 466 0 482 0;
#X connect 467 0 496 0;
#X connect 468 0 497 0;
#X connect 469 0 498 0;
#X connect 470 0 483 0;
#X connect 471 0 484 0;
#X connect 472 0 485 0;
#X connect 473 0 486 0;
#X connect 474 0 487 0;
#X connect 475 0 488 0;
#X connect 476 0 489 0;
#X connect 477 0 495 0;
#X connect 478 0 490 0;
#X connect 479 0 491 0;
#X connect 480 0 492 0;
#X connect 481 0 493 0;
#X connect 482 0 494 0;
#X connect 483 0 518 0;
#X connect 484 0 519 0;
#X connect 485 0 520 0;
#X connect 486 0 521 0;
#X connect 487 0 522 0;
#X connect 488 0 523 0;
#X connect 489 0 524 0;
#X connect 490 0 526 0;
#X connect 491 0 527 0;
#X connect 492 0 528 0;
#X connect 493 0 529 0;
#X connect 494 0 530 0;
#X connect 495 0 525 0;
#X connect 496 0 515 0;
#X connect 497 0 516 0;
#X connect 498 0 517 0;
#X connect 499 0 496 1;
#X connect 499 0 595 0;
#X connect 500 0 497 1;
#X connect 500 0 596 0;
#X connect 501 0 498 1;
#X connect 501 0 598 0;
#X connect 502 0 483 1;
#X connect 502 0 599 0;
#X connect 503 0 484 1;
#X connect 503 0 600 0;
#X connect 504 0 485 1;
#X connect 504 0 601 0;
#X connect 505 0 486 1;
#X connect 505 0 602 0;
#X connect 506 0 487 1;
#X connect 506 0 603 0;
#X connect 507 0 488 1;
#X connect 507 0 604 0;
#X connect 508 0 489 1;
#X connect 508 0 605 0;
#X connect 509 0 495 1;
#X connect 509 0 606 0;
#X connect 510 0 490 1;
#X connect 510 0 607 0;
#X connect 511 0 491 1;
#X connect 511 0 608 0;
#X connect 512 0 492 1;
#X connect 512 0 609 0;
#X connect 513 0 493 1;
#X connect 513 0 610 0;
#X connect 514 0 494 1;
#X connect 514 0 611 0;
#X connect 515 0 615 0;
#X connect 516 0 615 0;
#X connect 517 0 615 0;
#X connect 518 0 615 0;
#X connect 519 0 615 0;
#X connect 520 0 615 0;
#X connect 521 0 615 0;
#X connect 522 0 615 0;
#X connect 523 0 615 0;
#X connect 524 0 615 0;
#X connect 525 0 615 0;
#X connect 526 0 615 0;
#X connect 527 0 615 0;
#X connect 528 0 615 0;
#X connect 529 0 615 0;
#X connect 530 0 615 0;
#X connect 531 0 533 0;
#X connect 531 0 541 0;
#X connect 531 0 542 0;
#X connect 531 0 543 0;
#X connect 531 0 568 0;
#X connect 531 0 569 0;
#X connect 531 0 570 0;
#X connect 531 0 571 0;
#X connect 531 0 572 0;
#X connect 531 0 573 0;
#X connect 531 0 574 0;
#X connect 531 0 575 0;
#X connect 531 0 576 0;
#X connect 531 0 577 0;
#X connect 531 0 578 0;
#X connect 531 0 579 0;
#X connect 532 0 534 0;
#X connect 533 0 532 1;
#X connect 533 0 532 0;
#X connect 534 0 499 0;
#X connect 535 0 536 0;
#X connect 536 0 500 0;
#X connect 537 0 538 0;
#X connect 538 0 501 0;
#X connect 539 0 540 0;
#X connect 540 0 502 0;
#X connect 541 0 535 1;
#X connect 541 0 535 0;
#X connect 542 0 537 1;
#X connect 542 0 537 0;
#X connect 543 0 539 1;
#X connect 543 0 539 0;
#X connect 544 0 545 0;
#X connect 545 0 503 0;
#X connect 546 0 547 0;
#X connect 547 0 504 0;
#X connect 548 0 549 0;
#X connect 549 0 505 0;
#X connect 550 0 551 0;
#X connect 551 0 506 0;
#X connect 552 0 553 0;
#X connect 553 0 507 0;
#X connect 554 0 555 0;
#X connect 555 0 508 0;
#X connect 556 0 557 0;
#X connect 557 0 509 0;
#X connect 558 0 559 0;
#X connect 559 0 510 0;
#X connect 560 0 561 0;
#X connect 561 0 511 0;
#X connect 562 0 563 0;
#X connect 563 0 512 0;
#X connect 564 0 565 0;
#X connect 565 0 513 0;
#X connect 566 0 567 0;
#X connect 567 0 514 0;
#X connect 568 0 544 1;
#X connect 568 0 544 0;
#X connect 569 0 546 1;
#X connect 569 0 546 0;
#X connect 570 0 548 1;
#X connect 570 0 548 0;
#X connect 571 0 550 1;
#X connect 571 0 550 0;
#X connect 572 0 552 1;
#X connect 572 0 552 0;
#X connect 573 0 554 1;
#X connect 573 0 554 0;
#X connect 574 0 556 1;
#X connect 574 0 556 0;
#X connect 575 0 558 1;
#X connect 575 0 558 0;
#X connect 576 0 560 1;
#X connect 576 0 560 0;
#X connect 577 0 562 1;
#X connect 577 0 562 0;
#X connect 578 0 564 1;
#X connect 578 0 564 0;
#X connect 579 0 566 1;
#X connect 579 0 566 0;
#X connect 595 0 580 0;
#X connect 596 0 597 0;
#X connect 598 0 581 0;
#X connect 599 0 582 0;
#X connect 600 0 583 0;
#X connect 601 0 584 0;
#X connect 602 0 585 0;
#X connect 603 0 586 0;
#X connect 604 0 587 0;
#X connect 605 0 588 0;
#X connect 606 0 589 0;
#X connect 607 0 590 0;
#X connect 608 0 591 0;
#X connect 609 0 592 0;
#X connect 610 0 593 0;
#X connect 611 0 594 0;
#X connect 612 0 366 0;
#X connect 614 0 531 0;
#X connect 616 0 595 0;
#X connect 616 0 598 1;
#X connect 616 0 599 1;
#X connect 616 0 600 1;
#X connect 616 0 601 1;
#X connect 616 0 602 1;
#X connect 616 0 603 1;
#X connect 616 0 604 1;
#X connect 616 0 605 1;
#X connect 616 0 606 1;
#X connect 616 0 607 1;
#X connect 616 0 608 1;
#X connect 616 0 609 1;
#X connect 616 0 610 1;
#X connect 616 0 611 1;
#X connect 616 0 596 1;
