#N canvas 459 166 835 701 12;
#X obj 120 249 sel 61 60 62 63 64 65 67 69 71 73 72 74 75 76 77 79 81 83;
#X obj 121 109 r notes;
#X obj 710 94 r encbut;
#X obj 559 268 spigot;
#X floatatom 710 125 5 0 0 0 - - - 0;
#X obj 660 53 loadbang;
#X msg 661 80 0;
#X text 303 206 sound selector;
#X obj 710 154 == 1;
#X obj 560 421 s soundSelectionNotes;
#X obj 159 388 r soundSelectionNotes;
#X obj 72 502 == 66;
#X obj 166 503 == 68;
#X obj 251 501 == 70;
#X obj 165 574 bng 19 250 50 0 empty empty empty 0 -10 0 12 #fcfcfc #000000 #000000;
#X obj 252 571 bng 19 250 50 0 empty empty empty 0 -10 0 12 #fcfcfc #000000 #000000;
#X obj 72 575 bng 19 250 50 0 empty empty empty 0 -10 0 12 #fcfcfc #000000 #000000;
#X obj 72 604 s kNext;
#X obj 165 602 s sNext;
#X obj 252 602 s hNext;
#X obj 72 540 spigot;
#X obj 165 536 spigot;
#X obj 251 534 spigot;
#X msg 160 152 \$2;
#X obj 121 204 spigot;
#X obj 160 177 != 0;
#X connect 0 18 3 0;
#X connect 1 0 24 0;
#X connect 2 0 4 0;
#X connect 3 0 9 0;
#X connect 4 0 8 0;
#X connect 5 0 6 0;
#X connect 6 0 4 0;
#X connect 10 0 11 0;
#X connect 10 0 13 0;
#X connect 10 0 12 0;
#X connect 11 0 20 1;
#X connect 11 0 20 0;
#X connect 12 0 21 1;
#X connect 12 0 21 0;
#X connect 13 0 22 1;
#X connect 13 0 22 0;
#X connect 14 0 18 0;
#X connect 15 0 19 0;
#X connect 16 0 17 0;
#X connect 20 0 16 0;
#X connect 21 0 14 0;
#X connect 22 0 15 0;
#X connect 23 0 25 0;
#X connect 24 0 0 0;
#X connect 25 0 24 1;
