#N canvas 578 37 483 821 12;
#X obj 78 455 spigot;
#X obj 172 380 tgl 25 0 empty empty empty 0 -10 0 12 #ff0400 #000000 #000000 0 1;
#X obj 78 491 bng 19 250 50 0 empty empty empty 0 -10 0 12 #fcfcfc #000000 #000000;
#X obj 218 306 spigot;
#X obj 218 337 bng 19 250 50 0 empty empty empty 0 -10 0 12 #fcfcfc #000000 #000000;
#X floatatom 197 234 5 0 0 0 - - - 0;
#X floatatom 78 240 5 0 0 0 - - - 0;
#X obj 78 305 spigot;
#X obj 78 327 bng 12 250 50 0 empty empty empty 0 -10 0 12 #fcfcfc #000000 #000000;
#X obj 78 207 r ticks;
#X obj 272 622 * -1;
#X floatatom 273 683 5 0 0 0 - - - 0;
#X obj 226 525 moses 1;
#X obj 273 712 s digits;
#X obj 78 265 == \$1;
#X obj 218 267 ==;
#X obj 633 171 bng 19 250 50 0 empty empty empty 0 -10 0 12 #fcfcfc #000000 #000000;
#X floatatom 633 224 5 0 0 0 - - - 0;
#X obj 633 250 == 3;
#X obj 634 285 spigot;
#X obj 634 316 bng 19 250 50 0 empty empty empty 0 -10 0 12 #fcfcfc #000000 #000000;
#X msg 634 347 62;
#X obj 538 171 bng 19 250 50 0 empty empty empty 0 -10 0 12 #fcfcfc #000000 #000000;
#X floatatom 538 224 5 0 0 0 - - - 0;
#X obj 539 285 spigot;
#X obj 539 316 bng 19 250 50 0 empty empty empty 0 -10 0 12 #fcfcfc #000000 #000000;
#X obj 586 171 bng 19 250 50 0 empty empty empty 0 -10 0 12 #fcfcfc #000000 #000000;
#X floatatom 586 224 5 0 0 0 - - - 0;
#X obj 587 285 spigot;
#X obj 587 316 bng 19 250 50 0 empty empty empty 0 -10 0 12 #fcfcfc #000000 #000000;
#X obj 780 170 bng 19 250 50 0 empty empty empty 0 -10 0 12 #fcfcfc #000000 #000000;
#X floatatom 780 223 5 0 0 0 - - - 0;
#X obj 781 284 spigot;
#X obj 781 315 bng 19 250 50 0 empty empty empty 0 -10 0 12 #fcfcfc #000000 #000000;
#X obj 682 171 bng 19 250 50 0 empty empty empty 0 -10 0 12 #fcfcfc #000000 #000000;
#X floatatom 682 224 5 0 0 0 - - - 0;
#X obj 683 285 spigot;
#X obj 683 316 bng 19 250 50 0 empty empty empty 0 -10 0 12 #fcfcfc #000000 #000000;
#X obj 731 170 bng 19 250 50 0 empty empty empty 0 -10 0 12 #fcfcfc #000000 #000000;
#X floatatom 731 223 5 0 0 0 - - - 0;
#X obj 732 284 spigot;
#X obj 732 315 bng 19 250 50 0 empty empty empty 0 -10 0 12 #fcfcfc #000000 #000000;
#X obj 719 134 loadbang;
#X obj 876 169 bng 19 250 50 0 empty empty empty 0 -10 0 12 #fcfcfc #000000 #000000;
#X floatatom 876 222 5 0 0 0 - - - 0;
#X obj 877 283 spigot;
#X obj 877 314 bng 19 250 50 0 empty empty empty 0 -10 0 12 #fcfcfc #000000 #000000;
#X obj 828 169 bng 19 250 50 0 empty empty empty 0 -10 0 12 #fcfcfc #000000 #000000;
#X floatatom 828 222 5 0 0 0 - - - 0;
#X obj 829 283 spigot;
#X obj 829 314 bng 19 250 50 0 empty empty empty 0 -10 0 12 #fcfcfc #000000 #000000;
#X obj 538 250 == 1;
#X obj 586 250 == 2;
#X obj 682 250 == 4;
#X obj 731 249 == 5;
#X obj 780 249 == 6;
#X obj 828 248 == 7;
#X obj 876 248 == 8;
#X msg 539 347 61;
#X msg 587 347 60;
#X msg 683 347 64;
#X msg 732 346 65;
#X msg 781 346 67;
#X msg 829 345 69;
#X msg 877 345 71;
#X obj 272 554 bng 19 250 50 0 empty empty empty 0 -10 0 12 #fcfcfc #000000 #000000;
#X obj 226 554 bng 19 250 50 0 empty empty empty 0 -10 0 12 #fcfcfc #000000 #000000;
#X obj 272 591 f \$1;
#X obj 226 590 f \$1;
#X obj 538 198 f \$1;
#X obj 586 198 f \$1;
#X obj 633 198 f \$1;
#X obj 682 198 f \$1;
#X obj 731 197 f \$1;
#X obj 780 197 f \$1;
#X obj 828 196 f \$1;
#X obj 876 196 f \$1;
#X floatatom 248 234 5 0 0 0 - - - 0;
#X obj 226 478 f \$1;
#X obj 726 397 s key\$1;
#X obj 266 199 r key\$1;
#X obj 312 430 loadbang;
#X msg 312 459 0;
#X obj 78 585 s \$2Wave;
#X obj 226 412 r \$2Load;
#X obj 642 530 bng 19 250 50 0 empty empty empty 0 -10 0 12 #fcfcfc #000000 #000000;
#X floatatom 642 583 5 0 0 0 - - - 0;
#X obj 643 644 spigot;
#X obj 643 675 bng 19 250 50 0 empty empty empty 0 -10 0 12 #fcfcfc #000000 #000000;
#X obj 546 529 bng 19 250 50 0 empty empty empty 0 -10 0 12 #fcfcfc #000000 #000000;
#X floatatom 546 582 5 0 0 0 - - - 0;
#X obj 547 643 spigot;
#X obj 547 674 bng 19 250 50 0 empty empty empty 0 -10 0 12 #fcfcfc #000000 #000000;
#X obj 594 530 bng 19 250 50 0 empty empty empty 0 -10 0 12 #fcfcfc #000000 #000000;
#X floatatom 594 583 5 0 0 0 - - - 0;
#X obj 595 644 spigot;
#X obj 595 675 bng 19 250 50 0 empty empty empty 0 -10 0 12 #fcfcfc #000000 #000000;
#X obj 784 530 bng 19 250 50 0 empty empty empty 0 -10 0 12 #fcfcfc #000000 #000000;
#X floatatom 784 583 5 0 0 0 - - - 0;
#X obj 785 644 spigot;
#X obj 785 675 bng 19 250 50 0 empty empty empty 0 -10 0 12 #fcfcfc #000000 #000000;
#X obj 689 530 bng 19 250 50 0 empty empty empty 0 -10 0 12 #fcfcfc #000000 #000000;
#X floatatom 689 583 5 0 0 0 - - - 0;
#X obj 690 644 spigot;
#X obj 690 675 bng 19 250 50 0 empty empty empty 0 -10 0 12 #fcfcfc #000000 #000000;
#X obj 736 530 bng 19 250 50 0 empty empty empty 0 -10 0 12 #fcfcfc #000000 #000000;
#X floatatom 736 583 5 0 0 0 - - - 0;
#X obj 737 644 spigot;
#X obj 737 675 bng 19 250 50 0 empty empty empty 0 -10 0 12 #fcfcfc #000000 #000000;
#X obj 712 492 loadbang;
#X obj 878 530 bng 19 250 50 0 empty empty empty 0 -10 0 12 #fcfcfc #000000 #000000;
#X floatatom 878 583 5 0 0 0 - - - 0;
#X obj 879 644 spigot;
#X obj 879 675 bng 19 250 50 0 empty empty empty 0 -10 0 12 #fcfcfc #000000 #000000;
#X obj 831 530 bng 19 250 50 0 empty empty empty 0 -10 0 12 #fcfcfc #000000 #000000;
#X floatatom 831 583 5 0 0 0 - - - 0;
#X obj 832 644 spigot;
#X obj 832 675 bng 19 250 50 0 empty empty empty 0 -10 0 12 #fcfcfc #000000 #000000;
#X obj 546 556 f \$1;
#X obj 594 557 f \$1;
#X obj 642 557 f \$1;
#X obj 689 557 f \$1;
#X obj 736 557 f \$1;
#X obj 784 557 f \$1;
#X obj 831 557 f \$1;
#X obj 878 557 f \$1;
#X obj 727 749 s key\$1;
#X obj 546 608 == 9;
#X obj 594 609 == 10;
#X obj 642 609 == 11;
#X obj 689 609 == 12;
#X obj 736 609 == 13;
#X obj 783 608 == 14;
#X obj 831 609 == 15;
#X obj 878 609 == 16;
#X msg 547 705 73;
#X msg 595 706 72;
#X msg 643 706 74;
#X msg 690 706 76;
#X msg 737 706 77;
#X msg 785 706 79;
#X msg 832 706 81;
#X msg 879 706 83;
#X msg 182 116 \$1;
#X msg 221 116 \$2;
#X obj 182 193 spigot;
#X obj 221 141 != 0;
#X text 172 36 step track;
#X text 550 90 1 - 8;
#X text 554 480 9 - 16;
#X text 584 30 initialize which key toggles which step;
#X obj 181 69 r \$2Toggles;
#X connect 0 0 2 0;
#X connect 1 0 0 1;
#X connect 1 0 78 0;
#X connect 2 0 83 0;
#X connect 3 0 4 0;
#X connect 4 0 1 0;
#X connect 5 0 15 0;
#X connect 6 0 14 0;
#X connect 7 0 8 0;
#X connect 8 0 0 0;
#X connect 9 0 6 0;
#X connect 10 0 11 0;
#X connect 11 0 13 0;
#X connect 12 0 66 0;
#X connect 12 1 65 0;
#X connect 14 0 7 1;
#X connect 14 0 7 0;
#X connect 15 0 3 1;
#X connect 15 0 3 0;
#X connect 16 0 71 0;
#X connect 17 0 18 0;
#X connect 18 0 19 1;
#X connect 18 0 19 0;
#X connect 19 0 20 0;
#X connect 20 0 21 0;
#X connect 21 0 79 0;
#X connect 22 0 69 0;
#X connect 23 0 51 0;
#X connect 24 0 25 0;
#X connect 25 0 58 0;
#X connect 26 0 70 0;
#X connect 27 0 52 0;
#X connect 28 0 29 0;
#X connect 29 0 59 0;
#X connect 30 0 74 0;
#X connect 31 0 55 0;
#X connect 32 0 33 0;
#X connect 33 0 62 0;
#X connect 34 0 72 0;
#X connect 35 0 53 0;
#X connect 36 0 37 0;
#X connect 37 0 60 0;
#X connect 38 0 73 0;
#X connect 39 0 54 0;
#X connect 40 0 41 0;
#X connect 41 0 61 0;
#X connect 42 0 43 0;
#X connect 42 0 47 0;
#X connect 42 0 30 0;
#X connect 42 0 38 0;
#X connect 42 0 34 0;
#X connect 42 0 16 0;
#X connect 42 0 26 0;
#X connect 42 0 22 0;
#X connect 43 0 76 0;
#X connect 44 0 57 0;
#X connect 45 0 46 0;
#X connect 46 0 64 0;
#X connect 47 0 75 0;
#X connect 48 0 56 0;
#X connect 49 0 50 0;
#X connect 50 0 63 0;
#X connect 51 0 24 1;
#X connect 51 0 24 0;
#X connect 52 0 28 1;
#X connect 52 0 28 0;
#X connect 53 0 36 1;
#X connect 53 0 36 0;
#X connect 54 0 40 1;
#X connect 54 0 40 0;
#X connect 55 0 32 1;
#X connect 55 0 32 0;
#X connect 56 0 49 1;
#X connect 56 0 49 0;
#X connect 57 0 45 1;
#X connect 57 0 45 0;
#X connect 58 0 79 0;
#X connect 59 0 79 0;
#X connect 60 0 79 0;
#X connect 61 0 79 0;
#X connect 62 0 79 0;
#X connect 63 0 79 0;
#X connect 64 0 79 0;
#X connect 65 0 67 0;
#X connect 66 0 68 0;
#X connect 67 0 10 0;
#X connect 68 0 11 0;
#X connect 69 0 23 0;
#X connect 70 0 27 0;
#X connect 71 0 17 0;
#X connect 72 0 35 0;
#X connect 73 0 39 0;
#X connect 74 0 31 0;
#X connect 75 0 48 0;
#X connect 76 0 44 0;
#X connect 77 0 15 1;
#X connect 78 0 12 0;
#X connect 80 0 77 0;
#X connect 81 0 82 0;
#X connect 82 0 78 1;
#X connect 84 0 78 0;
#X connect 85 0 120 0;
#X connect 86 0 129 0;
#X connect 87 0 88 0;
#X connect 88 0 137 0;
#X connect 89 0 118 0;
#X connect 90 0 127 0;
#X connect 91 0 92 0;
#X connect 92 0 135 0;
#X connect 93 0 119 0;
#X connect 94 0 128 0;
#X connect 95 0 96 0;
#X connect 96 0 136 0;
#X connect 97 0 123 0;
#X connect 98 0 132 0;
#X connect 99 0 100 0;
#X connect 100 0 140 0;
#X connect 101 0 121 0;
#X connect 102 0 130 0;
#X connect 103 0 104 0;
#X connect 104 0 138 0;
#X connect 105 0 122 0;
#X connect 106 0 131 0;
#X connect 107 0 108 0;
#X connect 108 0 139 0;
#X connect 109 0 110 0;
#X connect 109 0 114 0;
#X connect 109 0 97 0;
#X connect 109 0 105 0;
#X connect 109 0 101 0;
#X connect 109 0 85 0;
#X connect 109 0 93 0;
#X connect 109 0 89 0;
#X connect 110 0 125 0;
#X connect 111 0 134 0;
#X connect 112 0 113 0;
#X connect 113 0 142 0;
#X connect 114 0 124 0;
#X connect 115 0 133 0;
#X connect 116 0 117 0;
#X connect 117 0 141 0;
#X connect 118 0 90 0;
#X connect 119 0 94 0;
#X connect 120 0 86 0;
#X connect 121 0 102 0;
#X connect 122 0 106 0;
#X connect 123 0 98 0;
#X connect 124 0 115 0;
#X connect 125 0 111 0;
#X connect 127 0 91 1;
#X connect 127 0 91 0;
#X connect 128 0 95 1;
#X connect 128 0 95 0;
#X connect 129 0 87 1;
#X connect 129 0 87 0;
#X connect 130 0 103 1;
#X connect 130 0 103 0;
#X connect 131 0 107 1;
#X connect 131 0 107 0;
#X connect 132 0 99 1;
#X connect 132 0 99 0;
#X connect 133 0 116 1;
#X connect 133 0 116 0;
#X connect 134 0 112 1;
#X connect 134 0 112 0;
#X connect 135 0 126 0;
#X connect 136 0 126 0;
#X connect 137 0 126 0;
#X connect 138 0 126 0;
#X connect 139 0 126 0;
#X connect 140 0 126 0;
#X connect 141 0 126 0;
#X connect 142 0 126 0;
#X connect 143 0 145 0;
#X connect 144 0 146 0;
#X connect 145 0 5 0;
#X connect 146 0 145 1;
#X connect 151 0 144 0;
#X connect 151 0 143 0;
