#N canvas 133 184 1292 669 12;
#X obj 76 318 spigot;
#X obj 139 244 tgl 25 0 empty empty empty 0 -10 0 12 #ff0400 #000000 #000000 0 1;
#X obj 76 354 bng 19 250 50 0 empty empty empty 0 -10 0 12 #fcfcfc #000000 #000000;
#X obj 185 170 spigot;
#X obj 185 201 bng 19 250 50 0 empty empty empty 0 -10 0 12 #fcfcfc #000000 #000000;
#X floatatom 164 98 5 0 0 0 - - - 0;
#X floatatom 76 101 5 0 0 0 - - - 0;
#X obj 76 168 spigot;
#X obj 76 190 bng 12 250 50 0 empty empty empty 0 -10 0 12 #fcfcfc #000000 #000000;
#X obj 76 68 r ticks;
#X obj 239 486 * -1;
#X floatatom 240 547 5 0 0 0 - - - 0;
#X obj 193 389 moses 1;
#X obj 240 576 s digits;
#X obj 76 126 == \$1;
#X obj 518 705 == 73;
#X obj 565 706 == 72;
#X obj 608 707 == 74;
#X obj 652 705 == 76;
#X obj 697 705 == 77;
#X obj 740 704 == 79;
#X obj 783 705 == 81;
#X obj 827 704 == 83;
#X obj 518 671 == 61;
#X obj 565 672 == 60;
#X obj 608 673 == 62;
#X obj 652 671 == 64;
#X obj 697 671 == 65;
#X obj 740 670 == 67;
#X obj 783 671 == 69;
#X obj 827 670 == 71;
#X obj 185 131 ==;
#X obj 577 194 bng 19 250 50 0 empty empty empty 0 -10 0 12 #fcfcfc #000000 #000000;
#X floatatom 577 247 5 0 0 0 - - - 0;
#X obj 577 273 == 3;
#X obj 578 308 spigot;
#X obj 578 339 bng 19 250 50 0 empty empty empty 0 -10 0 12 #fcfcfc #000000 #000000;
#X msg 578 370 62;
#X obj 439 194 bng 19 250 50 0 empty empty empty 0 -10 0 12 #fcfcfc #000000 #000000;
#X floatatom 439 247 5 0 0 0 - - - 0;
#X obj 440 308 spigot;
#X obj 440 339 bng 19 250 50 0 empty empty empty 0 -10 0 12 #fcfcfc #000000 #000000;
#X obj 508 194 bng 19 250 50 0 empty empty empty 0 -10 0 12 #fcfcfc #000000 #000000;
#X floatatom 508 247 5 0 0 0 - - - 0;
#X obj 509 308 spigot;
#X obj 509 339 bng 19 250 50 0 empty empty empty 0 -10 0 12 #fcfcfc #000000 #000000;
#X obj 782 194 bng 19 250 50 0 empty empty empty 0 -10 0 12 #fcfcfc #000000 #000000;
#X floatatom 782 247 5 0 0 0 - - - 0;
#X obj 783 308 spigot;
#X obj 783 339 bng 19 250 50 0 empty empty empty 0 -10 0 12 #fcfcfc #000000 #000000;
#X obj 645 194 bng 19 250 50 0 empty empty empty 0 -10 0 12 #fcfcfc #000000 #000000;
#X floatatom 645 247 5 0 0 0 - - - 0;
#X obj 646 308 spigot;
#X obj 646 339 bng 19 250 50 0 empty empty empty 0 -10 0 12 #fcfcfc #000000 #000000;
#X obj 713 194 bng 19 250 50 0 empty empty empty 0 -10 0 12 #fcfcfc #000000 #000000;
#X floatatom 713 247 5 0 0 0 - - - 0;
#X obj 714 308 spigot;
#X obj 714 339 bng 19 250 50 0 empty empty empty 0 -10 0 12 #fcfcfc #000000 #000000;
#X obj 664 105 loadbang;
#X obj 918 194 bng 19 250 50 0 empty empty empty 0 -10 0 12 #fcfcfc #000000 #000000;
#X floatatom 918 247 5 0 0 0 - - - 0;
#X obj 919 308 spigot;
#X obj 919 339 bng 19 250 50 0 empty empty empty 0 -10 0 12 #fcfcfc #000000 #000000;
#X obj 850 194 bng 19 250 50 0 empty empty empty 0 -10 0 12 #fcfcfc #000000 #000000;
#X floatatom 850 247 5 0 0 0 - - - 0;
#X obj 851 308 spigot;
#X obj 851 339 bng 19 250 50 0 empty empty empty 0 -10 0 12 #fcfcfc #000000 #000000;
#X obj 439 273 == 1;
#X obj 508 273 == 2;
#X obj 645 273 == 4;
#X obj 713 273 == 5;
#X obj 782 273 == 6;
#X obj 850 273 == 7;
#X obj 918 273 == 8;
#X msg 440 370 61;
#X msg 509 370 60;
#X msg 646 370 64;
#X msg 714 370 65;
#X msg 783 370 67;
#X msg 851 370 69;
#X msg 919 370 71;
#X text 95 -74 track;
#X obj 239 418 bng 19 250 50 0 empty empty empty 0 -10 0 12 #fcfcfc #000000 #000000;
#X obj 193 418 bng 19 250 50 0 empty empty empty 0 -10 0 12 #fcfcfc #000000 #000000;
#X obj 239 455 f \$1;
#X obj 193 454 f \$1;
#X obj 439 221 f \$1;
#X obj 508 221 f \$1;
#X obj 577 221 f \$1;
#X obj 645 221 f \$1;
#X obj 713 221 f \$1;
#X obj 782 221 f \$1;
#X obj 850 221 f \$1;
#X obj 918 221 f \$1;
#X text 628 66 key router;
#X floatatom 215 98 5 0 0 0 - - - 0;
#X obj 193 342 f \$1;
#X obj 685 472 s key\$1;
#X obj 215 69 r key\$1;
#X obj 458 110 inlet;
#X obj 279 294 loadbang;
#X msg 279 323 0;
#X obj 324 109 bng 19 250 50 0 empty empty empty 0 -10 0 12 #fcfcfc #000000 #000000;
#X obj 324 138 symbol \$2;
#X obj 324 168 print;
#X obj 76 448 s \$2Wave;
#X obj 149 -33 r \$2Trigs;
#X obj 193 262 r \$2Load;
#X obj 1137 195 bng 19 250 50 0 empty empty empty 0 -10 0 12 #fcfcfc #000000 #000000;
#X floatatom 1137 248 5 0 0 0 - - - 0;
#X obj 1138 309 spigot;
#X obj 1138 340 bng 19 250 50 0 empty empty empty 0 -10 0 12 #fcfcfc #000000 #000000;
#X obj 999 195 bng 19 250 50 0 empty empty empty 0 -10 0 12 #fcfcfc #000000 #000000;
#X floatatom 999 248 5 0 0 0 - - - 0;
#X obj 1000 309 spigot;
#X obj 1000 340 bng 19 250 50 0 empty empty empty 0 -10 0 12 #fcfcfc #000000 #000000;
#X obj 1068 195 bng 19 250 50 0 empty empty empty 0 -10 0 12 #fcfcfc #000000 #000000;
#X floatatom 1068 248 5 0 0 0 - - - 0;
#X obj 1069 309 spigot;
#X obj 1069 340 bng 19 250 50 0 empty empty empty 0 -10 0 12 #fcfcfc #000000 #000000;
#X obj 1342 195 bng 19 250 50 0 empty empty empty 0 -10 0 12 #fcfcfc #000000 #000000;
#X floatatom 1342 248 5 0 0 0 - - - 0;
#X obj 1343 309 spigot;
#X obj 1343 340 bng 19 250 50 0 empty empty empty 0 -10 0 12 #fcfcfc #000000 #000000;
#X obj 1205 195 bng 19 250 50 0 empty empty empty 0 -10 0 12 #fcfcfc #000000 #000000;
#X floatatom 1205 248 5 0 0 0 - - - 0;
#X obj 1206 309 spigot;
#X obj 1206 340 bng 19 250 50 0 empty empty empty 0 -10 0 12 #fcfcfc #000000 #000000;
#X obj 1273 195 bng 19 250 50 0 empty empty empty 0 -10 0 12 #fcfcfc #000000 #000000;
#X floatatom 1273 248 5 0 0 0 - - - 0;
#X obj 1274 309 spigot;
#X obj 1274 340 bng 19 250 50 0 empty empty empty 0 -10 0 12 #fcfcfc #000000 #000000;
#X obj 1224 106 loadbang;
#X obj 1478 195 bng 19 250 50 0 empty empty empty 0 -10 0 12 #fcfcfc #000000 #000000;
#X floatatom 1478 248 5 0 0 0 - - - 0;
#X obj 1479 309 spigot;
#X obj 1479 340 bng 19 250 50 0 empty empty empty 0 -10 0 12 #fcfcfc #000000 #000000;
#X obj 1410 195 bng 19 250 50 0 empty empty empty 0 -10 0 12 #fcfcfc #000000 #000000;
#X floatatom 1410 248 5 0 0 0 - - - 0;
#X obj 1411 309 spigot;
#X obj 1411 340 bng 19 250 50 0 empty empty empty 0 -10 0 12 #fcfcfc #000000 #000000;
#X obj 999 222 f \$1;
#X obj 1068 222 f \$1;
#X obj 1137 222 f \$1;
#X obj 1205 222 f \$1;
#X obj 1273 222 f \$1;
#X obj 1342 222 f \$1;
#X obj 1410 222 f \$1;
#X obj 1478 222 f \$1;
#X obj 1245 473 s key\$1;
#X obj 1018 111 inlet;
#X obj 999 274 == 9;
#X obj 1068 274 == 10;
#X obj 1137 274 == 11;
#X obj 1205 274 == 12;
#X obj 1273 274 == 13;
#X obj 1341 273 == 14;
#X obj 1410 274 == 15;
#X obj 1478 274 == 16;
#X msg 1000 371 73;
#X msg 1069 371 72;
#X msg 1138 371 74;
#X msg 1206 371 76;
#X msg 1274 371 77;
#X msg 1343 371 79;
#X msg 1411 371 81;
#X msg 1479 371 83;
#X msg 149 -2 \$1;
#X msg 188 -2 \$2;
#X obj 149 50 spigot;
#X obj 188 23 != 0;
#X connect 0 0 2 0;
#X connect 1 0 0 1;
#X connect 1 0 96 0;
#X connect 2 0 105 0;
#X connect 3 0 4 0;
#X connect 4 0 1 0;
#X connect 5 0 31 0;
#X connect 6 0 14 0;
#X connect 7 0 8 0;
#X connect 8 0 0 0;
#X connect 9 0 6 0;
#X connect 10 0 11 0;
#X connect 11 0 13 0;
#X connect 12 0 83 0;
#X connect 12 1 82 0;
#X connect 14 0 7 1;
#X connect 14 0 7 0;
#X connect 31 0 3 1;
#X connect 31 0 3 0;
#X connect 32 0 88 0;
#X connect 33 0 34 0;
#X connect 34 0 35 1;
#X connect 34 0 35 0;
#X connect 35 0 36 0;
#X connect 36 0 37 0;
#X connect 37 0 97 0;
#X connect 38 0 86 0;
#X connect 39 0 67 0;
#X connect 40 0 41 0;
#X connect 41 0 74 0;
#X connect 42 0 87 0;
#X connect 43 0 68 0;
#X connect 44 0 45 0;
#X connect 45 0 75 0;
#X connect 46 0 91 0;
#X connect 47 0 71 0;
#X connect 48 0 49 0;
#X connect 49 0 78 0;
#X connect 50 0 89 0;
#X connect 51 0 69 0;
#X connect 52 0 53 0;
#X connect 53 0 76 0;
#X connect 54 0 90 0;
#X connect 55 0 70 0;
#X connect 56 0 57 0;
#X connect 57 0 77 0;
#X connect 58 0 59 0;
#X connect 58 0 63 0;
#X connect 58 0 46 0;
#X connect 58 0 54 0;
#X connect 58 0 50 0;
#X connect 58 0 32 0;
#X connect 58 0 42 0;
#X connect 58 0 38 0;
#X connect 59 0 93 0;
#X connect 60 0 73 0;
#X connect 61 0 62 0;
#X connect 62 0 80 0;
#X connect 63 0 92 0;
#X connect 64 0 72 0;
#X connect 65 0 66 0;
#X connect 66 0 79 0;
#X connect 67 0 40 1;
#X connect 67 0 40 0;
#X connect 68 0 44 1;
#X connect 68 0 44 0;
#X connect 69 0 52 1;
#X connect 69 0 52 0;
#X connect 70 0 56 1;
#X connect 70 0 56 0;
#X connect 71 0 48 1;
#X connect 71 0 48 0;
#X connect 72 0 65 1;
#X connect 72 0 65 0;
#X connect 73 0 61 1;
#X connect 73 0 61 0;
#X connect 74 0 97 0;
#X connect 75 0 97 0;
#X connect 76 0 97 0;
#X connect 77 0 97 0;
#X connect 78 0 97 0;
#X connect 79 0 97 0;
#X connect 80 0 97 0;
#X connect 82 0 84 0;
#X connect 83 0 85 0;
#X connect 84 0 10 0;
#X connect 85 0 11 0;
#X connect 86 0 39 0;
#X connect 87 0 43 0;
#X connect 88 0 33 0;
#X connect 89 0 51 0;
#X connect 90 0 55 0;
#X connect 91 0 47 0;
#X connect 92 0 64 0;
#X connect 93 0 60 0;
#X connect 95 0 31 1;
#X connect 96 0 12 0;
#X connect 98 0 95 0;
#X connect 99 0 38 0;
#X connect 99 0 42 0;
#X connect 99 0 32 0;
#X connect 99 0 50 0;
#X connect 100 0 101 0;
#X connect 101 0 96 1;
#X connect 102 0 103 0;
#X connect 103 0 104 0;
#X connect 106 0 167 0;
#X connect 106 0 168 0;
#X connect 107 0 96 0;
#X connect 108 0 143 0;
#X connect 109 0 153 0;
#X connect 110 0 111 0;
#X connect 111 0 161 0;
#X connect 112 0 141 0;
#X connect 113 0 151 0;
#X connect 114 0 115 0;
#X connect 115 0 159 0;
#X connect 116 0 142 0;
#X connect 117 0 152 0;
#X connect 118 0 119 0;
#X connect 119 0 160 0;
#X connect 120 0 146 0;
#X connect 121 0 156 0;
#X connect 122 0 123 0;
#X connect 123 0 164 0;
#X connect 124 0 144 0;
#X connect 125 0 154 0;
#X connect 126 0 127 0;
#X connect 127 0 162 0;
#X connect 128 0 145 0;
#X connect 129 0 155 0;
#X connect 130 0 131 0;
#X connect 131 0 163 0;
#X connect 132 0 133 0;
#X connect 132 0 137 0;
#X connect 132 0 120 0;
#X connect 132 0 128 0;
#X connect 132 0 124 0;
#X connect 132 0 108 0;
#X connect 132 0 116 0;
#X connect 132 0 112 0;
#X connect 133 0 148 0;
#X connect 134 0 158 0;
#X connect 135 0 136 0;
#X connect 136 0 166 0;
#X connect 137 0 147 0;
#X connect 138 0 157 0;
#X connect 139 0 140 0;
#X connect 140 0 165 0;
#X connect 141 0 113 0;
#X connect 142 0 117 0;
#X connect 143 0 109 0;
#X connect 144 0 125 0;
#X connect 145 0 129 0;
#X connect 146 0 121 0;
#X connect 147 0 138 0;
#X connect 148 0 134 0;
#X connect 150 0 112 0;
#X connect 150 0 116 0;
#X connect 150 0 108 0;
#X connect 150 0 124 0;
#X connect 151 0 114 1;
#X connect 151 0 114 0;
#X connect 152 0 118 1;
#X connect 152 0 118 0;
#X connect 153 0 110 1;
#X connect 153 0 110 0;
#X connect 154 0 126 1;
#X connect 154 0 126 0;
#X connect 155 0 130 1;
#X connect 155 0 130 0;
#X connect 156 0 122 1;
#X connect 156 0 122 0;
#X connect 157 0 139 1;
#X connect 157 0 139 0;
#X connect 158 0 135 1;
#X connect 158 0 135 0;
#X connect 159 0 149 0;
#X connect 160 0 149 0;
#X connect 161 0 149 0;
#X connect 162 0 149 0;
#X connect 163 0 149 0;
#X connect 164 0 149 0;
#X connect 165 0 149 0;
#X connect 166 0 149 0;
#X connect 167 0 169 0;
#X connect 168 0 170 0;
#X connect 169 0 5 0;
#X connect 170 0 169 1;
