#N canvas 238 103 1199 823 12;
#X obj 476 728 vsl 14 162 0.01 1 1 1 empty empty empty 0 -9 0 12 #faff00 #000000 #000000 14914 1;
#X obj 480 1265 s params;
#X obj 528 726 vsl 14 162 0 1 0 0 empty empty empty 0 -9 0 12 #faff00 #000000 #000000 0 1;
#X obj 582 727 vsl 14 162 0 1 0 0 empty empty empty 0 -9 0 12 #faff00 #000000 #000000 0 1;
#X obj 634 725 vsl 14 162 0 1 0 0 empty empty empty 0 -9 0 12 #faff00 #000000 #000000 0 1;
#X obj 695 725 vsl 14 162 0 1 0 0 empty empty empty 0 -9 0 12 #faff00 #000000 #000000 0 1;
#X obj 696 1269 s params;
#X obj 746 724 vsl 14 162 0 1 0 0 empty empty empty 0 -9 0 12 #faff00 #000000 #000000 0 1;
#X obj 801 725 vsl 14 162 0 1 0 0 empty empty empty 0 -9 0 12 #faff00 #000000 #000000 0 1;
#X obj 853 723 vsl 14 162 0 1 0 0 empty empty empty 0 -9 0 12 #faff00 #000000 #000000 0 1;
#X text 548 729 fil;
#X text 496 728 env;
#X text 443 726 tun;
#X obj 639 165 r notes;
#X obj 595 533 spigot;
#X obj 694 531 spigot;
#X obj 497 528 sel 1;
#X obj 786 519 sel 1;
#X obj 914 575 bng 19 250 50 0 empty empty empty 0 -10 0 12 #fcfcfc #000000 #000000;
#X obj 201 624 bng 19 250 50 0 empty empty empty 0 -10 0 12 #fcfcfc #000000 #000000;
#X obj 193 200 loadbang;
#X text 604 727 drv;
#X obj 610 581 bng 19 250 50 0 empty empty empty 0 -10 0 12 #fcfcfc #000000 #000000;
#X obj 476 621 unpack f f f f, f 23;
#X obj 187 339 catch~ outputL;
#X obj 308 338 catch~ outputR;
#X obj 187 362 clip~ -1 1;
#X obj 308 364 clip~ -1 1;
#X obj 639 254 expr if($f1 == $f3 \, $f2 \, -1) \;;
#X obj 639 382 expr if($f1 == 1 \, 1 \, $f1) \;;
#X obj 719 568 bng 19 250 50 0 empty empty empty 0 -10 0 12 #fcfcfc #000000 #000000;
#X obj 639 341 spigot;
#X obj 678 312 != -1;
#X obj 639 282 t f f, f 6;
#X text 142 172 init value (note for kick edit);
#X obj 748 159 sel k s h p t a, f 28;
#X msg 748 184 66;
#X msg 780 184 68;
#X msg 812 183 70;
#X msg 844 183 78;
#X msg 876 183 80;
#X msg 908 183 82;
#X obj 748 48 loadbang;
#X obj 666 76 bng 19 250 50 0 empty empty empty 0 -10 0 12 #fcfcfc #000000 #000000;
#X obj 748 94 symbol \$2;
#X obj 627 459 r \$2Knobs;
#X obj 695 619 unpack f f f f, f 23;
#X obj 2255 1197 *~;
#X obj 2239 1335 *~;
#X obj 2217 956 bng 19 250 50 0 empty empty empty 0 -10 0 12 #fcfcfc #000000 #000000;
#X msg 2217 1040 1;
#X msg 2256 1040 0;
#X obj 2256 1113 adsr-1p 1 0 0 200 50 2;
#X floatatom 2262 374 5 0 0 0 - - - 0;
#X floatatom 2393 1065 5 0 0 0 - - - 0;
#X floatatom 2393 906 5 0 0 0 - - - 0;
#X text 1263 328 sample play;
#X text 2384 845 envelope;
#X text 2209 284 trigger;
#X text 1988 844 filter;
#X floatatom 1993 900 5 0 0 0 - - - 0;
#X floatatom 1967 995 5 0 0 0 - - - 0;
#X obj 1967 941 * 5000;
#X obj 1967 967 - 50;
#X floatatom 2393 982 5 0 0 0 - - - 0;
#X obj 2393 956 + 1;
#X obj 2393 1008 pow 2;
#X obj 2393 930 * 32;
#X obj 1985 1140 bob~ 1;
#X floatatom 2024 996 5 0 0 0 - - - 0;
#X obj 2024 967 expr (2 - $f1);
#X obj 2024 940 * 2;
#X floatatom 1319 635 5 0 0 0 - - - 0;
#X obj 1906 814 hsl 162 19 0 1 0 0 empty empty empty -2 -10 0 12 #fcfcfc #000000 #000000 0 1;
#X obj 1839 670 hsl 360 19 0 14584 0 0 empty empty empty -2 -10 0 12 #fcfcfc #000000 #000000 0 1;
#X obj -218 565 expr 44100 / $f1;
#X floatatom -74 583 5 0 0 0 - - - 0;
#X obj -216 684 phasor~;
#X obj -216 755 *~;
#X obj -181 727 r sampleSize;
#X floatatom -92 666 5 0 0 0 - - - 0;
#X obj -92 633 *;
#X obj -277 623 bng 19 250 50 0 empty empty empty 0 -10 0 12 #fcfcfc #000000 #000000;
#X msg -277 665 0;
#X msg 1401 652 range 0 \$1;
#X obj 1626 331 bng 19 250 50 0 empty empty empty 0 -10 0 12 #fcfcfc #000000 #000000;
#X obj 1525 508 f;
#X obj 1526 587 pack f f f;
#X obj 1559 535 r end;
#X obj 1805 420 r end;
#X obj 1319 686 s end;
#X obj 1836 696 s start;
#X obj 1543 474 r start;
#X msg 1526 615 \$1 \, \$2 \$3;
#X obj 1527 786 vline~;
#X floatatom 1627 480 5 0 0 0 - - - 0;
#X obj 1569 695 r start;
#X msg 1569 718 \$1 100;
#X obj 1626 447 expr abs($f2 - $f1) / 44.1;
#X obj 1626 521 / 1;
#X obj 1827 354 vsl 19 45 0.5 2 0 0 empty empty empty 0 -9 0 12 #fcfcfc #000000 #000000 0 1;
#X floatatom 1884 450 5 0 0 0 - - - 0;
#X floatatom 1643 407 5 0 0 0 - - - 0;
#X obj 2499 1632 throw~ outputL;
#X obj 2627 1633 throw~ outputR;
#X obj 1792 1120 *~ 1;
#X obj 2705 1115 vsl 19 162 0.5 1.5 1 0 empty empty empty 0 -9 0 12 #fcfcfc #000000 #000000 0 1;
#X obj 2571 1456 *~ 1;
#X floatatom 2709 1423 5 0 0 0 - - - 0;
#X floatatom 2711 1498 5 0 0 0 - - - 0;
#X obj 1986 1247 *~ 1;
#X obj 2710 1460 expr abs(1.25 - sqrt($f1)) + 0.5;
#X obj 1792 1055 clip~ -1 1;
#X floatatom 1894 1102 5 0 0 0 - - - 0;
#X floatatom 1893 973 5 0 0 0 - - - 0;
#X floatatom 2025 1060 5 0 0 0 - - - 0;
#X obj 1821 903 expr 1 - $f1;
#X obj 1893 943 / 2;
#X obj 1894 1002 + 1;
#X obj 2705 1083 + 0.5;
#X obj 2574 1569 *~ 1;
#X obj 2572 1498 clip~ -0.9 0.9;
#X obj 2025 1028 / 3;
#X obj 2394 1036 + 40;
#X obj 2211 314 r \$2Play;
#X msg 193 233 68 0;
#X obj 2572 260 r \$2Play;
#X obj 2573 300 bng 19 250 50 0 empty empty empty 0 -10 0 12 #fcfcfc #000000 #000000;
#X obj 1527 926 tabread4~ \$2Audio;
#X obj 1371 437 symbol \$2Audio;
#X obj 1267 401 r \$2Sample;
#X obj 1318 495 pack s s;
#X obj 1319 603 soundfiler;
#X msg 1318 545 read -resize \$1 \$2;
#X obj 537 916 s \$2env, f 5;
#X obj 643 917 s \$2drv, f 5;
#X obj 1255 608 print A;
#X obj 2060 853 r \$2fil;
#X obj 2391 878 r \$2env;
#X obj 2706 1054 r \$2drv;
#X obj 1477 345 r \$2tun;
#X obj 538 460 != 0;
#X obj 751 457 == 0;
#X obj 477 1176 pack f f f f, f 23;
#X obj 696 1177 pack f f f f, f 23;
#X obj 914 1014 bng 19 250 50 0 empty empty empty 0 -10 0 12 #fcfcfc #000000 #000000;
#X obj 529 1231 bng 19 250 50 0 empty empty empty 0 -10 0 12 #fcfcfc #000000 #000000;
#X obj 853 979 * 1;
#X obj 801 981 * 1;
#X obj 748 983 * 1;
#X obj 695 983 * 1;
#X obj 477 1050 int;
#X obj 528 1050 int;
#X obj 582 1051 int;
#X obj 635 1050 int;
#X obj 477 985 * 899;
#X obj 529 985 * 899;
#X obj 582 983 * 899;
#X obj 635 984 * 899;
#X obj 477 1018 + 100;
#X obj 529 1018 + 100;
#X obj 583 1018 + 100;
#X obj 635 1018 + 100;
#X obj 198 1035 s \$2Snapshot;
#X obj 226 921 pack f f f f, f 23;
#X obj 1371 377 loadbang;
#X obj 2256 991 del 1 1 msec;
#X obj 227 890 bng 19 250 50 0 empty empty empty 0 -10 0 12 #fcfcfc #000000 #000000;
#X obj 197 971 list;
#X obj 37 37;
#X obj 291 732 print spigot\$2\$2\$2;
#X obj 486 916 s \$2tun, f 5;
#X obj 589 917 s \$2fil, f 5;
#X obj 187 405 throw~ \$2OutL;
#X obj 308 405 throw~ \$2OutR;
#X obj -168 1288 catch~ \$2outL;
#X obj -59 1287 catch~ \$2outL;
#X connect 0 0 155 0;
#X connect 0 0 164 0;
#X connect 0 0 167 0;
#X connect 0 0 171 0;
#X connect 2 0 134 0;
#X connect 2 0 156 0;
#X connect 2 0 164 1;
#X connect 2 0 167 0;
#X connect 3 0 157 0;
#X connect 3 0 164 2;
#X connect 3 0 167 0;
#X connect 3 0 172 0;
#X connect 4 0 135 0;
#X connect 4 0 158 0;
#X connect 4 0 164 3;
#X connect 4 0 167 0;
#X connect 5 0 150 0;
#X connect 7 0 149 0;
#X connect 8 0 148 0;
#X connect 9 0 147 0;
#X connect 13 0 28 0;
#X connect 14 0 23 0;
#X connect 14 0 22 0;
#X connect 15 0 30 0;
#X connect 15 0 46 0;
#X connect 16 0 19 0;
#X connect 17 0 18 0;
#X connect 18 0 145 0;
#X connect 19 0 168 0;
#X connect 20 0 125 0;
#X connect 23 0 0 0;
#X connect 23 1 2 0;
#X connect 23 2 3 0;
#X connect 23 3 4 0;
#X connect 24 0 26 0;
#X connect 25 0 27 0;
#X connect 26 0 173 0;
#X connect 27 0 174 0;
#X connect 28 0 33 0;
#X connect 29 0 141 0;
#X connect 29 0 142 0;
#X connect 31 0 29 0;
#X connect 32 0 31 1;
#X connect 33 0 31 0;
#X connect 33 1 32 0;
#X connect 35 0 36 0;
#X connect 35 1 37 0;
#X connect 35 2 38 0;
#X connect 35 3 39 0;
#X connect 35 4 40 0;
#X connect 35 5 41 0;
#X connect 36 0 28 2;
#X connect 37 0 28 2;
#X connect 38 0 28 2;
#X connect 39 0 28 2;
#X connect 40 0 28 2;
#X connect 41 0 28 2;
#X connect 42 0 44 0;
#X connect 43 0 44 0;
#X connect 44 0 35 0;
#X connect 45 0 14 0;
#X connect 45 0 170 0;
#X connect 46 0 5 0;
#X connect 46 1 7 0;
#X connect 46 2 8 0;
#X connect 46 3 9 0;
#X connect 47 0 48 1;
#X connect 48 0 107 0;
#X connect 49 0 50 0;
#X connect 49 0 166 0;
#X connect 50 0 52 0;
#X connect 51 0 52 0;
#X connect 52 0 47 0;
#X connect 52 0 47 1;
#X connect 54 0 52 5;
#X connect 55 0 67 0;
#X connect 60 0 62 0;
#X connect 60 0 71 0;
#X connect 61 0 68 1;
#X connect 62 0 63 0;
#X connect 63 0 61 0;
#X connect 64 0 66 0;
#X connect 65 0 64 0;
#X connect 66 0 123 0;
#X connect 67 0 65 0;
#X connect 68 0 110 0;
#X connect 69 0 122 0;
#X connect 70 0 69 0;
#X connect 71 0 70 0;
#X connect 72 0 84 0;
#X connect 72 0 90 0;
#X connect 73 0 60 0;
#X connect 73 0 116 0;
#X connect 74 0 91 0;
#X connect 75 0 76 0;
#X connect 75 0 77 0;
#X connect 76 0 81 1;
#X connect 77 0 78 0;
#X connect 79 0 78 1;
#X connect 80 0 77 0;
#X connect 81 0 80 0;
#X connect 82 0 83 0;
#X connect 83 0 77 1;
#X connect 84 0 74 0;
#X connect 85 0 86 0;
#X connect 85 0 98 0;
#X connect 86 0 87 0;
#X connect 87 0 93 0;
#X connect 88 0 87 1;
#X connect 89 0 98 1;
#X connect 92 0 86 1;
#X connect 93 0 94 0;
#X connect 94 0 128 0;
#X connect 95 0 99 0;
#X connect 96 0 97 0;
#X connect 97 0 94 0;
#X connect 98 0 95 0;
#X connect 99 0 87 2;
#X connect 100 0 101 0;
#X connect 100 0 98 0;
#X connect 101 0 99 1;
#X connect 102 0 98 0;
#X connect 105 0 68 0;
#X connect 106 0 107 1;
#X connect 106 0 108 0;
#X connect 107 0 121 0;
#X connect 108 0 111 0;
#X connect 109 0 120 1;
#X connect 110 0 48 0;
#X connect 111 0 109 0;
#X connect 112 0 105 0;
#X connect 113 0 105 1;
#X connect 114 0 118 0;
#X connect 115 0 68 2;
#X connect 116 0 117 0;
#X connect 117 0 114 0;
#X connect 118 0 113 0;
#X connect 119 0 106 0;
#X connect 120 0 104 0;
#X connect 120 0 103 0;
#X connect 121 0 120 0;
#X connect 122 0 115 0;
#X connect 123 0 54 0;
#X connect 124 0 53 0;
#X connect 124 0 49 0;
#X connect 124 0 85 0;
#X connect 125 0 28 0;
#X connect 126 0 127 0;
#X connect 128 0 112 0;
#X connect 129 0 131 1;
#X connect 130 0 131 0;
#X connect 131 0 133 0;
#X connect 132 0 72 0;
#X connect 133 0 132 0;
#X connect 133 0 136 0;
#X connect 137 0 60 0;
#X connect 138 0 55 0;
#X connect 139 0 119 0;
#X connect 140 0 102 0;
#X connect 140 0 99 1;
#X connect 141 0 16 0;
#X connect 141 0 14 1;
#X connect 142 0 17 0;
#X connect 142 0 15 1;
#X connect 143 0 1 0;
#X connect 143 0 146 0;
#X connect 144 0 6 0;
#X connect 147 0 144 3;
#X connect 148 0 144 2;
#X connect 149 0 144 1;
#X connect 150 0 144 0;
#X connect 151 0 143 0;
#X connect 152 0 143 1;
#X connect 153 0 143 2;
#X connect 154 0 143 3;
#X connect 155 0 159 0;
#X connect 156 0 160 0;
#X connect 157 0 161 0;
#X connect 158 0 162 0;
#X connect 159 0 151 0;
#X connect 160 0 152 0;
#X connect 161 0 153 0;
#X connect 162 0 154 0;
#X connect 164 0 168 1;
#X connect 165 0 129 0;
#X connect 166 0 51 0;
#X connect 167 0 164 0;
#X connect 168 0 163 0;
