#N canvas 291 52 1470 834 12;
#X obj -183 130 tgl 40 0 empty empty empty 0 -10 0 12 #c7c6ff #000000 #000000 0 1;
#X obj -84 112 == 66;
#X obj 343 124 tgl 40 0 empty empty empty 0 -10 0 12 #ff0400 #000000 #000000 0 1;
#X obj 444 105 == 68;
#X obj 912 113 == 70;
#X obj -332 109 spigot;
#X obj 247 160 spigot;
#X obj 855 153 tgl 40 0 empty empty empty 0 -10 0 12 #faff00 #000000 #000000 0 1;
#X obj 742 118 spigot;
#X obj -472 -250;
#X obj 1373 830;
#X obj -144 223 bng 19 250 50 0 empty empty empty 0 -10 0 12 #fcfcfc #000000 #000000;
#X obj -144 192 spigot;
#X obj 444 188 bng 19 250 50 0 empty empty empty 0 -10 0 12 #fcfcfc #000000 #000000;
#X obj 444 165 spigot;
#X obj 916 190 bng 19 250 50 0 empty empty empty 0 -10 0 12 #fcfcfc #000000 #000000;
#X obj 916 167 spigot;
#X obj -144 325 s screenLine1;
#X obj 444 288 s screenLine1;
#X obj 916 245 s screenLine1;
#X obj -183 46 loadbang;
#X text 206 -158 determines which track the step toggles affect;
#X obj -84 37 r trackSelectKeys;
#X obj 444 64 r trackSelectKeys;
#X obj 911 63 r trackSelectKeys;
#X obj -334 213 s kToggles;
#X obj 213 204 s sToggles;
#X obj 705 165 s hToggles;
#X obj -419 216 r knobs;
#X obj -316 290 spigot;
#X obj -427 352 s kKnobs;
#X obj 265 256 r knobs;
#X obj 317 311 spigot;
#X obj 239 362 s sKnobs;
#X obj 710 248 r knobs;
#X obj 768 309 spigot;
#X obj -110 223 loadbang;
#X obj -175 537 tgl 40 0 empty empty empty 0 -10 0 12 #ff0400 #000000 #000000 0 1;
#X obj -234 576 spigot;
#X obj 218 564 tgl 40 0 empty empty empty 0 -10 0 12 #faff00 #000000 #000000 0 1;
#X obj 163 603 spigot;
#X obj -74 601 bng 19 250 50 0 empty empty empty 0 -10 0 12 #fcfcfc #000000 #000000;
#X obj -74 578 spigot;
#X obj 279 601 bng 19 250 50 0 empty empty empty 0 -10 0 12 #fcfcfc #000000 #000000;
#X obj 279 578 spigot;
#X obj -94 670 s screenLine1;
#X obj 279 656 s screenLine1;
#X obj -74 477 r trackSelectKeys;
#X obj 274 474 r trackSelectKeys;
#X obj -235 662 r knobs;
#X obj -213 704 spigot;
#X obj 148 695 r knobs;
#X obj 180 737 spigot;
#X obj -268 620 s pToggles;
#X obj -237 744 s pKnobs;
#X obj 126 650 s tToggles;
#X obj 146 777 s tKnobs;
#X obj -74 518 == 78;
#X obj 275 524 == 80;
#X obj -269 334 bng 19 250 50 0 empty empty empty 0 -10 0 12 #fcfcfc #000000 #000000;
#X obj 734 349 s hKnobs;
#X obj 379 372 bng 19 250 50 0 empty empty empty 0 -10 0 12 #fcfcfc #000000 #000000;
#X obj 828 355 bng 19 250 50 0 empty empty empty 0 -10 0 12 #fcfcfc #000000 #000000;
#X obj -92 378 t b b;
#X listbox -316 390 20 0 0 0 - - - 0;
#X obj -270 176 bng 19 250 50 0 empty empty empty 0 -10 0 12 #fcfcfc #000000 #000000;
#X obj 203 108 r toggleKeys;
#X obj -332 45 r toggleKeys;
#X obj 725 87 r toggleKeys;
#X obj -307 528 r toggleKeys;
#X obj 101 537 r toggleKeys;
#X listbox -441 149 10 0 0 0 - - - 0;
#X msg 916 218 . T . . . S . . . A .;
#X msg -84 635 . . P . . O . . C . .;
#X msg 277 627 . T .. O .. M .. A .;
#X msg -144 291 \\\\ B ... O ... O ... M;
#X msg 412 249 S .. H .. A .. K .. A;
#X connect 0 0 5 1;
#X connect 0 0 29 1;
#X connect 1 0 0 0;
#X connect 1 0 12 1;
#X connect 1 0 12 0;
#X connect 2 0 6 1;
#X connect 2 0 32 1;
#X connect 3 0 2 0;
#X connect 3 0 14 1;
#X connect 3 0 14 0;
#X connect 4 0 7 0;
#X connect 4 0 16 1;
#X connect 4 0 16 0;
#X connect 5 0 25 0;
#X connect 5 0 65 0;
#X connect 5 0 71 0;
#X connect 6 0 26 0;
#X connect 7 0 8 1;
#X connect 7 0 35 1;
#X connect 8 0 27 0;
#X connect 11 0 75 0;
#X connect 12 0 11 0;
#X connect 13 0 76 0;
#X connect 14 0 13 0;
#X connect 15 0 72 0;
#X connect 16 0 15 0;
#X connect 20 0 0 0;
#X connect 22 0 1 0;
#X connect 23 0 3 0;
#X connect 24 0 4 0;
#X connect 28 0 29 0;
#X connect 29 0 30 0;
#X connect 29 0 59 0;
#X connect 29 0 64 0;
#X connect 31 0 32 0;
#X connect 32 0 33 0;
#X connect 32 0 61 0;
#X connect 34 0 35 0;
#X connect 35 0 60 0;
#X connect 35 0 62 0;
#X connect 36 0 75 0;
#X connect 37 0 38 1;
#X connect 37 0 50 1;
#X connect 38 0 53 0;
#X connect 39 0 40 1;
#X connect 39 0 52 1;
#X connect 40 0 55 0;
#X connect 41 0 73 0;
#X connect 42 0 41 0;
#X connect 43 0 74 0;
#X connect 44 0 43 0;
#X connect 47 0 57 0;
#X connect 48 0 58 0;
#X connect 49 0 50 0;
#X connect 50 0 54 0;
#X connect 51 0 52 0;
#X connect 52 0 56 0;
#X connect 57 0 37 0;
#X connect 57 0 42 1;
#X connect 57 0 42 0;
#X connect 58 0 39 0;
#X connect 58 0 44 1;
#X connect 58 0 44 0;
#X connect 66 0 6 0;
#X connect 67 0 5 0;
#X connect 68 0 8 0;
#X connect 69 0 38 0;
#X connect 70 0 40 0;
#X connect 72 0 19 0;
#X connect 73 0 45 0;
#X connect 74 0 46 0;
#X connect 75 0 17 0;
#X connect 76 0 18 0;
