#N canvas 402 63 1068 738 12;
#X floatatom -425 53 5 0 0 0 - - - 0;
#X obj -491 414 tgl 40 0 empty empty empty 0 -10 0 12 #c7c6ff #000000 #000000 0 1;
#X obj -442 372 == 66;
#X obj -183 407 tgl 40 0 empty empty empty 0 -10 0 12 #ff0400 #000000 #000000 0 1;
#X obj -122 368 == 68;
#X obj 200 375 == 70;
#X obj 508 566 == 78;
#X obj 658 561 == 80;
#X obj 811 562 == 82;
#X obj -425 91 sel 61 60 62 63 64 65 67 69 71 73 72 74 75 76 77 79 81 83;
#X obj -529 519 spigot;
#X obj -220 512 spigot;
#X obj -425 25 r notes;
#X obj -550 489 r notes;
#X obj -561 557 s kTrigs;
#X obj -237 484 r notes;
#X obj -253 550 s sTrigs;
#X obj 143 415 tgl 40 0 empty empty empty 0 -10 0 12 #faff00 #000000 #000000 0 1;
#X obj 104 505 spigot;
#X obj 87 474 r notes;
#X obj 505 676 tgl 40 0 empty empty empty 0 -10 0 12 #ff8300 #000000 #000000 0 1;
#X obj 449 715 spigot;
#X obj 431 686 r notes;
#X obj 658 688 tgl 40 0 empty empty empty 0 -10 0 12 #00faff #000000 #000000 0 1;
#X obj 606 727 spigot;
#X obj 593 697 r notes;
#X obj 809 692 tgl 40 0 empty empty empty 0 -10 0 12 #e3c6ff #000000 #000000 0 1;
#X obj 753 732 spigot;
#X obj 738 702 r notes;
#X obj 67 542 s hTrigs;
#X obj 406 753 s pTrigs;
#X obj 568 763 s tTrigs;
#X obj 712 770 s cTrigs;
#X text -242 48 track selector;
#X obj -685 -186;
#X obj -472 1003;
#X obj -443 446 bng 19 250 50 0 empty empty empty 0 -10 0 12 #fcfcfc #000000 #000000;
#X obj -443 423 spigot;
#X obj -123 451 bng 19 250 50 0 empty empty empty 0 -10 0 12 #fcfcfc #000000 #000000;
#X obj -123 428 spigot;
#X obj 204 452 bng 19 250 50 0 empty empty empty 0 -10 0 12 #fcfcfc #000000 #000000;
#X obj 204 429 spigot;
#X obj -443 525 s screenLine1;
#X obj -123 530 s screenLine1;
#X obj 204 531 s screenLine1;
#X obj -554 325 loadbang;
#X obj -383 446 loadbang;
#X msg -123 486 _______ snare _______;
#X msg 203 493 ________ hat ________;
#X msg -443 487 _______ kick ________;
#X obj 14 178 s menuNotes;
#X obj -442 326 r menuNotes;
#X obj 82 14 r encbut;
#X obj 14 110 spigot;
#X obj 82 74 == 0;
#X floatatom 82 45 5 0 0 0 - - - 0;
#X obj -122 327 r menuNotes;
#X obj 199 325 r menuNotes;
#X floatatom 14 143 5 0 0 0 - - - 0;
#X obj 32 -27 loadbang;
#X msg 33 0 0;
#X connect 0 0 9 0;
#X connect 1 0 10 1;
#X connect 2 0 1 0;
#X connect 2 0 37 1;
#X connect 2 0 37 0;
#X connect 3 0 11 1;
#X connect 4 0 3 0;
#X connect 4 0 39 1;
#X connect 4 0 39 0;
#X connect 5 0 17 0;
#X connect 5 0 41 1;
#X connect 5 0 41 0;
#X connect 6 0 20 0;
#X connect 7 0 23 0;
#X connect 8 0 26 0;
#X connect 9 18 53 0;
#X connect 10 0 14 0;
#X connect 11 0 16 0;
#X connect 12 0 0 0;
#X connect 13 0 10 0;
#X connect 15 0 11 0;
#X connect 17 0 18 1;
#X connect 18 0 29 0;
#X connect 19 0 18 0;
#X connect 20 0 21 1;
#X connect 21 0 30 0;
#X connect 22 0 21 0;
#X connect 23 0 24 1;
#X connect 24 0 31 0;
#X connect 25 0 24 0;
#X connect 26 0 27 1;
#X connect 27 0 32 0;
#X connect 28 0 27 0;
#X connect 36 0 49 0;
#X connect 37 0 36 0;
#X connect 38 0 47 0;
#X connect 39 0 38 0;
#X connect 40 0 48 0;
#X connect 41 0 40 0;
#X connect 45 0 1 0;
#X connect 46 0 49 0;
#X connect 47 0 43 0;
#X connect 48 0 44 0;
#X connect 49 0 42 0;
#X connect 51 0 2 0;
#X connect 52 0 55 0;
#X connect 53 0 58 0;
#X connect 54 0 53 1;
#X connect 55 0 54 0;
#X connect 56 0 4 0;
#X connect 57 0 5 0;
#X connect 58 0 50 0;
#X connect 59 0 60 0;
#X connect 60 0 55 0;
