#N canvas 0 37 1194 834 12;
#X obj -201 285 tgl 40 0 empty empty empty 0 -10 0 12 #c7c6ff #000000 #000000 0 1;
#X obj -88 267 == 66;
#X obj 295 278 tgl 40 0 empty empty empty 0 -10 0 12 #ff0400 #000000 #000000 0 1;
#X obj 396 259 == 68;
#X obj 1111 294 == 70;
#X obj 273 819 == 78;
#X obj 426 809 == 80;
#X obj 577 819 == 82;
#X obj -321 324 spigot;
#X obj 236 317 spigot;
#X obj -353 271 r notes;
#X obj 219 289 r notes;
#X obj 1054 334 tgl 40 0 empty empty empty 0 -10 0 12 #faff00 #000000 #000000 0 1;
#X obj 999 373 spigot;
#X obj 982 342 r notes;
#X obj 273 859 tgl 40 0 empty empty empty 0 -10 0 12 #ff8300 #000000 #000000 0 1;
#X obj 217 898 spigot;
#X obj 199 869 r notes;
#X obj 426 871 tgl 40 0 empty empty empty 0 -10 0 12 #00faff #000000 #000000 0 1;
#X obj 374 910 spigot;
#X obj 361 880 r notes;
#X obj 577 875 tgl 40 0 empty empty empty 0 -10 0 12 #e3c6ff #000000 #000000 0 1;
#X obj 521 915 spigot;
#X obj 506 885 r notes;
#X obj 174 936 s pTrigs;
#X obj 336 946 s tTrigs;
#X obj 480 953 s cTrigs;
#X obj -476 -95;
#X obj 1369 985;
#X obj -128 375 bng 19 250 50 0 empty empty empty 0 -10 0 12 #fcfcfc #000000 #000000;
#X obj -128 344 spigot;
#X obj 396 342 bng 19 250 50 0 empty empty empty 0 -10 0 12 #fcfcfc #000000 #000000;
#X obj 396 319 spigot;
#X obj 1115 371 bng 19 250 50 0 empty empty empty 0 -10 0 12 #fcfcfc #000000 #000000;
#X obj 1115 348 spigot;
#X obj -128 477 s screenLine1;
#X obj 396 407 s screenLine1;
#X obj 1115 426 s screenLine1;
#X obj -201 201 loadbang;
#X text 202 -3 determines which track the step toggles affect;
#X obj -88 192 r trackSelectKeys;
#X obj 396 218 r trackSelectKeys;
#X obj 1110 244 r trackSelectKeys;
#X obj -361 373 s kToggles;
#X obj 202 361 s sToggles;
#X obj 962 420 s hToggles;
#X obj -262 362 r knobs;
#X obj -240 404 spigot;
#X obj -268 447 s kKnobs;
#X obj 235 403 r knobs;
#X obj 257 445 spigot;
#X obj 233 485 s sKnobs;
#X obj 984 465 r knobs;
#X obj 1016 507 spigot;
#X obj 982 547 s sKnobs;
#X msg -128 443 K I C K;
#X msg 396 377 S N A R E;
#X msg 1115 399 H A T;
#X obj -94 375 loadbang;
#X connect 0 0 8 1;
#X connect 0 0 47 1;
#X connect 1 0 0 0;
#X connect 1 0 30 1;
#X connect 1 0 30 0;
#X connect 2 0 9 1;
#X connect 2 0 50 1;
#X connect 3 0 2 0;
#X connect 3 0 32 1;
#X connect 3 0 32 0;
#X connect 4 0 12 0;
#X connect 4 0 34 1;
#X connect 4 0 34 0;
#X connect 5 0 15 0;
#X connect 6 0 18 0;
#X connect 7 0 21 0;
#X connect 8 0 43 0;
#X connect 9 0 44 0;
#X connect 10 0 8 0;
#X connect 11 0 9 0;
#X connect 12 0 13 1;
#X connect 12 0 53 1;
#X connect 13 0 45 0;
#X connect 14 0 13 0;
#X connect 15 0 16 1;
#X connect 16 0 24 0;
#X connect 17 0 16 0;
#X connect 18 0 19 1;
#X connect 19 0 25 0;
#X connect 20 0 19 0;
#X connect 21 0 22 1;
#X connect 22 0 26 0;
#X connect 23 0 22 0;
#X connect 29 0 55 0;
#X connect 30 0 29 0;
#X connect 31 0 56 0;
#X connect 32 0 31 0;
#X connect 33 0 57 0;
#X connect 34 0 33 0;
#X connect 38 0 0 0;
#X connect 40 0 1 0;
#X connect 41 0 3 0;
#X connect 42 0 4 0;
#X connect 46 0 47 0;
#X connect 47 0 48 0;
#X connect 49 0 50 0;
#X connect 50 0 51 0;
#X connect 52 0 53 0;
#X connect 53 0 54 0;
#X connect 55 0 35 0;
#X connect 56 0 36 0;
#X connect 57 0 37 0;
#X connect 58 0 55 0;
