#N canvas 0 36 1470 892 12;
#X floatatom 115 163 5 0 0 0 - - - 0;
#X obj 82 387 tgl 40 0 empty empty empty 0 -10 0 12 #c7c6ff #000000 #000000 0 1;
#X obj 82 347 == 66;
#X obj 178 388 tgl 40 0 empty empty empty 0 -10 0 12 #ff0400 #000000 #000000 0 1;
#X obj 178 347 == 68;
#X floatatom 511 236 5 0 0 0 - - - 0;
#X obj 280 345 == 70;
#X obj 378 345 == 78;
#X obj 478 346 == 80;
#X obj 572 346 == 82;
#X obj 115 201 sel 61 60 62 63 64 65 67 69 71 73 72 74 75 76 77 79 81 83;
#X obj 72 492 spigot;
#X obj 168 491 spigot;
#X obj 115 135 r notes;
#X obj 41 462 r notes;
#X obj 68 529 s kTrigs;
#X obj 139 463 r notes;
#X obj 158 528 s sTrigs;
#X obj 280 388 tgl 40 0 empty empty empty 0 -10 0 12 #faff00 #000000 #000000 0 1;
#X obj 274 493 spigot;
#X obj 239 462 r notes;
#X obj 379 388 tgl 40 0 empty empty empty 0 -10 0 12 #ff8300 #000000 #000000 0 1;
#X obj 379 492 spigot;
#X obj 343 463 r notes;
#X obj 478 388 tgl 40 0 empty empty empty 0 -10 0 12 #00faff #000000 #000000 0 1;
#X obj 473 495 spigot;
#X obj 442 465 r notes;
#X obj 572 390 tgl 40 0 empty empty empty 0 -10 0 12 #e3c6ff #000000 #000000 0 1;
#X obj 570 495 spigot;
#X obj 537 465 r notes;
#X obj 257 529 s hTrigs;
#X obj 356 529 s pTrigs;
#X obj 455 530 s tTrigs;
#X obj 549 532 s cTrigs;
#X text 253 75 track selector;
#X connect 0 0 10 0;
#X connect 1 0 11 1;
#X connect 2 0 1 0;
#X connect 3 0 12 1;
#X connect 4 0 3 0;
#X connect 5 0 2 0;
#X connect 5 0 4 0;
#X connect 5 0 6 0;
#X connect 5 0 7 0;
#X connect 5 0 8 0;
#X connect 5 0 9 0;
#X connect 6 0 18 0;
#X connect 7 0 21 0;
#X connect 8 0 24 0;
#X connect 9 0 27 0;
#X connect 10 18 5 0;
#X connect 11 0 15 0;
#X connect 12 0 17 0;
#X connect 13 0 0 0;
#X connect 14 0 11 0;
#X connect 16 0 12 0;
#X connect 18 0 19 1;
#X connect 19 0 30 0;
#X connect 20 0 19 0;
#X connect 21 0 22 1;
#X connect 22 0 31 0;
#X connect 23 0 22 0;
#X connect 24 0 25 1;
#X connect 25 0 32 0;
#X connect 26 0 25 0;
#X connect 27 0 28 1;
#X connect 28 0 33 0;
#X connect 29 0 28 0;
