#N canvas 175 59 1210 855 12;
#X obj 259 -53 r digits;
#X floatatom 259 -25 5 0 0 0 - - - 0;
#X obj 27 393 r notes;
#X obj 452 362 symbol o;
#X obj 706 363 symbol o;
#X obj 580 363 symbol o;
#X obj 389 362 symbol x;
#X obj 517 363 symbol x;
#X obj 643 363 symbol x;
#X obj 958 363 symbol o;
#X obj 1212 364 symbol o;
#X obj 832 363 symbol o;
#X obj 1086 364 symbol o;
#X obj 769 363 symbol x;
#X obj 895 363 symbol x;
#X obj 1023 364 symbol x;
#X obj 1149 364 symbol x;
#X obj 259 45 sel 1 -1 2 -2 3 -3 4 -4 5 -5 6 -6 7 -7 8 -8 9 -9 10 -10 11 -11 12 -12 13 -13 14 -14 15 -15 16 -16, f 289;
#X obj 1464 364 symbol o;
#X obj 1718 365 symbol o;
#X obj 1338 364 symbol o;
#X obj 1592 365 symbol o;
#X obj 1275 364 symbol x;
#X obj 1401 364 symbol x;
#X obj 1529 365 symbol x;
#X obj 1655 365 symbol x;
#X obj 1970 365 symbol o;
#X obj 2224 366 symbol o;
#X obj 1844 365 symbol o;
#X obj 2098 366 symbol o;
#X obj 1781 365 symbol x;
#X obj 1907 365 symbol x;
#X obj 2035 366 symbol x;
#X obj 2161 366 symbol x;
#X obj 169 534 pack 0 s s s s s s s s s s s s s s s s s, f 308;
#X text 515 -46 display digit calculator;
#X obj -517 132 r notes;
#X obj -451 168 sel 66 68 70 78 80 82;
#X obj -550 389 s kLoad;
#X obj -485 388 s sLoad;
#X obj -421 388 s hLoad;
#X obj -358 388 s pLoad;
#X obj -295 388 s tLoad;
#X obj -234 389 s cLoad;
#X obj -590 -90;
#X msg 170 903 |\$2\$3\$4\$5|\$6\$7\$8\$9|\$10\$11\$12\$13|\$14\$15\$16\$17|;
#X msg -268 111 66;
#X obj -238 81 loadbang;
#X obj -43 419 r ticks;
#X floatatom -43 444 5 0 0 0 - - - 0;
#X obj 27 462 bng 19 250 50 0 empty empty empty 0 -10 0 12 #fcfcfc #000000 #000000;
#X obj 170 712 pack 0 s s s s s s s s s s s s s s s s s, f 310;
#X obj 169 569 unpack 0 s s s s s s s s s s s s s s s s s, f 310;
#X obj 326 362 symbol o;
#X obj 263 362 symbol x;
#X obj 332 599 r ticks;
#X obj 332 625 sel 1;
#X obj 332 651 bng 19 250 50 0 empty empty empty 0 -10 0 12 #fcfcfc #000000 #000000;
#X obj 448 600 r ticks;
#X obj 448 651 bng 19 250 50 0 empty empty empty 0 -10 0 12 #fcfcfc #000000 #000000;
#X obj 448 626 sel 2;
#X obj 571 597 r ticks;
#X obj 571 649 bng 19 250 50 0 empty empty empty 0 -10 0 12 #fcfcfc #000000 #000000;
#X obj 700 598 r ticks;
#X obj 700 649 bng 19 250 50 0 empty empty empty 0 -10 0 12 #fcfcfc #000000 #000000;
#X obj 571 623 sel 3;
#X obj 700 624 sel 4;
#X obj 834 597 r ticks;
#X obj 834 649 bng 19 250 50 0 empty empty empty 0 -10 0 12 #fcfcfc #000000 #000000;
#X obj 950 598 r ticks;
#X obj 950 649 bng 19 250 50 0 empty empty empty 0 -10 0 12 #fcfcfc #000000 #000000;
#X obj 1082 598 r ticks;
#X obj 1082 650 bng 19 250 50 0 empty empty empty 0 -10 0 12 #fcfcfc #000000 #000000;
#X obj 1204 598 r ticks;
#X obj 1204 649 bng 19 250 50 0 empty empty empty 0 -10 0 12 #fcfcfc #000000 #000000;
#X obj 834 623 sel 5;
#X obj 950 624 sel 6;
#X obj 1082 624 sel 7;
#X obj 1204 624 sel 8;
#X obj 1343 599 r ticks;
#X obj 1343 651 bng 19 250 50 0 empty empty empty 0 -10 0 12 #fcfcfc #000000 #000000;
#X obj 1459 600 r ticks;
#X obj 1459 651 bng 19 250 50 0 empty empty empty 0 -10 0 12 #fcfcfc #000000 #000000;
#X obj 1587 599 r ticks;
#X obj 1587 651 bng 19 250 50 0 empty empty empty 0 -10 0 12 #fcfcfc #000000 #000000;
#X obj 1715 598 r ticks;
#X obj 1715 649 bng 19 250 50 0 empty empty empty 0 -10 0 12 #fcfcfc #000000 #000000;
#X obj 1845 597 r ticks;
#X obj 1845 649 bng 19 250 50 0 empty empty empty 0 -10 0 12 #fcfcfc #000000 #000000;
#X obj 1966 598 r ticks;
#X obj 1967 649 bng 19 250 50 0 empty empty empty 0 -10 0 12 #fcfcfc #000000 #000000;
#X obj 2096 599 r ticks;
#X obj 2096 651 bng 19 250 50 0 empty empty empty 0 -10 0 12 #fcfcfc #000000 #000000;
#X obj 2227 602 r ticks;
#X obj 2227 653 bng 19 250 50 0 empty empty empty 0 -10 0 12 #fcfcfc #000000 #000000;
#X obj 1343 625 sel 9;
#X obj 1458 626 sel 10;
#X obj 1587 625 sel 11;
#X obj 1715 624 sel 12;
#X obj 1845 623 sel 13;
#X obj 1965 624 sel 14;
#X obj 2096 625 sel 15;
#X obj 2227 628 sel 16;
#X obj 1141 1131;
#X obj 170 971 s displayManager;
#X text -455 62 digits memory updater;
#X obj 169 480 del 1 1 msec;
#X msg 332 677 symbol :;
#X msg 448 678 symbol :;
#X msg 571 675 symbol :;
#X msg 700 676 symbol :;
#X msg 834 675 symbol :;
#X msg 950 676 symbol :;
#X msg 1082 676 symbol :;
#X msg 1204 676 symbol :;
#X msg 1343 677 symbol :;
#X msg 1459 678 symbol :;
#X msg 1587 677 symbol :;
#X msg 1715 676 symbol :;
#X msg 1845 675 symbol :;
#X msg 1967 676 symbol :;
#X msg 2096 677 symbol :;
#X msg 2227 680 symbol :;
#X obj 171 304 loadbang;
#X msg 171 343 symbol _;
#X obj 27 554 del 2 1 msec;
#X connect 0 0 1 0;
#X connect 1 0 17 0;
#X connect 2 0 50 0;
#X connect 3 0 34 2;
#X connect 4 0 34 4;
#X connect 5 0 34 3;
#X connect 6 0 34 2;
#X connect 7 0 34 3;
#X connect 8 0 34 4;
#X connect 9 0 34 6;
#X connect 10 0 34 8;
#X connect 11 0 34 5;
#X connect 12 0 34 7;
#X connect 13 0 34 5;
#X connect 14 0 34 6;
#X connect 15 0 34 7;
#X connect 16 0 34 8;
#X connect 17 0 54 0;
#X connect 17 1 53 0;
#X connect 17 2 6 0;
#X connect 17 3 3 0;
#X connect 17 4 7 0;
#X connect 17 5 5 0;
#X connect 17 6 8 0;
#X connect 17 7 4 0;
#X connect 17 8 13 0;
#X connect 17 9 11 0;
#X connect 17 10 14 0;
#X connect 17 11 9 0;
#X connect 17 12 15 0;
#X connect 17 13 12 0;
#X connect 17 14 16 0;
#X connect 17 15 10 0;
#X connect 17 16 22 0;
#X connect 17 17 20 0;
#X connect 17 18 23 0;
#X connect 17 19 18 0;
#X connect 17 20 24 0;
#X connect 17 21 21 0;
#X connect 17 22 25 0;
#X connect 17 23 19 0;
#X connect 17 24 30 0;
#X connect 17 25 28 0;
#X connect 17 26 31 0;
#X connect 17 27 26 0;
#X connect 17 28 32 0;
#X connect 17 29 29 0;
#X connect 17 30 33 0;
#X connect 17 31 27 0;
#X connect 18 0 34 10;
#X connect 19 0 34 12;
#X connect 20 0 34 9;
#X connect 21 0 34 11;
#X connect 22 0 34 9;
#X connect 23 0 34 10;
#X connect 24 0 34 11;
#X connect 25 0 34 12;
#X connect 26 0 34 14;
#X connect 27 0 34 16;
#X connect 28 0 34 13;
#X connect 29 0 34 15;
#X connect 30 0 34 13;
#X connect 31 0 34 14;
#X connect 32 0 34 15;
#X connect 33 0 34 16;
#X connect 34 0 52 0;
#X connect 36 0 37 0;
#X connect 37 0 38 0;
#X connect 37 1 39 0;
#X connect 37 2 40 0;
#X connect 37 3 41 0;
#X connect 37 4 42 0;
#X connect 37 5 43 0;
#X connect 45 0 104 0;
#X connect 47 0 46 0;
#X connect 48 0 49 0;
#X connect 49 0 50 0;
#X connect 50 0 106 0;
#X connect 50 0 125 0;
#X connect 51 0 45 0;
#X connect 52 1 51 1;
#X connect 52 2 51 2;
#X connect 52 3 51 3;
#X connect 52 4 51 4;
#X connect 52 5 51 5;
#X connect 52 6 51 6;
#X connect 52 7 51 7;
#X connect 52 8 51 8;
#X connect 52 9 51 9;
#X connect 52 10 51 10;
#X connect 52 11 51 11;
#X connect 52 12 51 12;
#X connect 52 13 51 13;
#X connect 52 14 51 14;
#X connect 52 15 51 15;
#X connect 52 16 51 16;
#X connect 52 17 51 17;
#X connect 53 0 34 1;
#X connect 54 0 34 1;
#X connect 55 0 56 0;
#X connect 56 0 57 0;
#X connect 57 0 107 0;
#X connect 58 0 60 0;
#X connect 59 0 108 0;
#X connect 60 0 59 0;
#X connect 61 0 65 0;
#X connect 62 0 109 0;
#X connect 63 0 66 0;
#X connect 64 0 110 0;
#X connect 65 0 62 0;
#X connect 66 0 64 0;
#X connect 67 0 75 0;
#X connect 68 0 111 0;
#X connect 69 0 76 0;
#X connect 70 0 112 0;
#X connect 71 0 77 0;
#X connect 72 0 113 0;
#X connect 73 0 78 0;
#X connect 74 0 114 0;
#X connect 75 0 68 0;
#X connect 76 0 70 0;
#X connect 77 0 72 0;
#X connect 78 0 74 0;
#X connect 79 0 95 0;
#X connect 80 0 115 0;
#X connect 81 0 96 0;
#X connect 82 0 116 0;
#X connect 83 0 97 0;
#X connect 84 0 117 0;
#X connect 85 0 98 0;
#X connect 86 0 118 0;
#X connect 87 0 99 0;
#X connect 88 0 119 0;
#X connect 89 0 100 0;
#X connect 90 0 120 0;
#X connect 91 0 101 0;
#X connect 92 0 121 0;
#X connect 93 0 102 0;
#X connect 94 0 122 0;
#X connect 95 0 80 0;
#X connect 96 0 82 0;
#X connect 97 0 84 0;
#X connect 98 0 86 0;
#X connect 99 0 88 0;
#X connect 100 0 90 0;
#X connect 101 0 92 0;
#X connect 102 0 94 0;
#X connect 106 0 34 0;
#X connect 107 0 51 1;
#X connect 108 0 51 2;
#X connect 109 0 51 3;
#X connect 110 0 51 4;
#X connect 111 0 51 5;
#X connect 112 0 51 6;
#X connect 113 0 51 7;
#X connect 114 0 51 8;
#X connect 115 0 51 9;
#X connect 116 0 51 10;
#X connect 117 0 51 11;
#X connect 118 0 51 12;
#X connect 119 0 51 13;
#X connect 120 0 51 14;
#X connect 121 0 51 15;
#X connect 122 0 51 16;
#X connect 123 0 124 0;
#X connect 124 0 16 0;
#X connect 124 0 22 0;
#X connect 124 0 23 0;
#X connect 124 0 24 0;
#X connect 124 0 25 0;
#X connect 124 0 30 0;
#X connect 124 0 31 0;
#X connect 124 0 32 0;
#X connect 124 0 33 0;
#X connect 124 0 15 0;
#X connect 124 0 14 0;
#X connect 124 0 13 0;
#X connect 124 0 8 0;
#X connect 124 0 7 0;
#X connect 124 0 6 0;
#X connect 124 0 54 0;
#X connect 125 0 51 0;
