#N canvas 335 130 1112 665 12;
#X obj 258 148 loadbang;
#X floatatom 258 200 5 0 0 0 - - - 0;
#X obj 226 230 metro;
#X obj 227 309 int 1;
#X floatatom 227 336 5 0 0 0 - - - 0;
#X obj 227 391 + 1;
#X floatatom 227 419 5 0 0 0 - - - 0;
#X obj 227 267 bng 19 250 50 0 empty empty empty 0 -10 0 12 #fcfcfc #000000 #000000;
#X obj 189 151 tgl 50 0 empty empty empty 0 -10 0 12 #fcfcfc #000000 #000000 0 1;
#X obj 66 184 loadbang;
#X obj 142 227 sel 0;
#X obj 142 264 bng 19 250 50 0 empty empty empty 0 -10 0 12 #fcfcfc #000000 #000000;
#X msg 142 291 -1;
#X obj 292 327 + 1;
#X msg 258 172 150;
#X text 323 266 transport controls;
#X obj 189 102 r transport;
#X obj 226 470 s ticks;
#X obj 227 363 % 16;
#X connect 0 0 14 0;
#X connect 1 0 2 1;
#X connect 2 0 7 0;
#X connect 3 0 13 0;
#X connect 3 0 4 0;
#X connect 4 0 18 0;
#X connect 5 0 6 0;
#X connect 6 0 17 0;
#X connect 7 0 3 0;
#X connect 8 0 2 0;
#X connect 8 0 10 0;
#X connect 9 0 11 0;
#X connect 10 0 11 0;
#X connect 11 0 12 0;
#X connect 12 0 3 0;
#X connect 13 0 3 1;
#X connect 14 0 1 0;
#X connect 16 0 8 0;
#X connect 18 0 5 0;
#X coords 0 665 1 664 40 40 0;
