#N canvas 1285 227 1546 985 12;
#X obj 561 562 tgl 30 0 empty empty empty 0 -10 0 12 #ffffff #fcfcfc #fcfcfc 0 1;
#X obj 196 93 t b f;
#X obj 302 93 t b f;
#X obj 104 139 expr -1 - ($f3 + ($f2 * 256) + ($f1 * 256 * 256));
#X msg 408 523 color \$1 \$2 \$3;
#X obj 408 497 pack f f f;
#X obj 104 35 inlet bg red;
#X obj 196 35 inlet bg green;
#X obj 302 35 inlet bg blue;
#X obj 459 35 inlet fg red;
#X obj 551 35 inlet fg green;
#X obj 657 35 inlet fg blue;
#X obj 813 35 inlet lg red;
#X obj 905 35 inlet lg green;
#X obj 1011 35 inlet lg blue;
#X obj 23 35 inlet bng;
#X msg 115 66 0;
#X msg 206 66 0;
#X msg 312 66 0;
#X msg 470 66 0;
#X msg 562 66 0;
#X msg 668 66 0;
#X msg 824 66 0;
#X msg 916 66 0;
#X msg 1022 66 0;
#X obj 1131 47 loadbang;
#X obj 551 93 t b f;
#X obj 657 93 t b f;
#X obj 459 139 expr -1 - ($f3 + ($f2 * 256) + ($f1 * 256 * 256));
#X obj 905 93 t b f;
#X obj 1011 93 t b f;
#X obj 813 139 expr -1 - ($f3 + ($f2 * 256) + ($f1 * 256 * 256));
#X obj 86 303 f;
#X obj 441 303 f;
#X obj 795 303 f;
#X obj 23 138 t b b b;
#X obj 408 562 outlet;
#X text 104 13 background;
#X text 456 14 foreground;
#X text 811 16 label;
#X connect 1 0 3 0;
#X connect 1 1 3 1;
#X connect 2 0 3 0;
#X connect 2 1 3 2;
#X connect 3 0 32 1;
#X connect 4 0 0 0;
#X connect 4 0 36 0;
#X connect 5 0 4 0;
#X connect 6 0 3 0;
#X connect 7 0 1 0;
#X connect 8 0 2 0;
#X connect 9 0 28 0;
#X connect 10 0 26 0;
#X connect 11 0 27 0;
#X connect 12 0 31 0;
#X connect 13 0 29 0;
#X connect 14 0 30 0;
#X connect 15 0 35 0;
#X connect 16 0 3 0;
#X connect 17 0 1 0;
#X connect 18 0 2 0;
#X connect 19 0 28 0;
#X connect 20 0 26 0;
#X connect 21 0 27 0;
#X connect 22 0 31 0;
#X connect 23 0 29 0;
#X connect 24 0 30 0;
#X connect 25 0 24 0;
#X connect 25 0 23 0;
#X connect 25 0 22 0;
#X connect 25 0 21 0;
#X connect 25 0 20 0;
#X connect 25 0 19 0;
#X connect 25 0 18 0;
#X connect 25 0 17 0;
#X connect 25 0 16 0;
#X connect 26 0 28 0;
#X connect 26 1 28 1;
#X connect 27 0 28 0;
#X connect 27 1 28 2;
#X connect 28 0 33 1;
#X connect 29 0 31 0;
#X connect 29 1 31 1;
#X connect 30 0 31 0;
#X connect 30 1 31 2;
#X connect 31 0 34 1;
#X connect 32 0 5 0;
#X connect 33 0 5 1;
#X connect 34 0 5 2;
#X connect 35 0 32 0;
#X connect 35 1 33 0;
#X connect 35 2 34 0;
