#N canvas 425 352 1085 329 12;
#N canvas 419 370 616 607 \$0-screenline1 0;
#X text 2 2 POLY-R Global;
#X coords 0 -1 1 1 154 22 2 0 0;
#X restore 7 8 pd \$0-screenline1;
#N canvas 96 96 450 300 \$0-screenline2 0;
#X text 2 2 Rythm: 1;
#X coords 0 -1 1 1 154 22 2 0 0;
#X restore 7 34 pd \$0-screenline2;
#N canvas 96 96 413 191 \$0-screenline3 0;
#X text 2 2 BPM: 120;
#X coords 0 -1 1 1 154 22 2 0 0;
#X restore 7 60 pd \$0-screenline3;
#N canvas 128 657 450 300 \$0-screenline4 0;
#X coords 0 -1 1 1 154 22 2 0 0;
#X restore 7 86 pd \$0-screenline4;
#X obj 651 152 loadbang;
#X msg 651 191 \\\\;
#X obj 31 190 r screenLine1;
#X obj 31 252 display-port \$0 1;
#X obj 158 253 display-port \$0 2;
#X obj 285 254 display-port \$0 3;
#X obj 412 254 display-port \$0 4;
#X obj 715 152 r loadbang2;
#X obj 158 190 r screenLine2;
#X obj 285 190 r screenLine3;
#X obj 412 190 r screenLine4;
#X obj 539 254 display-port \$0 5;
#X obj 539 190 r screenLine5;
#N canvas 685 744 450 300 \$0-screenline5 0;
#X coords 0 -1 1 1 154 22 2 0 0;
#X restore 7 112 pd \$0-screenline5;
#X obj 863 109 s screenLine1;
#X obj 863 133 s screenLine2;
#X obj 863 157 s screenLine3;
#X obj 863 181 s screenLine4;
#X obj 863 205 s screenLine5;
#X msg 863 85 \\\\;
#X obj 863 60 r screenCleared;
#X connect 4 0 5 0;
#X connect 5 0 7 0;
#X connect 5 0 8 0;
#X connect 5 0 9 0;
#X connect 5 0 10 0;
#X connect 5 0 15 0;
#X connect 6 0 7 0;
#X connect 11 0 5 0;
#X connect 12 0 8 0;
#X connect 13 0 9 0;
#X connect 14 0 10 0;
#X connect 16 0 15 0;
#X connect 23 0 18 0;
#X connect 23 0 22 0;
#X connect 23 0 21 0;
#X connect 23 0 20 0;
#X connect 23 0 19 0;
#X connect 24 0 23 0;
#X coords 0 -1 1 1 164 138 2 2 2;
