#N canvas 1294 540 1082 654 12;
#X obj 27 19 ctlin, f 38;
#X text 22 119 sends: midi value as midi\$1_\$2 where \$1 is the channel and \$2 the controller, f 80;
#X obj 696 131 pack f f f;
#X obj 696 155 spigot;
#X obj 50 233 pack f f;
#X msg 50 259 symbol midi\$2_\$1;
#X obj 32 285 s;
#X obj 27 69 s \$0-mval;
#X obj 158 69 s \$0-ctlval;
#X obj 32 156 r \$0-mval;
#X obj 50 182 r \$0-ctlval;
#X obj 290 68 s \$0-chval;
#X obj 103 207 r \$0-chval;
#X obj 30 443 s;
#X obj 30 363 r \$0-mval;
#X obj 48 389 r \$0-ctlval;
#X text 22 334 sends: midi value as midi\$1 where \$1 is the controller (every channel), f 80;
#X msg 48 417 symbol midi\$1;
#X obj 696 51 r \$0-mval;
#X obj 729 79 r \$0-ctlval;
#X obj 763 106 r \$0-chval;
#X obj 696 203 print MIDI;
#X msg 696 179 CH: \$3 CTL: \$2 VAL: \$1;
#X obj 652 371 r \$0-mval;
#X obj 27 44 expr $f1/127;
#X obj 732 372 r \$0-ctlval;
#X obj 645 542 pack \$1 \$2;
#X floatatom 732 482 5 0 0 0 - - - 0;
#X msg 785 480 1;
#X msg 821 480 0;
#X obj 652 405 t b b b f;
#X obj 732 508 spigot 0;
#X obj 645 566 s midiCV;
#X text 647 337 sends ctrl and value for use with route;
#X obj 883 136 inlet tgl print;
#X connect 0 0 24 0;
#X connect 0 1 8 0;
#X connect 0 2 11 0;
#X connect 2 0 3 0;
#X connect 3 0 22 0;
#X connect 4 0 5 0;
#X connect 5 0 6 1;
#X connect 9 0 6 0;
#X connect 10 0 4 0;
#X connect 12 0 4 1;
#X connect 14 0 13 0;
#X connect 15 0 17 0;
#X connect 17 0 13 1;
#X connect 18 0 2 0;
#X connect 19 0 2 1;
#X connect 20 0 2 2;
#X connect 22 0 21 0;
#X connect 23 0 30 0;
#X connect 24 0 7 0;
#X connect 25 0 27 0;
#X connect 26 0 32 0;
#X connect 27 0 31 0;
#X connect 28 0 31 1;
#X connect 29 0 31 1;
#X connect 30 0 29 0;
#X connect 30 1 27 0;
#X connect 30 2 28 0;
#X connect 30 3 26 1;
#X connect 31 0 26 0;
#X connect 34 0 3 1;
#X coords 0 654 1 653 127 19 0;
