#N canvas 939 330 663 382 12;
#X obj 17 11 organelle;
#X obj 17 241 midi-map-ffm12;
#X obj 17 277 cnv 15 626 80 empty empty empty 20 12 0 14 -261682 -66577
0;
#N canvas 0 50 603 328 show-text 0;
#X obj 14 97 s screenLine1;
#X obj 212 32 bng 15 250 50 0 empty empty empty 17 7 0 10 -262144 -1
-1;
#X msg 14 73 Screenline 1;
#X msg 113 73 Screenline 2;
#X obj 113 97 s screenLine2;
#X msg 212 73 Screenline 3;
#X obj 212 97 s screenLine3;
#X msg 311 73 Screenline 4;
#X obj 311 97 s screenLine4;
#X msg 410 73 Screenline 5;
#X obj 410 97 s screenLine5;
#X obj 212 7 inlet;
#X connect 1 0 2 0;
#X connect 1 0 3 0;
#X connect 1 0 5 0;
#X connect 1 0 7 0;
#X connect 1 0 9 0;
#X connect 2 0 0 0;
#X connect 3 0 4 0;
#X connect 5 0 6 0;
#X connect 7 0 8 0;
#X connect 9 0 10 0;
#X connect 11 0 1 0;
#X restore 24 307 pd show-text;
#X obj 24 287 bng 15 250 50 0 empty empty empty 17 7 0 10 -262144 -1
-1;
#N canvas 0 50 603 328 clear 0;
#X obj 14 97 s screenLine1;
#X obj 212 32 bng 15 250 50 0 empty empty empty 17 7 0 10 -262144 -1
-1;
#X obj 113 97 s screenLine2;
#X obj 212 97 s screenLine3;
#X obj 311 97 s screenLine4;
#X obj 410 97 s screenLine5;
#X obj 212 7 inlet;
#X msg 14 73;
#X msg 113 73;
#X msg 212 73;
#X msg 311 73;
#X msg 410 73;
#X connect 1 0 7 0;
#X connect 1 0 8 0;
#X connect 1 0 9 0;
#X connect 1 0 10 0;
#X connect 1 0 11 0;
#X connect 6 0 1 0;
#X connect 7 0 0 0;
#X connect 8 0 2 0;
#X connect 9 0 3 0;
#X connect 10 0 4 0;
#X connect 11 0 5 0;
#X restore 117 307 pd clear;
#X obj 117 287 bng 15 250 50 0 empty empty empty 17 7 0 10 -262144
-1 -1;
#N canvas 1018 585 802 244 knobs 0;
#X obj 27 30 r knob1;
#X obj 27 54 * 100;
#X obj 27 126 s screenLine1;
#X obj 27 78 i;
#X msg 27 102 Value line 1: \$1 %;
#X obj 165 54 * 100;
#X obj 165 78 i;
#X obj 165 30 r knob2;
#X msg 165 102 Value line 2: \$1 %;
#X obj 303 54 * 100;
#X obj 303 78 i;
#X obj 441 54 * 100;
#X obj 441 78 i;
#X obj 303 30 r knob3;
#X msg 303 102 Value line 3: \$1 %;
#X obj 441 30 r knob4;
#X msg 441 102 Value line 4: \$1 %;
#X obj 579 54 * 100;
#X obj 579 78 i;
#X msg 579 102 Value line 5: \$1 %;
#X obj 165 126 s screenLine2;
#X obj 303 126 s screenLine3;
#X obj 441 126 s screenLine4;
#X obj 579 126 s screenLine5;
#X obj 579 30 r knob4;
#X connect 0 0 1 0;
#X connect 1 0 3 0;
#X connect 3 0 4 0;
#X connect 4 0 2 0;
#X connect 5 0 6 0;
#X connect 6 0 8 0;
#X connect 7 0 5 0;
#X connect 8 0 20 0;
#X connect 9 0 10 0;
#X connect 10 0 14 0;
#X connect 11 0 12 0;
#X connect 12 0 16 0;
#X connect 13 0 9 0;
#X connect 14 0 21 0;
#X connect 15 0 11 0;
#X connect 16 0 22 0;
#X connect 17 0 18 0;
#X connect 18 0 19 0;
#X connect 19 0 23 0;
#X connect 24 0 17 0;
#X restore 334 306 pd knobs;
#X text 190 308 Move the knobs in UI;
#X obj 474 329 s led;
#X text 407 307 LED color;
#X obj 474 308 hradio 15 1 0 8 empty empty empty 0 -8 0 10 -262144
-1 -1 1;
#X connect 4 0 3 0;
#X connect 6 0 5 0;
#X connect 11 0 9 0;
