#N canvas 916 309 624 322 12;
#X obj 508 61 vu 19 200 empty empty -1 -10 0 12 #404040 #000000 1 0;
#X obj 71 148 env~ 1024;
#X obj 143 118 abs~;
#X obj 143 193 snapshot~;
#X obj 143 218 rmstodb;
#X obj 143 34 inlet~;
#X obj 143 242 - 100;
#X obj 71 242 - 100;
#X obj 143 148 slop~ 0 0 0 0 1e+09;
#X obj 71 174 t f b;
#X obj 221 44 loadbang;
#X msg 221 118 2;
#X connect 1 0 9 0;
#X connect 2 0 8 0;
#X connect 3 0 4 0;
#X connect 4 0 6 0;
#X connect 5 0 1 0;
#X connect 5 0 2 0;
#X connect 6 0 0 1;
#X connect 7 0 0 0;
#X connect 8 0 3 0;
#X connect 9 0 7 0;
#X connect 9 1 3 0;
#X connect 10 0 11 0;
#X connect 11 0 8 3;
#X coords 0 -1 1 1 65 220 2 500 50;
